<svg xmlns="http://www.w3.org/2000/svg" xmlns:xlink="http://www.w3.org/1999/xlink" width="450" zoomAndPan="magnify" viewBox="0 0 337.5 337.499995" height="450" preserveAspectRatio="xMidYMid meet" version="1.0"><defs><g><g id="id1"/><g id="id2"/></g><clipPath id="id3"><path d="M 138 97 L 204 97 L 204 170 L 138 170 Z M 138 97 " clip-rule="nonzero"/></clipPath><clipPath id="id4"><path d="M 137.65625 97.832031 L 202.894531 96.648438 L 204.214844 169.386719 L 138.972656 170.566406 Z M 137.65625 97.832031 " clip-rule="nonzero"/></clipPath><clipPath id="id5"><path d="M 137.65625 97.832031 L 202.894531 96.648438 L 204.214844 169.386719 L 138.972656 170.566406 Z M 137.65625 97.832031 " clip-rule="nonzero"/></clipPath><clipPath id="id6"><path d="M 137.65625 97.832031 L 202.894531 96.648438 L 204.214844 169.386719 L 138.972656 170.566406 Z M 137.65625 97.832031 " clip-rule="nonzero"/></clipPath><clipPath id="id7"><path d="M 174.644531 101.925781 L 197.714844 114.605469 C 198.171875 114.277344 198.734375 114.082031 199.339844 114.070312 C 199.722656 114.0625 200.097656 114.132812 200.441406 114.269531 C 200.796875 114.40625 201.117188 114.613281 201.382812 114.871094 C 201.652344 115.125 201.871094 115.4375 202.023438 115.785156 C 202.171875 116.121094 202.257812 116.488281 202.265625 116.871094 C 202.269531 117.253906 202.199219 117.625 202.0625 117.964844 C 201.925781 118.320312 201.714844 118.636719 201.457031 118.902344 C 201.265625 119.097656 201.046875 119.269531 200.804688 119.40625 L 200.800781 119.402344 C 200.757812 119.429688 200.714844 119.449219 200.671875 119.472656 L 201.144531 145.648438 C 201.296875 145.707031 201.453125 145.78125 201.609375 145.871094 C 202.121094 146.152344 202.558594 146.527344 202.90625 146.957031 C 203.265625 147.40625 203.527344 147.917969 203.683594 148.457031 C 204.34375 150.730469 203.011719 153.152344 200.699219 153.8125 C 200.15625 153.964844 199.582031 154.015625 199.003906 153.949219 C 198.527344 153.898438 198.050781 153.761719 197.59375 153.542969 L 197.574219 153.542969 L 197.382812 153.4375 C 197.230469 153.355469 197.082031 153.261719 196.941406 153.160156 L 174.996094 166.277344 C 175.003906 166.34375 175.003906 166.40625 175.003906 166.476562 C 175.015625 166.9375 174.925781 167.382812 174.765625 167.792969 L 174.765625 167.796875 C 174.597656 168.222656 174.347656 168.605469 174.035156 168.925781 C 173.726562 169.246094 173.347656 169.507812 172.925781 169.691406 C 172.515625 169.867188 172.070312 169.96875 171.605469 169.976562 C 171.136719 169.984375 170.6875 169.898438 170.273438 169.738281 C 169.84375 169.570312 169.457031 169.320312 169.136719 169.015625 C 168.816406 168.707031 168.550781 168.332031 168.367188 167.910156 C 168.191406 167.507812 168.089844 167.066406 168.078125 166.601562 C 168.078125 166.546875 168.082031 166.496094 168.082031 166.4375 L 145.671875 154.121094 C 145.527344 154.234375 145.375 154.34375 145.214844 154.4375 L 145.207031 154.4375 C 144.703125 154.738281 144.160156 154.925781 143.613281 155.007812 C 143.039062 155.09375 142.460938 155.0625 141.917969 154.929688 C 141.367188 154.796875 140.839844 154.550781 140.378906 154.210938 C 139.933594 153.886719 139.542969 153.464844 139.238281 152.957031 L 139.230469 152.949219 L 139.230469 152.953125 C 138.929688 152.453125 138.742188 151.914062 138.660156 151.367188 C 138.574219 150.800781 138.605469 150.230469 138.742188 149.6875 C 138.878906 149.140625 139.121094 148.621094 139.464844 148.160156 C 139.792969 147.71875 140.21875 147.328125 140.726562 147.023438 L 140.914062 146.914062 L 140.925781 146.914062 C 141 146.875 141.074219 146.835938 141.144531 146.804688 L 140.667969 120.617188 C 140.605469 120.59375 140.546875 120.566406 140.484375 120.535156 C 140.199219 120.402344 139.941406 120.222656 139.726562 120.019531 C 139.460938 119.765625 139.246094 119.453125 139.089844 119.105469 C 138.945312 118.765625 138.859375 118.398438 138.851562 118.019531 C 138.84375 117.636719 138.914062 117.269531 139.050781 116.925781 L 139.050781 116.921875 C 139.191406 116.570312 139.398438 116.253906 139.65625 115.988281 C 140.167969 115.464844 140.878906 115.132812 141.671875 115.117188 C 142.058594 115.109375 142.433594 115.179688 142.773438 115.316406 C 142.988281 115.398438 143.1875 115.507812 143.375 115.636719 L 165.976562 102.121094 C 165.957031 101.96875 165.945312 101.808594 165.941406 101.652344 C 165.933594 101.070312 166.042969 100.507812 166.246094 99.992188 L 166.246094 99.988281 C 166.613281 99.054688 167.054688 98.664062 167.777344 98.046875 C 168.023438 97.875 168.285156 97.726562 168.5625 97.605469 C 169.074219 97.382812 169.636719 97.257812 170.222656 97.246094 C 170.808594 97.234375 171.375 97.34375 171.894531 97.546875 C 172.433594 97.753906 172.921875 98.070312 173.328125 98.457031 C 173.734375 98.847656 174.066406 99.320312 174.296875 99.847656 C 174.519531 100.355469 174.648438 100.914062 174.660156 101.496094 C 174.664062 101.640625 174.65625 101.785156 174.644531 101.929688 Z M 140.554688 151.257812 Z M 145.480469 150.832031 C 145.578125 147.929688 141.367188 147.296875 140.589844 150.097656 C 140.546875 150.285156 140.519531 150.480469 140.515625 150.675781 C 140.507812 150.871094 140.519531 151.066406 140.554688 151.261719 C 141.148438 154.101562 145.390625 153.734375 145.480469 150.835938 Z M 167.867188 101.472656 C 167.863281 101.667969 167.875 101.867188 167.910156 102.0625 C 168.039062 102.671875 168.382812 103.1875 168.859375 103.539062 C 169.332031 103.886719 169.933594 104.074219 170.5625 104.019531 C 171.191406 103.964844 171.75 103.683594 172.15625 103.257812 C 172.5625 102.832031 172.820312 102.261719 172.839844 101.632812 C 172.859375 101.007812 172.644531 100.421875 172.265625 99.972656 C 171.886719 99.519531 171.347656 99.203125 170.722656 99.105469 C 170.101562 99.011719 169.488281 99.160156 168.992188 99.476562 C 168.496094 99.796875 168.117188 100.292969 167.949219 100.894531 C 167.902344 101.082031 167.878906 101.277344 167.871094 101.472656 Z M 197.027344 149.585938 C 197.023438 149.78125 197.035156 149.980469 197.066406 150.171875 C 197.199219 150.785156 197.542969 151.300781 198.019531 151.652344 C 198.492188 152 199.089844 152.183594 199.722656 152.132812 C 200.351562 152.078125 200.910156 151.796875 201.316406 151.371094 C 201.722656 150.941406 201.980469 150.375 202 149.746094 C 202.019531 149.121094 201.800781 148.535156 201.421875 148.085938 C 201.042969 147.632812 200.507812 147.3125 199.882812 147.21875 C 199.257812 147.125 198.648438 147.269531 198.152344 147.589844 C 197.65625 147.910156 197.277344 148.40625 197.109375 149.007812 C 197.0625 149.195312 197.035156 149.390625 197.03125 149.585938 Z M 144.515625 117.300781 C 144.5625 117.5 144.589844 117.703125 144.59375 117.914062 C 144.601562 118.296875 144.53125 118.667969 144.394531 119.007812 C 144.253906 119.363281 144.046875 119.679688 143.789062 119.945312 C 143.550781 120.191406 143.269531 120.394531 142.949219 120.542969 C 142.871094 120.582031 142.792969 120.613281 142.707031 120.644531 L 143.175781 146.410156 C 143.339844 146.417969 143.5 146.4375 143.660156 146.460938 L 167.0625 104.46875 C 166.9375 104.332031 166.820312 104.183594 166.714844 104.035156 L 144.511719 117.304688 Z M 167.179688 134.433594 L 167.246094 134.464844 C 167.390625 134.535156 167.527344 134.621094 167.65625 134.714844 L 182.28125 125.972656 C 182.242188 125.800781 182.222656 125.625 182.21875 125.453125 C 182.214844 125.070312 182.285156 124.703125 182.421875 124.359375 C 182.546875 124.039062 182.726562 123.753906 182.949219 123.503906 L 172.058594 105.53125 C 171.925781 105.589844 171.792969 105.640625 171.65625 105.683594 L 171.652344 105.683594 C 171.347656 105.785156 171.03125 105.851562 170.707031 105.882812 L 167.183594 134.433594 Z M 168.757812 136.410156 C 168.796875 136.589844 168.816406 136.769531 168.820312 136.957031 L 168.820312 137.027344 L 195.84375 147.296875 C 196.023438 147.023438 196.222656 146.777344 196.445312 146.5625 C 196.546875 146.464844 196.648438 146.375 196.753906 146.285156 L 185.777344 128.167969 C 185.578125 128.214844 185.363281 128.246094 185.148438 128.25 C 184.761719 128.253906 184.386719 128.183594 184.046875 128.050781 C 183.800781 127.953125 183.574219 127.828125 183.367188 127.675781 L 168.761719 136.40625 Z M 168.085938 138.910156 C 168.0625 138.9375 168.039062 138.964844 168.015625 138.988281 C 167.507812 139.511719 166.792969 139.84375 166 139.859375 C 165.617188 139.867188 165.242188 139.796875 164.898438 139.660156 C 164.605469 139.546875 164.335938 139.386719 164.101562 139.191406 L 147.101562 149.351562 C 147.140625 149.464844 147.171875 149.578125 147.203125 149.691406 L 147.203125 149.695312 C 147.226562 149.789062 147.246094 149.882812 147.261719 149.980469 L 194.949219 149.117188 Z M 163.109375 137.433594 C 163.089844 137.308594 163.078125 137.183594 163.074219 137.058594 C 163.070312 136.679688 163.140625 136.308594 163.277344 135.96875 L 163.277344 135.964844 C 163.414062 135.613281 163.621094 135.296875 163.882812 135.03125 C 164.132812 134.769531 164.4375 134.558594 164.78125 134.410156 C 164.898438 134.355469 165.023438 134.308594 165.152344 134.273438 L 168.671875 105.734375 L 145.542969 147.238281 C 145.613281 147.289062 145.679688 147.34375 145.75 147.398438 C 145.84375 147.476562 145.9375 147.5625 146.027344 147.648438 L 163.113281 137.4375 Z M 185.039062 122.546875 C 185.425781 122.542969 185.800781 122.613281 186.140625 122.746094 C 186.496094 122.886719 186.816406 123.089844 187.085938 123.347656 C 187.351562 123.605469 187.570312 123.914062 187.722656 124.265625 C 187.871094 124.601562 187.957031 124.96875 187.964844 125.351562 C 187.972656 125.730469 187.902344 126.105469 187.765625 126.445312 C 187.679688 126.652344 187.574219 126.847656 187.449219 127.027344 L 198.589844 145.417969 C 198.757812 145.382812 198.925781 145.355469 199.097656 145.34375 L 198.632812 119.671875 C 198.535156 119.644531 198.433594 119.609375 198.339844 119.574219 C 197.980469 119.433594 197.660156 119.226562 197.394531 118.972656 C 197.128906 118.71875 196.910156 118.410156 196.757812 118.058594 C 196.609375 117.722656 196.523438 117.355469 196.515625 116.972656 C 196.511719 116.742188 196.539062 116.511719 196.589844 116.289062 L 173.988281 103.867188 L 173.691406 104.3125 L 184.75 122.566406 C 184.847656 122.554688 184.941406 122.550781 185.039062 122.546875 Z M 147.132812 152.003906 C 147.082031 152.175781 147.015625 152.34375 146.941406 152.511719 L 168.726562 164.484375 L 169.054688 164.148438 C 169.671875 163.511719 170.53125 163.113281 171.484375 163.09375 C 171.949219 163.085938 172.398438 163.171875 172.8125 163.332031 L 172.816406 163.332031 C 173.246094 163.5 173.628906 163.75 173.953125 164.058594 C 174.054688 164.15625 174.152344 164.261719 174.242188 164.375 L 195.609375 151.601562 C 195.53125 151.449219 195.460938 151.289062 195.402344 151.128906 Z M 147.132812 152.003906 " clip-rule="nonzero"/></clipPath><linearGradient x1="13.939558" gradientTransform="matrix(0.242255, -0.00438911, 0.0043593, 0.24061, 137.656569, 97.831173)" y1="317.138457" x2="270.468269" gradientUnits="userSpaceOnUse" y2="-5.763579" xlink:type="simple" xlink:actuate="onLoad" id="id8" xlink:show="other"><stop stop-opacity="1" stop-color="rgb(74.899292%, 0.721741%, 80.140686%)" offset="0"/><stop stop-opacity="1" stop-color="rgb(74.41864%, 1.15509%, 80.226135%)" offset="0.00390625"/><stop stop-opacity="1" stop-color="rgb(73.939514%, 1.589966%, 80.311584%)" offset="0.0078125"/><stop stop-opacity="1" stop-color="rgb(73.458862%, 2.023315%, 80.397034%)" offset="0.0117187"/><stop stop-opacity="1" stop-color="rgb(72.979736%, 2.458191%, 80.482483%)" offset="0.015625"/><stop stop-opacity="1" stop-color="rgb(72.499084%, 2.891541%, 80.567932%)" offset="0.0195312"/><stop stop-opacity="1" stop-color="rgb(72.019958%, 3.326416%, 80.653381%)" offset="0.0234375"/><stop stop-opacity="1" stop-color="rgb(71.540833%, 3.759766%, 80.738831%)" offset="0.0273437"/><stop stop-opacity="1" stop-color="rgb(71.061707%, 4.194641%, 80.82428%)" offset="0.03125"/><stop stop-opacity="1" stop-color="rgb(70.581055%, 4.627991%, 80.908203%)" offset="0.0351563"/><stop stop-opacity="1" stop-color="rgb(70.101929%, 5.062866%, 80.993652%)" offset="0.0390625"/><stop stop-opacity="1" stop-color="rgb(69.621277%, 5.496216%, 81.079102%)" offset="0.0429687"/><stop stop-opacity="1" stop-color="rgb(69.142151%, 5.931091%, 81.164551%)" offset="0.046875"/><stop stop-opacity="1" stop-color="rgb(68.661499%, 6.364441%, 81.25%)" offset="0.0507813"/><stop stop-opacity="1" stop-color="rgb(68.182373%, 6.799316%, 81.335449%)" offset="0.0546875"/><stop stop-opacity="1" stop-color="rgb(67.701721%, 7.232666%, 81.420898%)" offset="0.0585937"/><stop stop-opacity="1" stop-color="rgb(67.222595%, 7.667542%, 81.506348%)" offset="0.0625"/><stop stop-opacity="1" stop-color="rgb(66.741943%, 8.100891%, 81.590271%)" offset="0.0664062"/><stop stop-opacity="1" stop-color="rgb(66.262817%, 8.534241%, 81.67572%)" offset="0.0703125"/><stop stop-opacity="1" stop-color="rgb(65.782166%, 8.96759%, 81.761169%)" offset="0.0742188"/><stop stop-opacity="1" stop-color="rgb(65.30304%, 9.402466%, 81.846619%)" offset="0.078125"/><stop stop-opacity="1" stop-color="rgb(64.822388%, 9.835815%, 81.932068%)" offset="0.0820312"/><stop stop-opacity="1" stop-color="rgb(64.343262%, 10.270691%, 82.017517%)" offset="0.0859375"/><stop stop-opacity="1" stop-color="rgb(63.86261%, 10.704041%, 82.102966%)" offset="0.0898438"/><stop stop-opacity="1" stop-color="rgb(63.383484%, 11.138916%, 82.188416%)" offset="0.09375"/><stop stop-opacity="1" stop-color="rgb(62.902832%, 11.572266%, 82.273865%)" offset="0.0976562"/><stop stop-opacity="1" stop-color="rgb(62.423706%, 12.007141%, 82.359314%)" offset="0.101563"/><stop stop-opacity="1" stop-color="rgb(61.943054%, 12.440491%, 82.443237%)" offset="0.105469"/><stop stop-opacity="1" stop-color="rgb(61.463928%, 12.875366%, 82.528687%)" offset="0.109375"/><stop stop-opacity="1" stop-color="rgb(60.983276%, 13.308716%, 82.614136%)" offset="0.113281"/><stop stop-opacity="1" stop-color="rgb(60.50415%, 13.743591%, 82.699585%)" offset="0.117187"/><stop stop-opacity="1" stop-color="rgb(60.023499%, 14.176941%, 82.785034%)" offset="0.121094"/><stop stop-opacity="1" stop-color="rgb(59.544373%, 14.611816%, 82.870483%)" offset="0.125"/><stop stop-opacity="1" stop-color="rgb(59.063721%, 15.045166%, 82.955933%)" offset="0.128906"/><stop stop-opacity="1" stop-color="rgb(58.584595%, 15.480042%, 83.041382%)" offset="0.132812"/><stop stop-opacity="1" stop-color="rgb(58.103943%, 15.913391%, 83.125305%)" offset="0.136719"/><stop stop-opacity="1" stop-color="rgb(57.624817%, 16.346741%, 83.210754%)" offset="0.140625"/><stop stop-opacity="1" stop-color="rgb(57.144165%, 16.78009%, 83.296204%)" offset="0.144531"/><stop stop-opacity="1" stop-color="rgb(56.665039%, 17.214966%, 83.381653%)" offset="0.148438"/><stop stop-opacity="1" stop-color="rgb(56.184387%, 17.648315%, 83.467102%)" offset="0.152344"/><stop stop-opacity="1" stop-color="rgb(55.705261%, 18.083191%, 83.552551%)" offset="0.15625"/><stop stop-opacity="1" stop-color="rgb(55.224609%, 18.516541%, 83.638%)" offset="0.160156"/><stop stop-opacity="1" stop-color="rgb(54.745483%, 18.951416%, 83.72345%)" offset="0.164062"/><stop stop-opacity="1" stop-color="rgb(54.264832%, 19.384766%, 83.807373%)" offset="0.167969"/><stop stop-opacity="1" stop-color="rgb(53.785706%, 19.819641%, 83.892822%)" offset="0.171875"/><stop stop-opacity="1" stop-color="rgb(53.305054%, 20.252991%, 83.978271%)" offset="0.175781"/><stop stop-opacity="1" stop-color="rgb(52.825928%, 20.687866%, 84.063721%)" offset="0.179687"/><stop stop-opacity="1" stop-color="rgb(52.346802%, 21.121216%, 84.14917%)" offset="0.183594"/><stop stop-opacity="1" stop-color="rgb(51.867676%, 21.556091%, 84.234619%)" offset="0.1875"/><stop stop-opacity="1" stop-color="rgb(51.387024%, 21.989441%, 84.320068%)" offset="0.191406"/><stop stop-opacity="1" stop-color="rgb(50.907898%, 22.424316%, 84.405518%)" offset="0.195312"/><stop stop-opacity="1" stop-color="rgb(50.427246%, 22.857666%, 84.490967%)" offset="0.199219"/><stop stop-opacity="1" stop-color="rgb(49.94812%, 23.292542%, 84.576416%)" offset="0.203125"/><stop stop-opacity="1" stop-color="rgb(49.467468%, 23.725891%, 84.660339%)" offset="0.207031"/><stop stop-opacity="1" stop-color="rgb(48.988342%, 24.159241%, 84.745789%)" offset="0.210938"/><stop stop-opacity="1" stop-color="rgb(48.50769%, 24.59259%, 84.831238%)" offset="0.214844"/><stop stop-opacity="1" stop-color="rgb(48.028564%, 25.027466%, 84.916687%)" offset="0.21875"/><stop stop-opacity="1" stop-color="rgb(47.547913%, 25.460815%, 85.002136%)" offset="0.222656"/><stop stop-opacity="1" stop-color="rgb(47.068787%, 25.895691%, 85.087585%)" offset="0.226562"/><stop stop-opacity="1" stop-color="rgb(46.588135%, 26.329041%, 85.173035%)" offset="0.230469"/><stop stop-opacity="1" stop-color="rgb(46.109009%, 26.763916%, 85.258484%)" offset="0.234375"/><stop stop-opacity="1" stop-color="rgb(45.628357%, 27.197266%, 85.342407%)" offset="0.238281"/><stop stop-opacity="1" stop-color="rgb(45.149231%, 27.632141%, 85.427856%)" offset="0.242187"/><stop stop-opacity="1" stop-color="rgb(44.668579%, 28.065491%, 85.513306%)" offset="0.246094"/><stop stop-opacity="1" stop-color="rgb(44.189453%, 28.500366%, 85.598755%)" offset="0.25"/><stop stop-opacity="1" stop-color="rgb(43.708801%, 28.933716%, 85.684204%)" offset="0.253906"/><stop stop-opacity="1" stop-color="rgb(43.229675%, 29.368591%, 85.769653%)" offset="0.257812"/><stop stop-opacity="1" stop-color="rgb(42.749023%, 29.801941%, 85.855103%)" offset="0.261719"/><stop stop-opacity="1" stop-color="rgb(42.269897%, 30.236816%, 85.940552%)" offset="0.265625"/><stop stop-opacity="1" stop-color="rgb(41.789246%, 30.670166%, 86.026001%)" offset="0.269531"/><stop stop-opacity="1" stop-color="rgb(41.31012%, 31.105042%, 86.11145%)" offset="0.273437"/><stop stop-opacity="1" stop-color="rgb(40.829468%, 31.538391%, 86.195374%)" offset="0.277344"/><stop stop-opacity="1" stop-color="rgb(40.350342%, 31.971741%, 86.280823%)" offset="0.28125"/><stop stop-opacity="1" stop-color="rgb(39.86969%, 32.40509%, 86.366272%)" offset="0.285156"/><stop stop-opacity="1" stop-color="rgb(39.390564%, 32.839966%, 86.451721%)" offset="0.289062"/><stop stop-opacity="1" stop-color="rgb(38.909912%, 33.273315%, 86.53717%)" offset="0.292969"/><stop stop-opacity="1" stop-color="rgb(38.430786%, 33.708191%, 86.62262%)" offset="0.296875"/><stop stop-opacity="1" stop-color="rgb(37.989807%, 34.107971%, 86.701965%)" offset="0.300781"/><stop stop-opacity="1" stop-color="rgb(37.548828%, 34.507751%, 86.782837%)" offset="0.304687"/><stop stop-opacity="1" stop-color="rgb(37.139893%, 34.87854%, 86.857605%)" offset="0.308594"/><stop stop-opacity="1" stop-color="rgb(36.730957%, 35.250854%, 86.932373%)" offset="0.3125"/><stop stop-opacity="1" stop-color="rgb(36.322021%, 35.621643%, 87.007141%)" offset="0.316406"/><stop stop-opacity="1" stop-color="rgb(35.913086%, 35.993958%, 87.083435%)" offset="0.320312"/><stop stop-opacity="1" stop-color="rgb(35.502625%, 36.364746%, 87.158203%)" offset="0.324219"/><stop stop-opacity="1" stop-color="rgb(35.093689%, 36.737061%, 87.234497%)" offset="0.328125"/><stop stop-opacity="1" stop-color="rgb(34.684753%, 37.107849%, 87.309265%)" offset="0.332031"/><stop stop-opacity="1" stop-color="rgb(34.275818%, 37.480164%, 87.385559%)" offset="0.335937"/><stop stop-opacity="1" stop-color="rgb(33.866882%, 37.850952%, 87.460327%)" offset="0.339844"/><stop stop-opacity="1" stop-color="rgb(33.457947%, 38.223267%, 87.535095%)" offset="0.34375"/><stop stop-opacity="1" stop-color="rgb(33.049011%, 38.594055%, 87.609863%)" offset="0.347656"/><stop stop-opacity="1" stop-color="rgb(32.640076%, 38.964844%, 87.686157%)" offset="0.351562"/><stop stop-opacity="1" stop-color="rgb(32.229614%, 39.335632%, 87.760925%)" offset="0.355469"/><stop stop-opacity="1" stop-color="rgb(31.820679%, 39.707947%, 87.837219%)" offset="0.359375"/><stop stop-opacity="1" stop-color="rgb(31.411743%, 40.078735%, 87.911987%)" offset="0.363281"/><stop stop-opacity="1" stop-color="rgb(31.002808%, 40.45105%, 87.988281%)" offset="0.367187"/><stop stop-opacity="1" stop-color="rgb(30.593872%, 40.821838%, 88.063049%)" offset="0.371094"/><stop stop-opacity="1" stop-color="rgb(30.184937%, 41.194153%, 88.139343%)" offset="0.375"/><stop stop-opacity="1" stop-color="rgb(29.774475%, 41.564941%, 88.214111%)" offset="0.378906"/><stop stop-opacity="1" stop-color="rgb(29.36554%, 41.937256%, 88.288879%)" offset="0.382812"/><stop stop-opacity="1" stop-color="rgb(28.956604%, 42.308044%, 88.363647%)" offset="0.386719"/><stop stop-opacity="1" stop-color="rgb(28.547668%, 42.680359%, 88.439941%)" offset="0.390625"/><stop stop-opacity="1" stop-color="rgb(28.138733%, 43.051147%, 88.514709%)" offset="0.394531"/><stop stop-opacity="1" stop-color="rgb(27.729797%, 43.423462%, 88.591003%)" offset="0.398437"/><stop stop-opacity="1" stop-color="rgb(27.319336%, 43.79425%, 88.665771%)" offset="0.402344"/><stop stop-opacity="1" stop-color="rgb(26.9104%, 44.166565%, 88.742065%)" offset="0.40625"/><stop stop-opacity="1" stop-color="rgb(26.501465%, 44.537354%, 88.816833%)" offset="0.410156"/><stop stop-opacity="1" stop-color="rgb(26.092529%, 44.909668%, 88.893127%)" offset="0.414062"/><stop stop-opacity="1" stop-color="rgb(25.683594%, 45.280457%, 88.967896%)" offset="0.417969"/><stop stop-opacity="1" stop-color="rgb(25.274658%, 45.651245%, 89.042664%)" offset="0.421875"/><stop stop-opacity="1" stop-color="rgb(24.865723%, 46.022034%, 89.117432%)" offset="0.425781"/><stop stop-opacity="1" stop-color="rgb(24.456787%, 46.394348%, 89.193726%)" offset="0.429687"/><stop stop-opacity="1" stop-color="rgb(24.046326%, 46.765137%, 89.268494%)" offset="0.433594"/><stop stop-opacity="1" stop-color="rgb(23.63739%, 47.137451%, 89.344788%)" offset="0.4375"/><stop stop-opacity="1" stop-color="rgb(23.228455%, 47.50824%, 89.419556%)" offset="0.441406"/><stop stop-opacity="1" stop-color="rgb(22.819519%, 47.880554%, 89.49585%)" offset="0.445312"/><stop stop-opacity="1" stop-color="rgb(22.410583%, 48.251343%, 89.570618%)" offset="0.449219"/><stop stop-opacity="1" stop-color="rgb(22.001648%, 48.623657%, 89.646912%)" offset="0.453125"/><stop stop-opacity="1" stop-color="rgb(21.591187%, 48.994446%, 89.72168%)" offset="0.457031"/><stop stop-opacity="1" stop-color="rgb(21.182251%, 49.36676%, 89.796448%)" offset="0.460937"/><stop stop-opacity="1" stop-color="rgb(20.773315%, 49.737549%, 89.871216%)" offset="0.464844"/><stop stop-opacity="1" stop-color="rgb(20.36438%, 50.109863%, 89.94751%)" offset="0.46875"/><stop stop-opacity="1" stop-color="rgb(19.955444%, 50.480652%, 90.022278%)" offset="0.472656"/><stop stop-opacity="1" stop-color="rgb(19.546509%, 50.852966%, 90.098572%)" offset="0.476562"/><stop stop-opacity="1" stop-color="rgb(19.137573%, 51.223755%, 90.17334%)" offset="0.480469"/><stop stop-opacity="1" stop-color="rgb(18.728638%, 51.596069%, 90.249634%)" offset="0.484375"/><stop stop-opacity="1" stop-color="rgb(18.318176%, 51.966858%, 90.324402%)" offset="0.488281"/><stop stop-opacity="1" stop-color="rgb(17.909241%, 52.337646%, 90.39917%)" offset="0.492187"/><stop stop-opacity="1" stop-color="rgb(17.500305%, 52.708435%, 90.473938%)" offset="0.496094"/><stop stop-opacity="1" stop-color="rgb(17.09137%, 53.08075%, 90.550232%)" offset="0.5"/><stop stop-opacity="1" stop-color="rgb(16.682434%, 53.451538%, 90.625%)" offset="0.503906"/><stop stop-opacity="1" stop-color="rgb(16.273499%, 53.823853%, 90.701294%)" offset="0.507812"/><stop stop-opacity="1" stop-color="rgb(15.863037%, 54.194641%, 90.776062%)" offset="0.511719"/><stop stop-opacity="1" stop-color="rgb(15.454102%, 54.566956%, 90.852356%)" offset="0.515625"/><stop stop-opacity="1" stop-color="rgb(15.045166%, 54.937744%, 90.927124%)" offset="0.519531"/><stop stop-opacity="1" stop-color="rgb(14.63623%, 55.310059%, 91.003418%)" offset="0.523438"/><stop stop-opacity="1" stop-color="rgb(14.227295%, 55.680847%, 91.078186%)" offset="0.527344"/><stop stop-opacity="1" stop-color="rgb(13.818359%, 56.053162%, 91.152954%)" offset="0.53125"/><stop stop-opacity="1" stop-color="rgb(13.409424%, 56.42395%, 91.227722%)" offset="0.535156"/><stop stop-opacity="1" stop-color="rgb(13.000488%, 56.796265%, 91.304016%)" offset="0.539063"/><stop stop-opacity="1" stop-color="rgb(12.590027%, 57.167053%, 91.378784%)" offset="0.542969"/><stop stop-opacity="1" stop-color="rgb(12.181091%, 57.539368%, 91.455078%)" offset="0.546875"/><stop stop-opacity="1" stop-color="rgb(11.772156%, 57.910156%, 91.529846%)" offset="0.550781"/><stop stop-opacity="1" stop-color="rgb(11.36322%, 58.282471%, 91.60614%)" offset="0.554688"/><stop stop-opacity="1" stop-color="rgb(10.954285%, 58.653259%, 91.680908%)" offset="0.558594"/><stop stop-opacity="1" stop-color="rgb(10.545349%, 59.024048%, 91.757202%)" offset="0.5625"/><stop stop-opacity="1" stop-color="rgb(10.134888%, 59.394836%, 91.83197%)" offset="0.566406"/><stop stop-opacity="1" stop-color="rgb(9.725952%, 59.767151%, 91.906738%)" offset="0.570313"/><stop stop-opacity="1" stop-color="rgb(9.317017%, 60.137939%, 91.981506%)" offset="0.574219"/><stop stop-opacity="1" stop-color="rgb(8.908081%, 60.510254%, 92.0578%)" offset="0.578125"/><stop stop-opacity="1" stop-color="rgb(8.499146%, 60.881042%, 92.132568%)" offset="0.582031"/><stop stop-opacity="1" stop-color="rgb(8.09021%, 61.253357%, 92.208862%)" offset="0.585938"/><stop stop-opacity="1" stop-color="rgb(7.681274%, 61.624146%, 92.28363%)" offset="0.589844"/><stop stop-opacity="1" stop-color="rgb(7.272339%, 61.99646%, 92.359924%)" offset="0.59375"/><stop stop-opacity="1" stop-color="rgb(6.861877%, 62.367249%, 92.434692%)" offset="0.597656"/><stop stop-opacity="1" stop-color="rgb(6.452942%, 62.739563%, 92.510986%)" offset="0.601562"/><stop stop-opacity="1" stop-color="rgb(6.044006%, 63.110352%, 92.585754%)" offset="0.605469"/><stop stop-opacity="1" stop-color="rgb(5.635071%, 63.482666%, 92.660522%)" offset="0.609375"/><stop stop-opacity="1" stop-color="rgb(5.226135%, 63.853455%, 92.735291%)" offset="0.613281"/><stop stop-opacity="1" stop-color="rgb(4.8172%, 64.225769%, 92.811584%)" offset="0.617188"/><stop stop-opacity="1" stop-color="rgb(4.406738%, 64.596558%, 92.886353%)" offset="0.621094"/><stop stop-opacity="1" stop-color="rgb(3.997803%, 64.968872%, 92.962646%)" offset="0.625"/><stop stop-opacity="1" stop-color="rgb(3.588867%, 65.339661%, 93.037415%)" offset="0.628906"/><stop stop-opacity="1" stop-color="rgb(3.179932%, 65.711975%, 93.113708%)" offset="0.632812"/><stop stop-opacity="1" stop-color="rgb(2.770996%, 66.082764%, 93.188477%)" offset="0.636719"/><stop stop-opacity="1" stop-color="rgb(2.362061%, 66.453552%, 93.264771%)" offset="0.640625"/><stop stop-opacity="1" stop-color="rgb(1.953125%, 66.824341%, 93.339539%)" offset="0.644531"/><stop stop-opacity="1" stop-color="rgb(1.544189%, 67.196655%, 93.414307%)" offset="0.648438"/><stop stop-opacity="1" stop-color="rgb(1.133728%, 67.567444%, 93.489075%)" offset="0.652344"/><stop stop-opacity="1" stop-color="rgb(0.724792%, 67.939758%, 93.565369%)" offset="0.65625"/><stop stop-opacity="1" stop-color="rgb(0.361633%, 68.309021%, 93.640137%)" offset="0.660156"/><stop stop-opacity="1" stop-color="rgb(0%, 68.678284%, 93.714905%)" offset="0.664062"/><stop stop-opacity="1" stop-color="rgb(0%, 69.032288%, 93.785095%)" offset="0.667969"/><stop stop-opacity="1" stop-color="rgb(0%, 69.386292%, 93.856812%)" offset="0.671875"/><stop stop-opacity="1" stop-color="rgb(0%, 69.740295%, 93.927002%)" offset="0.675781"/><stop stop-opacity="1" stop-color="rgb(0%, 70.094299%, 93.998718%)" offset="0.679687"/><stop stop-opacity="1" stop-color="rgb(0%, 70.448303%, 94.068909%)" offset="0.683594"/><stop stop-opacity="1" stop-color="rgb(0%, 70.802307%, 94.140625%)" offset="0.6875"/><stop stop-opacity="1" stop-color="rgb(0%, 71.156311%, 94.212341%)" offset="0.691406"/><stop stop-opacity="1" stop-color="rgb(0%, 71.510315%, 94.284058%)" offset="0.695312"/><stop stop-opacity="1" stop-color="rgb(0%, 71.864319%, 94.354248%)" offset="0.699219"/><stop stop-opacity="1" stop-color="rgb(0%, 72.218323%, 94.425964%)" offset="0.703125"/><stop stop-opacity="1" stop-color="rgb(0%, 72.572327%, 94.496155%)" offset="0.707031"/><stop stop-opacity="1" stop-color="rgb(0%, 72.926331%, 94.567871%)" offset="0.710937"/><stop stop-opacity="1" stop-color="rgb(0%, 73.280334%, 94.638062%)" offset="0.714844"/><stop stop-opacity="1" stop-color="rgb(0%, 73.634338%, 94.709778%)" offset="0.71875"/><stop stop-opacity="1" stop-color="rgb(0%, 73.988342%, 94.779968%)" offset="0.722656"/><stop stop-opacity="1" stop-color="rgb(0%, 74.342346%, 94.851685%)" offset="0.726562"/><stop stop-opacity="1" stop-color="rgb(0%, 74.69635%, 94.921875%)" offset="0.730469"/><stop stop-opacity="1" stop-color="rgb(0%, 75.050354%, 94.993591%)" offset="0.734375"/><stop stop-opacity="1" stop-color="rgb(0%, 75.404358%, 95.063782%)" offset="0.738281"/><stop stop-opacity="1" stop-color="rgb(0%, 75.758362%, 95.135498%)" offset="0.742187"/><stop stop-opacity="1" stop-color="rgb(0%, 76.112366%, 95.205688%)" offset="0.746094"/><stop stop-opacity="1" stop-color="rgb(0%, 76.46637%, 95.277405%)" offset="0.75"/><stop stop-opacity="1" stop-color="rgb(0%, 76.820374%, 95.347595%)" offset="0.753906"/><stop stop-opacity="1" stop-color="rgb(0%, 77.174377%, 95.419312%)" offset="0.757813"/><stop stop-opacity="1" stop-color="rgb(0%, 77.528381%, 95.489502%)" offset="0.761719"/><stop stop-opacity="1" stop-color="rgb(0%, 77.882385%, 95.561218%)" offset="0.765625"/><stop stop-opacity="1" stop-color="rgb(0%, 78.236389%, 95.631409%)" offset="0.769531"/><stop stop-opacity="1" stop-color="rgb(0%, 78.590393%, 95.703125%)" offset="0.773438"/><stop stop-opacity="1" stop-color="rgb(0%, 78.944397%, 95.773315%)" offset="0.777344"/><stop stop-opacity="1" stop-color="rgb(0%, 79.298401%, 95.845032%)" offset="0.78125"/><stop stop-opacity="1" stop-color="rgb(0%, 79.650879%, 95.916748%)" offset="0.785156"/><stop stop-opacity="1" stop-color="rgb(0%, 80.004883%, 95.988464%)" offset="0.789063"/><stop stop-opacity="1" stop-color="rgb(0%, 80.358887%, 96.058655%)" offset="0.792969"/><stop stop-opacity="1" stop-color="rgb(0%, 80.712891%, 96.130371%)" offset="0.796875"/><stop stop-opacity="1" stop-color="rgb(0%, 81.066895%, 96.200562%)" offset="0.800781"/><stop stop-opacity="1" stop-color="rgb(0%, 81.420898%, 96.272278%)" offset="0.804688"/><stop stop-opacity="1" stop-color="rgb(0%, 81.774902%, 96.342468%)" offset="0.808594"/><stop stop-opacity="1" stop-color="rgb(0%, 82.128906%, 96.414185%)" offset="0.8125"/><stop stop-opacity="1" stop-color="rgb(0%, 82.48291%, 96.484375%)" offset="0.816406"/><stop stop-opacity="1" stop-color="rgb(0%, 82.836914%, 96.556091%)" offset="0.820313"/><stop stop-opacity="1" stop-color="rgb(0%, 83.190918%, 96.626282%)" offset="0.824219"/><stop stop-opacity="1" stop-color="rgb(0%, 83.544922%, 96.697998%)" offset="0.828125"/><stop stop-opacity="1" stop-color="rgb(0%, 83.898926%, 96.768188%)" offset="0.832031"/><stop stop-opacity="1" stop-color="rgb(0%, 84.25293%, 96.839905%)" offset="0.835938"/><stop stop-opacity="1" stop-color="rgb(0%, 84.606934%, 96.910095%)" offset="0.839844"/><stop stop-opacity="1" stop-color="rgb(0%, 84.960938%, 96.981812%)" offset="0.84375"/><stop stop-opacity="1" stop-color="rgb(0%, 85.314941%, 97.052002%)" offset="0.847656"/><stop stop-opacity="1" stop-color="rgb(0%, 85.668945%, 97.123718%)" offset="0.851562"/><stop stop-opacity="1" stop-color="rgb(0%, 86.022949%, 97.193909%)" offset="0.855469"/><stop stop-opacity="1" stop-color="rgb(0%, 86.376953%, 97.265625%)" offset="0.859375"/><stop stop-opacity="1" stop-color="rgb(0%, 86.730957%, 97.335815%)" offset="0.863281"/><stop stop-opacity="1" stop-color="rgb(0%, 87.084961%, 97.407532%)" offset="0.867188"/><stop stop-opacity="1" stop-color="rgb(0%, 87.438965%, 97.477722%)" offset="0.871094"/><stop stop-opacity="1" stop-color="rgb(0%, 87.792969%, 97.549438%)" offset="0.875"/><stop stop-opacity="1" stop-color="rgb(0%, 88.146973%, 97.621155%)" offset="0.878906"/><stop stop-opacity="1" stop-color="rgb(0%, 88.500977%, 97.692871%)" offset="0.882812"/><stop stop-opacity="1" stop-color="rgb(0%, 88.85498%, 97.763062%)" offset="0.886719"/><stop stop-opacity="1" stop-color="rgb(0%, 89.208984%, 97.834778%)" offset="0.890625"/><stop stop-opacity="1" stop-color="rgb(0%, 89.562988%, 97.904968%)" offset="0.894531"/><stop stop-opacity="1" stop-color="rgb(0%, 89.916992%, 97.976685%)" offset="0.898438"/><stop stop-opacity="1" stop-color="rgb(0%, 90.26947%, 98.046875%)" offset="0.902344"/><stop stop-opacity="1" stop-color="rgb(0%, 90.623474%, 98.118591%)" offset="0.90625"/><stop stop-opacity="1" stop-color="rgb(0%, 90.977478%, 98.188782%)" offset="0.910156"/><stop stop-opacity="1" stop-color="rgb(0%, 91.331482%, 98.260498%)" offset="0.914062"/><stop stop-opacity="1" stop-color="rgb(0%, 91.685486%, 98.330688%)" offset="0.917969"/><stop stop-opacity="1" stop-color="rgb(0%, 92.03949%, 98.402405%)" offset="0.921875"/><stop stop-opacity="1" stop-color="rgb(0%, 92.393494%, 98.472595%)" offset="0.925781"/><stop stop-opacity="1" stop-color="rgb(0%, 92.747498%, 98.544312%)" offset="0.929687"/><stop stop-opacity="1" stop-color="rgb(0%, 93.101501%, 98.614502%)" offset="0.933594"/><stop stop-opacity="1" stop-color="rgb(0%, 93.455505%, 98.686218%)" offset="0.9375"/><stop stop-opacity="1" stop-color="rgb(0%, 93.809509%, 98.756409%)" offset="0.941406"/><stop stop-opacity="1" stop-color="rgb(0%, 94.163513%, 98.828125%)" offset="0.945312"/><stop stop-opacity="1" stop-color="rgb(0%, 94.517517%, 98.898315%)" offset="0.949219"/><stop stop-opacity="1" stop-color="rgb(0%, 94.871521%, 98.970032%)" offset="0.953125"/><stop stop-opacity="1" stop-color="rgb(0%, 95.225525%, 99.040222%)" offset="0.957031"/><stop stop-opacity="1" stop-color="rgb(0%, 95.579529%, 99.111938%)" offset="0.960937"/><stop stop-opacity="1" stop-color="rgb(0%, 95.933533%, 99.182129%)" offset="0.964844"/><stop stop-opacity="1" stop-color="rgb(0%, 96.287537%, 99.253845%)" offset="0.96875"/><stop stop-opacity="1" stop-color="rgb(0%, 96.641541%, 99.325562%)" offset="0.972656"/><stop stop-opacity="1" stop-color="rgb(0%, 96.995544%, 99.397278%)" offset="0.976562"/><stop stop-opacity="1" stop-color="rgb(0%, 97.349548%, 99.467468%)" offset="0.980469"/><stop stop-opacity="1" stop-color="rgb(0%, 97.703552%, 99.539185%)" offset="0.984375"/><stop stop-opacity="1" stop-color="rgb(0%, 98.057556%, 99.609375%)" offset="0.988281"/><stop stop-opacity="1" stop-color="rgb(0%, 98.41156%, 99.681091%)" offset="0.992187"/><stop stop-opacity="1" stop-color="rgb(0%, 98.765564%, 99.751282%)" offset="0.996094"/><stop stop-opacity="1" stop-color="rgb(0%, 99.119568%, 99.822998%)" offset="1"/></linearGradient></defs><g clip-path="url(#id3)"><g clip-path="url(#id4)"><g clip-path="url(#id5)"><g clip-path="url(#id6)"><g clip-path="url(#id7)"><path fill="url(#id8)" d="M 137.257812 97.257812 L 138.597656 171.171875 L 205.53125 169.960938 L 204.191406 96.046875 Z M 137.257812 97.257812 " fill-rule="nonzero"/></g></g></g></g></g><g fill="rgb(38.038635%, 34.118652%, 86.669922%)" fill-opacity="1"><g transform="translate(16.768536, 206.054514)"><g><path d="M 16.15625 0 L 11.28125 0 L 0.125 -28 L 5.203125 -28 L 13.84375 -5.234375 L 22.5625 -28 L 27.484375 -28 Z M 16.15625 0 "/></g></g></g><g fill="rgb(38.038635%, 34.118652%, 86.669922%)" fill-opacity="1"><g transform="translate(48.565787, 206.054514)"><g><path d="M 16.078125 -28.125 C 18.054688 -28.125 19.984375 -27.742188 21.859375 -26.984375 C 23.742188 -26.222656 25.363281 -25.160156 26.71875 -23.796875 L 23.953125 -20.359375 C 22.941406 -21.453125 21.742188 -22.316406 20.359375 -22.953125 C 18.972656 -23.597656 17.570312 -23.921875 16.15625 -23.921875 C 13.351562 -23.921875 10.984375 -22.96875 9.046875 -21.0625 C 7.117188 -19.15625 6.15625 -16.828125 6.15625 -14.078125 C 6.15625 -11.304688 7.117188 -8.96875 9.046875 -7.0625 C 10.984375 -5.15625 13.351562 -4.203125 16.15625 -4.203125 C 19.0625 -4.203125 21.660156 -5.304688 23.953125 -7.515625 L 26.765625 -4.40625 C 25.316406 -2.988281 23.632812 -1.863281 21.71875 -1.03125 C 19.800781 -0.207031 17.867188 0.203125 15.921875 0.203125 C 11.816406 0.203125 8.363281 -1.160156 5.5625 -3.890625 C 2.757812 -6.628906 1.359375 -10.015625 1.359375 -14.046875 C 1.359375 -18.015625 2.773438 -21.351562 5.609375 -24.0625 C 8.453125 -26.769531 11.941406 -28.125 16.078125 -28.125 Z M 16.078125 -28.125 "/></g></g></g><g fill="rgb(38.038635%, 34.118652%, 86.669922%)" fill-opacity="1"><g transform="translate(80.643017, 206.054514)"><g><path d="M 5.640625 -24.0625 C 8.492188 -26.769531 12.015625 -28.125 16.203125 -28.125 C 20.390625 -28.125 23.910156 -26.769531 26.765625 -24.0625 C 29.617188 -21.351562 31.046875 -18 31.046875 -14 C 31.046875 -10 29.617188 -6.628906 26.765625 -3.890625 C 23.910156 -1.160156 20.390625 0.203125 16.203125 0.203125 C 12.015625 0.203125 8.492188 -1.160156 5.640625 -3.890625 C 2.785156 -6.628906 1.359375 -10 1.359375 -14 C 1.359375 -18 2.785156 -21.351562 5.640625 -24.0625 Z M 16.234375 -23.875 C 13.460938 -23.875 11.085938 -22.921875 9.109375 -21.015625 C 7.140625 -19.109375 6.15625 -16.769531 6.15625 -14 C 6.15625 -11.226562 7.148438 -8.875 9.140625 -6.9375 C 11.128906 -5.007812 13.492188 -4.046875 16.234375 -4.046875 C 18.984375 -4.046875 21.332031 -5.007812 23.28125 -6.9375 C 25.226562 -8.875 26.203125 -11.226562 26.203125 -14 C 26.203125 -16.769531 25.226562 -19.109375 23.28125 -21.015625 C 21.332031 -22.921875 18.984375 -23.875 16.234375 -23.875 Z M 16.234375 -23.875 "/></g></g></g><g fill="rgb(38.038635%, 34.118652%, 86.669922%)" fill-opacity="1"><g transform="translate(117.239798, 206.054514)"><g><path d="M 8.40625 0 L 3.6875 0 L 3.6875 -28 L 8.40625 -28 Z M 8.40625 0 "/></g></g></g><g fill="rgb(38.038635%, 34.118652%, 86.669922%)" fill-opacity="1"><g transform="translate(133.518594, 206.054514)"><g><path d="M 27.953125 0 L 23.3125 0 L 8.40625 -20.078125 L 8.40625 0 L 3.6875 0 L 3.6875 -28 L 8.3125 -28 L 23.3125 -7.875 L 23.3125 -28 L 27.953125 -28 Z M 27.953125 0 "/></g></g></g><g fill="rgb(38.038635%, 34.118652%, 86.669922%)" fill-opacity="1"><g transform="translate(169.395439, 206.054514)"><g><path d="M 16.078125 -28.125 C 18.054688 -28.125 19.984375 -27.742188 21.859375 -26.984375 C 23.742188 -26.222656 25.363281 -25.160156 26.71875 -23.796875 L 23.953125 -20.359375 C 22.941406 -21.453125 21.742188 -22.316406 20.359375 -22.953125 C 18.972656 -23.597656 17.570312 -23.921875 16.15625 -23.921875 C 13.351562 -23.921875 10.984375 -22.96875 9.046875 -21.0625 C 7.117188 -19.15625 6.15625 -16.828125 6.15625 -14.078125 C 6.15625 -11.304688 7.117188 -8.96875 9.046875 -7.0625 C 10.984375 -5.15625 13.351562 -4.203125 16.15625 -4.203125 C 19.0625 -4.203125 21.660156 -5.304688 23.953125 -7.515625 L 26.765625 -4.40625 C 25.316406 -2.988281 23.632812 -1.863281 21.71875 -1.03125 C 19.800781 -0.207031 17.867188 0.203125 15.921875 0.203125 C 11.816406 0.203125 8.363281 -1.160156 5.5625 -3.890625 C 2.757812 -6.628906 1.359375 -10.015625 1.359375 -14.046875 C 1.359375 -18.015625 2.773438 -21.351562 5.609375 -24.0625 C 8.453125 -26.769531 11.941406 -28.125 16.078125 -28.125 Z M 16.078125 -28.125 "/></g></g></g><g fill="rgb(38.038635%, 34.118652%, 86.669922%)" fill-opacity="1"><g transform="translate(201.472675, 206.054514)"><g><path d="M 27.953125 0 L 23.234375 0 L 23.234375 -11.59375 L 8.40625 -11.59375 L 8.40625 0 L 3.6875 0 L 3.6875 -28 L 8.40625 -28 L 8.40625 -15.84375 L 23.234375 -15.84375 L 23.234375 -28 L 27.953125 -28 Z M 27.953125 0 "/></g></g></g><g fill="rgb(38.038635%, 34.118652%, 86.669922%)" fill-opacity="1"><g transform="translate(237.309523, 206.054514)"><g><path d="M 23.6875 -23.765625 L 8.40625 -23.765625 L 8.40625 -16.203125 L 22.078125 -16.203125 L 22.078125 -11.953125 L 8.40625 -11.953125 L 8.40625 -4.234375 L 24.15625 -4.234375 L 24.15625 0 L 3.6875 0 L 3.6875 -28 L 23.6875 -28 Z M 23.6875 -23.765625 "/></g></g></g><g fill="rgb(38.038635%, 34.118652%, 86.669922%)" fill-opacity="1"><g transform="translate(267.746912, 206.054514)"><g><path d="M 16.078125 -28.125 C 18.054688 -28.125 19.984375 -27.742188 21.859375 -26.984375 C 23.742188 -26.222656 25.363281 -25.160156 26.71875 -23.796875 L 23.953125 -20.359375 C 22.941406 -21.453125 21.742188 -22.316406 20.359375 -22.953125 C 18.972656 -23.597656 17.570312 -23.921875 16.15625 -23.921875 C 13.351562 -23.921875 10.984375 -22.96875 9.046875 -21.0625 C 7.117188 -19.15625 6.15625 -16.828125 6.15625 -14.078125 C 6.15625 -11.304688 7.117188 -8.96875 9.046875 -7.0625 C 10.984375 -5.15625 13.351562 -4.203125 16.15625 -4.203125 C 19.0625 -4.203125 21.660156 -5.304688 23.953125 -7.515625 L 26.765625 -4.40625 C 25.316406 -2.988281 23.632812 -1.863281 21.71875 -1.03125 C 19.800781 -0.207031 17.867188 0.203125 15.921875 0.203125 C 11.816406 0.203125 8.363281 -1.160156 5.5625 -3.890625 C 2.757812 -6.628906 1.359375 -10.015625 1.359375 -14.046875 C 1.359375 -18.015625 2.773438 -21.351562 5.609375 -24.0625 C 8.453125 -26.769531 11.941406 -28.125 16.078125 -28.125 Z M 16.078125 -28.125 "/></g></g></g><g fill="rgb(38.038635%, 34.118652%, 86.669922%)" fill-opacity="1"><g transform="translate(299.824148, 206.054514)"><g><path d="M 22.359375 0 L 13.15625 -12.359375 L 8.40625 -7.125 L 8.40625 0 L 3.6875 0 L 3.6875 -28 L 8.40625 -28 L 8.40625 -13.515625 L 21.765625 -28 L 27.3125 -28 L 16.484375 -16.046875 L 28.046875 0 Z M 22.359375 0 "/></g></g></g><g fill="rgb(38.038635%, 34.118652%, 86.669922%)" fill-opacity="1"><g transform="translate(132.046838, 223.06409)"><g><path d="M 6.265625 -6.53125 L 3.828125 -6.53125 L 3.828125 0 L 2.53125 0 L 2.53125 -6.53125 L 0.09375 -6.53125 L 0.09375 -7.703125 L 6.265625 -7.703125 Z M 6.265625 -6.53125 "/></g></g></g><g fill="rgb(38.038635%, 34.118652%, 86.669922%)" fill-opacity="1"><g transform="translate(138.411343, 223.06409)"><g><path d="M 6.515625 -6.53125 L 2.3125 -6.53125 L 2.3125 -4.453125 L 6.078125 -4.453125 L 6.078125 -3.28125 L 2.3125 -3.28125 L 2.3125 -1.171875 L 6.640625 -1.171875 L 6.640625 0 L 1.015625 0 L 1.015625 -7.703125 L 6.515625 -7.703125 Z M 6.515625 -6.53125 "/></g></g></g><g fill="rgb(38.038635%, 34.118652%, 86.669922%)" fill-opacity="1"><g transform="translate(145.622242, 223.06409)"><g><path d="M 4.421875 -7.734375 C 4.960938 -7.734375 5.488281 -7.628906 6 -7.421875 C 6.519531 -7.210938 6.96875 -6.921875 7.34375 -6.546875 L 6.59375 -5.59375 C 6.3125 -5.894531 5.976562 -6.132812 5.59375 -6.3125 C 5.21875 -6.488281 4.832031 -6.578125 4.4375 -6.578125 C 3.664062 -6.578125 3.015625 -6.3125 2.484375 -5.78125 C 1.953125 -5.257812 1.6875 -4.625 1.6875 -3.875 C 1.6875 -3.113281 1.953125 -2.46875 2.484375 -1.9375 C 3.015625 -1.414062 3.664062 -1.15625 4.4375 -1.15625 C 5.238281 -1.15625 5.957031 -1.457031 6.59375 -2.0625 L 7.359375 -1.203125 C 6.960938 -0.816406 6.5 -0.507812 5.96875 -0.28125 C 5.445312 -0.0507812 4.914062 0.0625 4.375 0.0625 C 3.25 0.0625 2.300781 -0.3125 1.53125 -1.0625 C 0.757812 -1.820312 0.375 -2.753906 0.375 -3.859375 C 0.375 -4.953125 0.765625 -5.867188 1.546875 -6.609375 C 2.328125 -7.359375 3.285156 -7.734375 4.421875 -7.734375 Z M 4.421875 -7.734375 "/></g></g></g><g fill="rgb(38.038635%, 34.118652%, 86.669922%)" fill-opacity="1"><g transform="translate(153.28382, 223.06409)"><g><path d="M 7.6875 0 L 6.390625 0 L 6.390625 -3.1875 L 2.3125 -3.1875 L 2.3125 0 L 1.015625 0 L 1.015625 -7.703125 L 2.3125 -7.703125 L 2.3125 -4.359375 L 6.390625 -4.359375 L 6.390625 -7.703125 L 7.6875 -7.703125 Z M 7.6875 0 "/></g></g></g><g fill="rgb(38.038635%, 34.118652%, 86.669922%)" fill-opacity="1"><g transform="translate(161.978673, 223.06409)"><g><path d="M 7.6875 0 L 6.40625 0 L 2.3125 -5.515625 L 2.3125 0 L 1.015625 0 L 1.015625 -7.703125 L 2.28125 -7.703125 L 6.40625 -2.171875 L 6.40625 -7.703125 L 7.6875 -7.703125 Z M 7.6875 0 "/></g></g></g><g fill="rgb(38.038635%, 34.118652%, 86.669922%)" fill-opacity="1"><g transform="translate(170.684513, 223.06409)"><g><path d="M 1.546875 -6.609375 C 2.335938 -7.359375 3.304688 -7.734375 4.453125 -7.734375 C 5.609375 -7.734375 6.578125 -7.359375 7.359375 -6.609375 C 8.140625 -5.867188 8.53125 -4.945312 8.53125 -3.84375 C 8.53125 -2.75 8.140625 -1.820312 7.359375 -1.0625 C 6.578125 -0.3125 5.609375 0.0625 4.453125 0.0625 C 3.304688 0.0625 2.335938 -0.3125 1.546875 -1.0625 C 0.765625 -1.820312 0.375 -2.75 0.375 -3.84375 C 0.375 -4.945312 0.765625 -5.867188 1.546875 -6.609375 Z M 4.46875 -6.5625 C 3.707031 -6.5625 3.050781 -6.300781 2.5 -5.78125 C 1.957031 -5.257812 1.6875 -4.613281 1.6875 -3.84375 C 1.6875 -3.082031 1.957031 -2.4375 2.5 -1.90625 C 3.050781 -1.375 3.703125 -1.109375 4.453125 -1.109375 C 5.210938 -1.109375 5.859375 -1.375 6.390625 -1.90625 C 6.929688 -2.4375 7.203125 -3.082031 7.203125 -3.84375 C 7.203125 -4.613281 6.929688 -5.257812 6.390625 -5.78125 C 5.859375 -6.300781 5.21875 -6.5625 4.46875 -6.5625 Z M 4.46875 -6.5625 "/></g></g></g><g fill="rgb(38.038635%, 34.118652%, 86.669922%)" fill-opacity="1"><g transform="translate(179.588221, 223.06409)"><g><path d="M 2.3125 -1.171875 L 5.640625 -1.171875 L 5.640625 0 L 1.015625 0 L 1.015625 -7.703125 L 2.3125 -7.703125 Z M 2.3125 -1.171875 "/></g></g></g><g fill="rgb(38.038635%, 34.118652%, 86.669922%)" fill-opacity="1"><g transform="translate(185.458067, 223.06409)"><g><path d="M 1.546875 -6.609375 C 2.335938 -7.359375 3.304688 -7.734375 4.453125 -7.734375 C 5.609375 -7.734375 6.578125 -7.359375 7.359375 -6.609375 C 8.140625 -5.867188 8.53125 -4.945312 8.53125 -3.84375 C 8.53125 -2.75 8.140625 -1.820312 7.359375 -1.0625 C 6.578125 -0.3125 5.609375 0.0625 4.453125 0.0625 C 3.304688 0.0625 2.335938 -0.3125 1.546875 -1.0625 C 0.765625 -1.820312 0.375 -2.75 0.375 -3.84375 C 0.375 -4.945312 0.765625 -5.867188 1.546875 -6.609375 Z M 4.46875 -6.5625 C 3.707031 -6.5625 3.050781 -6.300781 2.5 -5.78125 C 1.957031 -5.257812 1.6875 -4.613281 1.6875 -3.84375 C 1.6875 -3.082031 1.957031 -2.4375 2.5 -1.90625 C 3.050781 -1.375 3.703125 -1.109375 4.453125 -1.109375 C 5.210938 -1.109375 5.859375 -1.375 6.390625 -1.90625 C 6.929688 -2.4375 7.203125 -3.082031 7.203125 -3.84375 C 7.203125 -4.613281 6.929688 -5.257812 6.390625 -5.78125 C 5.859375 -6.300781 5.21875 -6.5625 4.46875 -6.5625 Z M 4.46875 -6.5625 "/></g></g></g><g fill="rgb(38.038635%, 34.118652%, 86.669922%)" fill-opacity="1"><g transform="translate(194.361775, 223.06409)"><g><path d="M 6.28125 -3.78125 L 7.40625 -3.78125 L 7.40625 -0.953125 C 7.007812 -0.648438 6.539062 -0.40625 6 -0.21875 C 5.46875 -0.03125 4.941406 0.0625 4.421875 0.0625 C 3.285156 0.0625 2.328125 -0.3125 1.546875 -1.0625 C 0.765625 -1.820312 0.375 -2.75 0.375 -3.84375 C 0.375 -4.945312 0.769531 -5.867188 1.5625 -6.609375 C 2.351562 -7.359375 3.332031 -7.734375 4.5 -7.734375 C 5.039062 -7.734375 5.570312 -7.632812 6.09375 -7.4375 C 6.625 -7.25 7.078125 -6.988281 7.453125 -6.65625 L 6.71875 -5.703125 C 6.09375 -6.285156 5.351562 -6.578125 4.5 -6.578125 C 3.71875 -6.578125 3.050781 -6.3125 2.5 -5.78125 C 1.957031 -5.257812 1.6875 -4.613281 1.6875 -3.84375 C 1.6875 -3.070312 1.957031 -2.421875 2.5 -1.890625 C 3.050781 -1.367188 3.722656 -1.109375 4.515625 -1.109375 C 5.109375 -1.109375 5.695312 -1.285156 6.28125 -1.640625 Z M 6.28125 -3.78125 "/></g></g></g><g fill="rgb(38.038635%, 34.118652%, 86.669922%)" fill-opacity="1"><g transform="translate(202.594951, 223.06409)"><g><path d="M 4.171875 -2.5625 L 4.171875 0 L 2.875 0 L 2.875 -2.515625 L 0.015625 -7.703125 L 1.3125 -7.703125 L 3.515625 -3.953125 L 5.671875 -7.703125 L 7 -7.703125 Z M 4.171875 -2.5625 "/></g></g></g></svg>