<svg xmlns="http://www.w3.org/2000/svg" xmlns:xlink="http://www.w3.org/1999/xlink" width="128" zoomAndPan="magnify" viewBox="0 0 96 95.999999" height="128" preserveAspectRatio="xMidYMid meet" version="1.0"><defs><g><g id="id1"/><g id="id2"/></g><clipPath id="id3"><path d="M 38 25 L 57 25 L 57 46 L 38 46 Z M 38 25 " clip-rule="nonzero"/></clipPath><clipPath id="id4"><path d="M 38.21875 25.289062 L 56.214844 24.960938 L 56.582031 45.210938 L 38.585938 45.535156 Z M 38.21875 25.289062 " clip-rule="nonzero"/></clipPath><clipPath id="id5"><path d="M 38.21875 25.289062 L 56.214844 24.960938 L 56.582031 45.210938 L 38.585938 45.535156 Z M 38.21875 25.289062 " clip-rule="nonzero"/></clipPath><clipPath id="id6"><path d="M 38.21875 25.289062 L 56.214844 24.960938 L 56.582031 45.210938 L 38.585938 45.535156 Z M 38.21875 25.289062 " clip-rule="nonzero"/></clipPath><clipPath id="id7"><path d="M 48.421875 26.429688 L 54.789062 29.960938 C 54.914062 29.871094 55.070312 29.816406 55.234375 29.8125 C 55.34375 29.808594 55.445312 29.828125 55.539062 29.867188 C 55.636719 29.90625 55.726562 29.964844 55.800781 30.035156 C 55.875 30.105469 55.933594 30.191406 55.976562 30.289062 C 56.015625 30.382812 56.042969 30.484375 56.042969 30.589844 C 56.042969 30.699219 56.023438 30.800781 55.988281 30.894531 C 55.949219 30.996094 55.890625 31.082031 55.820312 31.15625 C 55.769531 31.210938 55.707031 31.257812 55.640625 31.296875 C 55.628906 31.304688 55.617188 31.308594 55.601562 31.316406 L 55.734375 38.601562 C 55.777344 38.617188 55.820312 38.640625 55.863281 38.664062 C 56.003906 38.742188 56.125 38.847656 56.222656 38.964844 C 56.320312 39.089844 56.394531 39.234375 56.4375 39.382812 C 56.617188 40.015625 56.25 40.691406 55.613281 40.875 C 55.464844 40.917969 55.304688 40.929688 55.144531 40.914062 C 55.011719 40.898438 54.882812 40.859375 54.753906 40.800781 L 54.75 40.800781 L 54.699219 40.769531 C 54.65625 40.746094 54.617188 40.71875 54.574219 40.691406 L 48.523438 44.34375 C 48.523438 44.359375 48.523438 44.378906 48.527344 44.398438 C 48.527344 44.527344 48.503906 44.648438 48.460938 44.765625 C 48.414062 44.882812 48.34375 44.992188 48.257812 45.078125 C 48.171875 45.167969 48.066406 45.242188 47.953125 45.292969 C 47.839844 45.339844 47.714844 45.371094 47.585938 45.371094 C 47.460938 45.375 47.335938 45.351562 47.21875 45.304688 C 47.101562 45.257812 46.996094 45.191406 46.90625 45.105469 C 46.816406 45.019531 46.746094 44.914062 46.695312 44.796875 C 46.644531 44.683594 46.617188 44.5625 46.613281 44.433594 C 46.613281 44.417969 46.613281 44.402344 46.617188 44.386719 L 40.433594 40.957031 C 40.394531 40.988281 40.351562 41.019531 40.308594 41.046875 L 40.304688 41.046875 C 40.164062 41.128906 40.015625 41.179688 39.863281 41.203125 C 39.707031 41.226562 39.546875 41.21875 39.398438 41.183594 C 39.246094 41.144531 39.101562 41.078125 38.972656 40.980469 C 38.851562 40.890625 38.742188 40.773438 38.65625 40.632812 C 38.574219 40.492188 38.523438 40.34375 38.5 40.191406 C 38.476562 40.03125 38.484375 39.875 38.519531 39.722656 C 38.558594 39.570312 38.625 39.425781 38.71875 39.296875 C 38.8125 39.175781 38.929688 39.066406 39.070312 38.980469 L 39.121094 38.949219 L 39.125 38.949219 C 39.144531 38.941406 39.164062 38.929688 39.183594 38.921875 L 39.050781 31.632812 C 39.035156 31.625 39.015625 31.617188 39 31.609375 C 38.921875 31.570312 38.851562 31.523438 38.792969 31.464844 C 38.71875 31.394531 38.660156 31.308594 38.617188 31.210938 C 38.574219 31.117188 38.550781 31.015625 38.550781 30.90625 C 38.546875 30.800781 38.566406 30.699219 38.605469 30.605469 L 38.605469 30.601562 C 38.644531 30.503906 38.699219 30.417969 38.773438 30.34375 C 38.914062 30.199219 39.109375 30.105469 39.328125 30.101562 C 39.433594 30.097656 39.539062 30.117188 39.632812 30.15625 C 39.691406 30.179688 39.746094 30.210938 39.796875 30.246094 L 46.03125 26.484375 C 46.027344 26.441406 46.023438 26.398438 46.023438 26.355469 C 46.019531 26.191406 46.050781 26.035156 46.105469 25.890625 C 46.207031 25.632812 46.328125 25.523438 46.527344 25.351562 C 46.597656 25.300781 46.667969 25.261719 46.746094 25.226562 C 46.886719 25.167969 47.042969 25.128906 47.203125 25.128906 C 47.363281 25.125 47.519531 25.15625 47.664062 25.210938 C 47.8125 25.269531 47.949219 25.355469 48.058594 25.464844 C 48.171875 25.574219 48.265625 25.703125 48.328125 25.851562 C 48.390625 25.992188 48.425781 26.148438 48.425781 26.3125 C 48.429688 26.351562 48.425781 26.390625 48.421875 26.429688 Z M 39.019531 40.160156 Z M 40.378906 40.042969 C 40.40625 39.234375 39.246094 39.058594 39.03125 39.835938 C 39.019531 39.890625 39.011719 39.945312 39.011719 40 C 39.007812 40.050781 39.011719 40.105469 39.019531 40.160156 C 39.1875 40.953125 40.355469 40.851562 40.378906 40.042969 Z M 46.554688 26.304688 C 46.550781 26.359375 46.554688 26.414062 46.566406 26.46875 C 46.601562 26.636719 46.695312 26.78125 46.828125 26.878906 C 46.957031 26.976562 47.125 27.027344 47.296875 27.011719 C 47.46875 26.996094 47.625 26.917969 47.738281 26.800781 C 47.847656 26.683594 47.917969 26.523438 47.925781 26.347656 C 47.929688 26.175781 47.871094 26.011719 47.765625 25.886719 C 47.660156 25.761719 47.511719 25.671875 47.339844 25.644531 C 47.167969 25.621094 47 25.660156 46.863281 25.75 C 46.726562 25.835938 46.621094 25.976562 46.574219 26.144531 C 46.5625 26.195312 46.554688 26.25 46.554688 26.304688 Z M 54.601562 39.699219 C 54.597656 39.753906 54.601562 39.808594 54.609375 39.859375 C 54.648438 40.03125 54.742188 40.175781 54.875 40.273438 C 55.003906 40.371094 55.167969 40.421875 55.34375 40.40625 C 55.515625 40.390625 55.671875 40.3125 55.78125 40.195312 C 55.894531 40.074219 55.964844 39.917969 55.972656 39.742188 C 55.976562 39.566406 55.917969 39.40625 55.8125 39.28125 C 55.707031 39.152344 55.558594 39.066406 55.386719 39.039062 C 55.214844 39.011719 55.046875 39.054688 54.910156 39.140625 C 54.773438 39.230469 54.667969 39.367188 54.621094 39.535156 C 54.609375 39.589844 54.601562 39.644531 54.601562 39.699219 Z M 40.113281 30.707031 C 40.125 30.765625 40.132812 30.820312 40.132812 30.878906 C 40.136719 30.984375 40.117188 31.089844 40.078125 31.183594 C 40.039062 31.28125 39.984375 31.371094 39.910156 31.445312 C 39.847656 31.511719 39.769531 31.570312 39.679688 31.609375 C 39.660156 31.621094 39.636719 31.628906 39.613281 31.640625 L 39.742188 38.8125 C 39.789062 38.8125 39.832031 38.816406 39.878906 38.824219 L 46.332031 27.136719 C 46.296875 27.101562 46.265625 27.058594 46.234375 27.015625 L 40.113281 30.710938 Z M 46.367188 35.476562 L 46.382812 35.488281 C 46.425781 35.507812 46.460938 35.53125 46.496094 35.558594 L 50.53125 33.125 C 50.519531 33.074219 50.515625 33.027344 50.515625 32.980469 C 50.511719 32.875 50.53125 32.769531 50.570312 32.675781 C 50.605469 32.585938 50.652344 32.507812 50.714844 32.4375 L 47.710938 27.433594 C 47.671875 27.449219 47.636719 27.464844 47.597656 27.476562 C 47.511719 27.503906 47.425781 27.523438 47.335938 27.53125 L 46.367188 35.480469 Z M 46.800781 36.027344 C 46.8125 36.078125 46.816406 36.128906 46.816406 36.179688 L 46.816406 36.199219 L 54.273438 39.058594 C 54.324219 38.984375 54.378906 38.914062 54.4375 38.855469 C 54.464844 38.828125 54.496094 38.804688 54.523438 38.777344 L 51.496094 33.734375 C 51.441406 33.75 51.382812 33.757812 51.320312 33.757812 C 51.214844 33.757812 51.113281 33.738281 51.019531 33.703125 C 50.949219 33.675781 50.886719 33.640625 50.832031 33.597656 Z M 46.617188 36.722656 C 46.609375 36.730469 46.601562 36.738281 46.597656 36.746094 C 46.457031 36.890625 46.257812 36.984375 46.039062 36.988281 C 45.933594 36.992188 45.832031 36.972656 45.738281 36.933594 C 45.65625 36.902344 45.582031 36.855469 45.515625 36.800781 L 40.828125 39.628906 C 40.835938 39.660156 40.847656 39.691406 40.855469 39.726562 C 40.859375 39.753906 40.867188 39.777344 40.871094 39.804688 L 54.027344 39.566406 L 46.617188 36.726562 Z M 45.242188 36.3125 C 45.238281 36.277344 45.234375 36.242188 45.234375 36.210938 C 45.230469 36.105469 45.25 36 45.289062 35.90625 C 45.328125 35.808594 45.382812 35.71875 45.457031 35.644531 C 45.523438 35.574219 45.609375 35.511719 45.703125 35.472656 C 45.738281 35.457031 45.769531 35.445312 45.804688 35.433594 L 46.777344 27.488281 L 40.398438 39.042969 C 40.417969 39.054688 40.433594 39.070312 40.453125 39.085938 C 40.480469 39.109375 40.503906 39.132812 40.53125 39.15625 Z M 51.292969 32.171875 C 51.398438 32.167969 51.5 32.1875 51.59375 32.226562 C 51.695312 32.265625 51.78125 32.324219 51.855469 32.394531 C 51.929688 32.464844 51.988281 32.550781 52.03125 32.648438 C 52.074219 32.742188 52.097656 32.84375 52.097656 32.949219 C 52.101562 33.058594 52.082031 33.160156 52.042969 33.253906 C 52.019531 33.3125 51.992188 33.367188 51.957031 33.417969 L 55.03125 38.539062 C 55.078125 38.527344 55.125 38.519531 55.171875 38.515625 L 55.042969 31.371094 C 55.015625 31.363281 54.988281 31.355469 54.960938 31.34375 C 54.859375 31.304688 54.773438 31.246094 54.699219 31.175781 C 54.625 31.105469 54.566406 31.019531 54.523438 30.921875 C 54.484375 30.828125 54.460938 30.726562 54.457031 30.621094 C 54.457031 30.554688 54.464844 30.492188 54.476562 30.429688 L 48.242188 26.972656 L 48.160156 27.09375 L 51.210938 32.175781 C 51.238281 32.171875 51.265625 32.171875 51.292969 32.171875 Z M 40.835938 40.367188 C 40.820312 40.414062 40.804688 40.460938 40.78125 40.507812 L 46.792969 43.84375 L 46.882812 43.75 C 47.054688 43.574219 47.289062 43.460938 47.554688 43.457031 C 47.683594 43.453125 47.804688 43.476562 47.921875 43.523438 C 48.039062 43.570312 48.144531 43.636719 48.234375 43.726562 C 48.261719 43.75 48.289062 43.78125 48.316406 43.8125 L 54.207031 40.257812 C 54.1875 40.214844 54.167969 40.171875 54.152344 40.128906 Z M 40.835938 40.367188 " clip-rule="nonzero"/></clipPath><linearGradient x1="13.945249" gradientTransform="matrix(0.066829, -0.00121079, 0.0012134, 0.066973, 38.219357, 25.289049)" y1="317.131294" x2="270.476385" gradientUnits="userSpaceOnUse" y2="-5.773796" xlink:type="simple" xlink:actuate="onLoad" id="id8" xlink:show="other"><stop stop-opacity="1" stop-color="rgb(74.897766%, 0.724792%, 80.142212%)" offset="0"/><stop stop-opacity="1" stop-color="rgb(74.417114%, 1.158142%, 80.227661%)" offset="0.00390625"/><stop stop-opacity="1" stop-color="rgb(73.937988%, 1.593018%, 80.31311%)" offset="0.0078125"/><stop stop-opacity="1" stop-color="rgb(73.457336%, 2.026367%, 80.397034%)" offset="0.0117187"/><stop stop-opacity="1" stop-color="rgb(72.97821%, 2.461243%, 80.482483%)" offset="0.015625"/><stop stop-opacity="1" stop-color="rgb(72.497559%, 2.894592%, 80.567932%)" offset="0.0195312"/><stop stop-opacity="1" stop-color="rgb(72.018433%, 3.329468%, 80.653381%)" offset="0.0234375"/><stop stop-opacity="1" stop-color="rgb(71.537781%, 3.762817%, 80.738831%)" offset="0.0273437"/><stop stop-opacity="1" stop-color="rgb(71.058655%, 4.197693%, 80.82428%)" offset="0.03125"/><stop stop-opacity="1" stop-color="rgb(70.578003%, 4.631042%, 80.909729%)" offset="0.0351562"/><stop stop-opacity="1" stop-color="rgb(70.098877%, 5.065918%, 80.995178%)" offset="0.0390625"/><stop stop-opacity="1" stop-color="rgb(69.618225%, 5.499268%, 81.079102%)" offset="0.0429688"/><stop stop-opacity="1" stop-color="rgb(69.139099%, 5.932617%, 81.164551%)" offset="0.046875"/><stop stop-opacity="1" stop-color="rgb(68.658447%, 6.365967%, 81.25%)" offset="0.0507812"/><stop stop-opacity="1" stop-color="rgb(68.179321%, 6.800842%, 81.335449%)" offset="0.0546875"/><stop stop-opacity="1" stop-color="rgb(67.698669%, 7.234192%, 81.420898%)" offset="0.0585938"/><stop stop-opacity="1" stop-color="rgb(67.219543%, 7.669067%, 81.506348%)" offset="0.0625"/><stop stop-opacity="1" stop-color="rgb(66.738892%, 8.102417%, 81.591797%)" offset="0.0664063"/><stop stop-opacity="1" stop-color="rgb(66.259766%, 8.537292%, 81.677246%)" offset="0.0703125"/><stop stop-opacity="1" stop-color="rgb(65.779114%, 8.970642%, 81.762695%)" offset="0.0742188"/><stop stop-opacity="1" stop-color="rgb(65.299988%, 9.405518%, 81.848145%)" offset="0.078125"/><stop stop-opacity="1" stop-color="rgb(64.819336%, 9.838867%, 81.932068%)" offset="0.0820313"/><stop stop-opacity="1" stop-color="rgb(64.34021%, 10.273743%, 82.017517%)" offset="0.0859375"/><stop stop-opacity="1" stop-color="rgb(63.859558%, 10.707092%, 82.102966%)" offset="0.0898438"/><stop stop-opacity="1" stop-color="rgb(63.380432%, 11.141968%, 82.188416%)" offset="0.09375"/><stop stop-opacity="1" stop-color="rgb(62.89978%, 11.575317%, 82.273865%)" offset="0.0976563"/><stop stop-opacity="1" stop-color="rgb(62.420654%, 12.010193%, 82.359314%)" offset="0.101563"/><stop stop-opacity="1" stop-color="rgb(61.940002%, 12.443542%, 82.444763%)" offset="0.105469"/><stop stop-opacity="1" stop-color="rgb(61.460876%, 12.878418%, 82.530212%)" offset="0.109375"/><stop stop-opacity="1" stop-color="rgb(60.980225%, 13.311768%, 82.614136%)" offset="0.113281"/><stop stop-opacity="1" stop-color="rgb(60.501099%, 13.745117%, 82.699585%)" offset="0.117188"/><stop stop-opacity="1" stop-color="rgb(60.020447%, 14.178467%, 82.785034%)" offset="0.121094"/><stop stop-opacity="1" stop-color="rgb(59.541321%, 14.613342%, 82.870483%)" offset="0.125"/><stop stop-opacity="1" stop-color="rgb(59.060669%, 15.046692%, 82.955933%)" offset="0.128906"/><stop stop-opacity="1" stop-color="rgb(58.581543%, 15.481567%, 83.041382%)" offset="0.132813"/><stop stop-opacity="1" stop-color="rgb(58.100891%, 15.914917%, 83.126831%)" offset="0.136719"/><stop stop-opacity="1" stop-color="rgb(57.621765%, 16.349792%, 83.21228%)" offset="0.140625"/><stop stop-opacity="1" stop-color="rgb(57.141113%, 16.783142%, 83.297729%)" offset="0.144531"/><stop stop-opacity="1" stop-color="rgb(56.661987%, 17.218018%, 83.383179%)" offset="0.148438"/><stop stop-opacity="1" stop-color="rgb(56.181335%, 17.651367%, 83.467102%)" offset="0.152344"/><stop stop-opacity="1" stop-color="rgb(55.702209%, 18.086243%, 83.552551%)" offset="0.15625"/><stop stop-opacity="1" stop-color="rgb(55.221558%, 18.519592%, 83.638%)" offset="0.160156"/><stop stop-opacity="1" stop-color="rgb(54.742432%, 18.954468%, 83.72345%)" offset="0.164063"/><stop stop-opacity="1" stop-color="rgb(54.26178%, 19.387817%, 83.808899%)" offset="0.167969"/><stop stop-opacity="1" stop-color="rgb(53.782654%, 19.822693%, 83.894348%)" offset="0.171875"/><stop stop-opacity="1" stop-color="rgb(53.303528%, 20.256042%, 83.979797%)" offset="0.175781"/><stop stop-opacity="1" stop-color="rgb(52.824402%, 20.690918%, 84.065247%)" offset="0.179688"/><stop stop-opacity="1" stop-color="rgb(52.34375%, 21.124268%, 84.14917%)" offset="0.183594"/><stop stop-opacity="1" stop-color="rgb(51.864624%, 21.559143%, 84.234619%)" offset="0.1875"/><stop stop-opacity="1" stop-color="rgb(51.383972%, 21.992493%, 84.320068%)" offset="0.191406"/><stop stop-opacity="1" stop-color="rgb(50.904846%, 22.425842%, 84.405518%)" offset="0.195313"/><stop stop-opacity="1" stop-color="rgb(50.424194%, 22.859192%, 84.490967%)" offset="0.199219"/><stop stop-opacity="1" stop-color="rgb(49.945068%, 23.294067%, 84.576416%)" offset="0.203125"/><stop stop-opacity="1" stop-color="rgb(49.464417%, 23.727417%, 84.661865%)" offset="0.207031"/><stop stop-opacity="1" stop-color="rgb(48.985291%, 24.162292%, 84.747314%)" offset="0.210938"/><stop stop-opacity="1" stop-color="rgb(48.504639%, 24.595642%, 84.831238%)" offset="0.214844"/><stop stop-opacity="1" stop-color="rgb(48.025513%, 25.030518%, 84.916687%)" offset="0.21875"/><stop stop-opacity="1" stop-color="rgb(47.544861%, 25.463867%, 85.002136%)" offset="0.222656"/><stop stop-opacity="1" stop-color="rgb(47.065735%, 25.898743%, 85.087585%)" offset="0.226563"/><stop stop-opacity="1" stop-color="rgb(46.585083%, 26.332092%, 85.173035%)" offset="0.230469"/><stop stop-opacity="1" stop-color="rgb(46.105957%, 26.766968%, 85.258484%)" offset="0.234375"/><stop stop-opacity="1" stop-color="rgb(45.625305%, 27.200317%, 85.343933%)" offset="0.238281"/><stop stop-opacity="1" stop-color="rgb(45.146179%, 27.635193%, 85.429382%)" offset="0.242188"/><stop stop-opacity="1" stop-color="rgb(44.665527%, 28.068542%, 85.514832%)" offset="0.246094"/><stop stop-opacity="1" stop-color="rgb(44.186401%, 28.503418%, 85.600281%)" offset="0.25"/><stop stop-opacity="1" stop-color="rgb(43.70575%, 28.936768%, 85.684204%)" offset="0.253906"/><stop stop-opacity="1" stop-color="rgb(43.226624%, 29.371643%, 85.769653%)" offset="0.257813"/><stop stop-opacity="1" stop-color="rgb(42.745972%, 29.804993%, 85.855103%)" offset="0.261719"/><stop stop-opacity="1" stop-color="rgb(42.266846%, 30.239868%, 85.940552%)" offset="0.265625"/><stop stop-opacity="1" stop-color="rgb(41.786194%, 30.673218%, 86.026001%)" offset="0.269531"/><stop stop-opacity="1" stop-color="rgb(41.307068%, 31.106567%, 86.11145%)" offset="0.273438"/><stop stop-opacity="1" stop-color="rgb(40.826416%, 31.539917%, 86.196899%)" offset="0.277344"/><stop stop-opacity="1" stop-color="rgb(40.34729%, 31.974792%, 86.282349%)" offset="0.28125"/><stop stop-opacity="1" stop-color="rgb(39.866638%, 32.408142%, 86.366272%)" offset="0.285156"/><stop stop-opacity="1" stop-color="rgb(39.387512%, 32.843018%, 86.451721%)" offset="0.289063"/><stop stop-opacity="1" stop-color="rgb(38.90686%, 33.276367%, 86.53717%)" offset="0.292969"/><stop stop-opacity="1" stop-color="rgb(38.427734%, 33.711243%, 86.62262%)" offset="0.296875"/><stop stop-opacity="1" stop-color="rgb(37.986755%, 34.111023%, 86.701965%)" offset="0.300781"/><stop stop-opacity="1" stop-color="rgb(37.547302%, 34.510803%, 86.782837%)" offset="0.304688"/><stop stop-opacity="1" stop-color="rgb(37.136841%, 34.881592%, 86.857605%)" offset="0.308594"/><stop stop-opacity="1" stop-color="rgb(36.727905%, 35.253906%, 86.933899%)" offset="0.3125"/><stop stop-opacity="1" stop-color="rgb(36.31897%, 35.624695%, 87.008667%)" offset="0.316406"/><stop stop-opacity="1" stop-color="rgb(35.910034%, 35.995483%, 87.083435%)" offset="0.320313"/><stop stop-opacity="1" stop-color="rgb(35.501099%, 36.366272%, 87.158203%)" offset="0.324219"/><stop stop-opacity="1" stop-color="rgb(35.092163%, 36.738586%, 87.234497%)" offset="0.328125"/><stop stop-opacity="1" stop-color="rgb(34.681702%, 37.109375%, 87.309265%)" offset="0.332031"/><stop stop-opacity="1" stop-color="rgb(34.272766%, 37.481689%, 87.385559%)" offset="0.335938"/><stop stop-opacity="1" stop-color="rgb(33.863831%, 37.852478%, 87.460327%)" offset="0.339844"/><stop stop-opacity="1" stop-color="rgb(33.454895%, 38.224792%, 87.536621%)" offset="0.34375"/><stop stop-opacity="1" stop-color="rgb(33.045959%, 38.595581%, 87.611389%)" offset="0.347656"/><stop stop-opacity="1" stop-color="rgb(32.637024%, 38.967896%, 87.687683%)" offset="0.351563"/><stop stop-opacity="1" stop-color="rgb(32.226562%, 39.338684%, 87.762451%)" offset="0.355469"/><stop stop-opacity="1" stop-color="rgb(31.817627%, 39.710999%, 87.837219%)" offset="0.359375"/><stop stop-opacity="1" stop-color="rgb(31.408691%, 40.081787%, 87.911987%)" offset="0.363281"/><stop stop-opacity="1" stop-color="rgb(30.999756%, 40.454102%, 87.988281%)" offset="0.367188"/><stop stop-opacity="1" stop-color="rgb(30.59082%, 40.82489%, 88.063049%)" offset="0.371094"/><stop stop-opacity="1" stop-color="rgb(30.181885%, 41.197205%, 88.139343%)" offset="0.375"/><stop stop-opacity="1" stop-color="rgb(29.772949%, 41.567993%, 88.214111%)" offset="0.378906"/><stop stop-opacity="1" stop-color="rgb(29.364014%, 41.940308%, 88.290405%)" offset="0.382813"/><stop stop-opacity="1" stop-color="rgb(28.953552%, 42.311096%, 88.365173%)" offset="0.386719"/><stop stop-opacity="1" stop-color="rgb(28.544617%, 42.681885%, 88.441467%)" offset="0.390625"/><stop stop-opacity="1" stop-color="rgb(28.135681%, 43.052673%, 88.516235%)" offset="0.394531"/><stop stop-opacity="1" stop-color="rgb(27.726746%, 43.424988%, 88.591003%)" offset="0.398438"/><stop stop-opacity="1" stop-color="rgb(27.31781%, 43.795776%, 88.665771%)" offset="0.402344"/><stop stop-opacity="1" stop-color="rgb(26.908875%, 44.168091%, 88.742065%)" offset="0.40625"/><stop stop-opacity="1" stop-color="rgb(26.498413%, 44.538879%, 88.816833%)" offset="0.410156"/><stop stop-opacity="1" stop-color="rgb(26.089478%, 44.911194%, 88.893127%)" offset="0.414063"/><stop stop-opacity="1" stop-color="rgb(25.680542%, 45.281982%, 88.967896%)" offset="0.417969"/><stop stop-opacity="1" stop-color="rgb(25.271606%, 45.654297%, 89.044189%)" offset="0.421875"/><stop stop-opacity="1" stop-color="rgb(24.862671%, 46.025085%, 89.118958%)" offset="0.425781"/><stop stop-opacity="1" stop-color="rgb(24.453735%, 46.3974%, 89.195251%)" offset="0.429688"/><stop stop-opacity="1" stop-color="rgb(24.0448%, 46.768188%, 89.27002%)" offset="0.433594"/><stop stop-opacity="1" stop-color="rgb(23.635864%, 47.140503%, 89.344788%)" offset="0.4375"/><stop stop-opacity="1" stop-color="rgb(23.225403%, 47.511292%, 89.419556%)" offset="0.441406"/><stop stop-opacity="1" stop-color="rgb(22.816467%, 47.883606%, 89.49585%)" offset="0.445313"/><stop stop-opacity="1" stop-color="rgb(22.407532%, 48.254395%, 89.570618%)" offset="0.449219"/><stop stop-opacity="1" stop-color="rgb(21.998596%, 48.626709%, 89.646912%)" offset="0.453125"/><stop stop-opacity="1" stop-color="rgb(21.589661%, 48.997498%, 89.72168%)" offset="0.457031"/><stop stop-opacity="1" stop-color="rgb(21.180725%, 49.369812%, 89.797974%)" offset="0.460938"/><stop stop-opacity="1" stop-color="rgb(20.770264%, 49.740601%, 89.872742%)" offset="0.464844"/><stop stop-opacity="1" stop-color="rgb(20.361328%, 50.111389%, 89.94751%)" offset="0.46875"/><stop stop-opacity="1" stop-color="rgb(19.952393%, 50.482178%, 90.022278%)" offset="0.472656"/><stop stop-opacity="1" stop-color="rgb(19.543457%, 50.854492%, 90.098572%)" offset="0.476563"/><stop stop-opacity="1" stop-color="rgb(19.134521%, 51.225281%, 90.17334%)" offset="0.480469"/><stop stop-opacity="1" stop-color="rgb(18.725586%, 51.597595%, 90.249634%)" offset="0.484375"/><stop stop-opacity="1" stop-color="rgb(18.31665%, 51.968384%, 90.324402%)" offset="0.488281"/><stop stop-opacity="1" stop-color="rgb(17.907715%, 52.340698%, 90.400696%)" offset="0.492188"/><stop stop-opacity="1" stop-color="rgb(17.497253%, 52.711487%, 90.475464%)" offset="0.496094"/><stop stop-opacity="1" stop-color="rgb(17.088318%, 53.083801%, 90.551758%)" offset="0.5"/><stop stop-opacity="1" stop-color="rgb(16.679382%, 53.45459%, 90.626526%)" offset="0.503906"/><stop stop-opacity="1" stop-color="rgb(16.270447%, 53.826904%, 90.701294%)" offset="0.507813"/><stop stop-opacity="1" stop-color="rgb(15.861511%, 54.197693%, 90.776062%)" offset="0.511719"/><stop stop-opacity="1" stop-color="rgb(15.452576%, 54.570007%, 90.852356%)" offset="0.515625"/><stop stop-opacity="1" stop-color="rgb(15.042114%, 54.940796%, 90.927124%)" offset="0.519531"/><stop stop-opacity="1" stop-color="rgb(14.633179%, 55.31311%, 91.003418%)" offset="0.523438"/><stop stop-opacity="1" stop-color="rgb(14.224243%, 55.683899%, 91.078186%)" offset="0.527344"/><stop stop-opacity="1" stop-color="rgb(13.815308%, 56.056213%, 91.15448%)" offset="0.53125"/><stop stop-opacity="1" stop-color="rgb(13.406372%, 56.427002%, 91.229248%)" offset="0.535156"/><stop stop-opacity="1" stop-color="rgb(12.997437%, 56.799316%, 91.305542%)" offset="0.539062"/><stop stop-opacity="1" stop-color="rgb(12.586975%, 57.170105%, 91.38031%)" offset="0.542969"/><stop stop-opacity="1" stop-color="rgb(12.17804%, 57.540894%, 91.455078%)" offset="0.546875"/><stop stop-opacity="1" stop-color="rgb(11.769104%, 57.911682%, 91.529846%)" offset="0.550781"/><stop stop-opacity="1" stop-color="rgb(11.360168%, 58.283997%, 91.60614%)" offset="0.554688"/><stop stop-opacity="1" stop-color="rgb(10.951233%, 58.654785%, 91.680908%)" offset="0.558594"/><stop stop-opacity="1" stop-color="rgb(10.542297%, 59.0271%, 91.757202%)" offset="0.5625"/><stop stop-opacity="1" stop-color="rgb(10.133362%, 59.397888%, 91.83197%)" offset="0.566406"/><stop stop-opacity="1" stop-color="rgb(9.724426%, 59.770203%, 91.908264%)" offset="0.570312"/><stop stop-opacity="1" stop-color="rgb(9.313965%, 60.140991%, 91.983032%)" offset="0.574219"/><stop stop-opacity="1" stop-color="rgb(8.905029%, 60.513306%, 92.059326%)" offset="0.578125"/><stop stop-opacity="1" stop-color="rgb(8.496094%, 60.884094%, 92.134094%)" offset="0.582031"/><stop stop-opacity="1" stop-color="rgb(8.087158%, 61.256409%, 92.208862%)" offset="0.585938"/><stop stop-opacity="1" stop-color="rgb(7.678223%, 61.627197%, 92.28363%)" offset="0.589844"/><stop stop-opacity="1" stop-color="rgb(7.269287%, 61.999512%, 92.359924%)" offset="0.59375"/><stop stop-opacity="1" stop-color="rgb(6.858826%, 62.3703%, 92.434692%)" offset="0.597656"/><stop stop-opacity="1" stop-color="rgb(6.44989%, 62.742615%, 92.510986%)" offset="0.601562"/><stop stop-opacity="1" stop-color="rgb(6.040955%, 63.113403%, 92.585754%)" offset="0.605469"/><stop stop-opacity="1" stop-color="rgb(5.632019%, 63.485718%, 92.662048%)" offset="0.609375"/><stop stop-opacity="1" stop-color="rgb(5.223083%, 63.856506%, 92.736816%)" offset="0.613281"/><stop stop-opacity="1" stop-color="rgb(4.814148%, 64.227295%, 92.811584%)" offset="0.617188"/><stop stop-opacity="1" stop-color="rgb(4.405212%, 64.598083%, 92.886353%)" offset="0.621094"/><stop stop-opacity="1" stop-color="rgb(3.996277%, 64.970398%, 92.962646%)" offset="0.625"/><stop stop-opacity="1" stop-color="rgb(3.585815%, 65.341187%, 93.037415%)" offset="0.628906"/><stop stop-opacity="1" stop-color="rgb(3.17688%, 65.713501%, 93.113708%)" offset="0.632812"/><stop stop-opacity="1" stop-color="rgb(2.767944%, 66.08429%, 93.188477%)" offset="0.636719"/><stop stop-opacity="1" stop-color="rgb(2.359009%, 66.456604%, 93.264771%)" offset="0.640625"/><stop stop-opacity="1" stop-color="rgb(1.950073%, 66.827393%, 93.339539%)" offset="0.644531"/><stop stop-opacity="1" stop-color="rgb(1.541138%, 67.199707%, 93.415833%)" offset="0.648438"/><stop stop-opacity="1" stop-color="rgb(1.130676%, 67.570496%, 93.490601%)" offset="0.652344"/><stop stop-opacity="1" stop-color="rgb(0.721741%, 67.94281%, 93.565369%)" offset="0.65625"/><stop stop-opacity="1" stop-color="rgb(0.360107%, 68.312073%, 93.640137%)" offset="0.660156"/><stop stop-opacity="1" stop-color="rgb(0%, 68.681335%, 93.716431%)" offset="0.664062"/><stop stop-opacity="1" stop-color="rgb(0%, 69.035339%, 93.786621%)" offset="0.667969"/><stop stop-opacity="1" stop-color="rgb(0%, 69.389343%, 93.858337%)" offset="0.671875"/><stop stop-opacity="1" stop-color="rgb(0%, 69.743347%, 93.928528%)" offset="0.675781"/><stop stop-opacity="1" stop-color="rgb(0%, 70.097351%, 94.000244%)" offset="0.679688"/><stop stop-opacity="1" stop-color="rgb(0%, 70.451355%, 94.070435%)" offset="0.683594"/><stop stop-opacity="1" stop-color="rgb(0%, 70.805359%, 94.142151%)" offset="0.6875"/><stop stop-opacity="1" stop-color="rgb(0%, 71.159363%, 94.212341%)" offset="0.691406"/><stop stop-opacity="1" stop-color="rgb(0%, 71.513367%, 94.284058%)" offset="0.695312"/><stop stop-opacity="1" stop-color="rgb(0%, 71.867371%, 94.354248%)" offset="0.699219"/><stop stop-opacity="1" stop-color="rgb(0%, 72.221375%, 94.425964%)" offset="0.703125"/><stop stop-opacity="1" stop-color="rgb(0%, 72.575378%, 94.496155%)" offset="0.707031"/><stop stop-opacity="1" stop-color="rgb(0%, 72.929382%, 94.567871%)" offset="0.710938"/><stop stop-opacity="1" stop-color="rgb(0%, 73.283386%, 94.638062%)" offset="0.714844"/><stop stop-opacity="1" stop-color="rgb(0%, 73.63739%, 94.709778%)" offset="0.71875"/><stop stop-opacity="1" stop-color="rgb(0%, 73.991394%, 94.779968%)" offset="0.722656"/><stop stop-opacity="1" stop-color="rgb(0%, 74.345398%, 94.851685%)" offset="0.726562"/><stop stop-opacity="1" stop-color="rgb(0%, 74.699402%, 94.921875%)" offset="0.730469"/><stop stop-opacity="1" stop-color="rgb(0%, 75.053406%, 94.993591%)" offset="0.734375"/><stop stop-opacity="1" stop-color="rgb(0%, 75.40741%, 95.063782%)" offset="0.738281"/><stop stop-opacity="1" stop-color="rgb(0%, 75.761414%, 95.135498%)" offset="0.742188"/><stop stop-opacity="1" stop-color="rgb(0%, 76.115417%, 95.205688%)" offset="0.746094"/><stop stop-opacity="1" stop-color="rgb(0%, 76.469421%, 95.277405%)" offset="0.75"/><stop stop-opacity="1" stop-color="rgb(0%, 76.821899%, 95.349121%)" offset="0.753906"/><stop stop-opacity="1" stop-color="rgb(0%, 77.175903%, 95.420837%)" offset="0.757812"/><stop stop-opacity="1" stop-color="rgb(0%, 77.529907%, 95.491028%)" offset="0.761719"/><stop stop-opacity="1" stop-color="rgb(0%, 77.883911%, 95.562744%)" offset="0.765625"/><stop stop-opacity="1" stop-color="rgb(0%, 78.237915%, 95.632935%)" offset="0.769531"/><stop stop-opacity="1" stop-color="rgb(0%, 78.591919%, 95.704651%)" offset="0.773438"/><stop stop-opacity="1" stop-color="rgb(0%, 78.945923%, 95.774841%)" offset="0.777344"/><stop stop-opacity="1" stop-color="rgb(0%, 79.299927%, 95.846558%)" offset="0.78125"/><stop stop-opacity="1" stop-color="rgb(0%, 79.653931%, 95.916748%)" offset="0.785156"/><stop stop-opacity="1" stop-color="rgb(0%, 80.007935%, 95.988464%)" offset="0.789062"/><stop stop-opacity="1" stop-color="rgb(0%, 80.361938%, 96.058655%)" offset="0.792969"/><stop stop-opacity="1" stop-color="rgb(0%, 80.715942%, 96.130371%)" offset="0.796875"/><stop stop-opacity="1" stop-color="rgb(0%, 81.069946%, 96.200562%)" offset="0.800781"/><stop stop-opacity="1" stop-color="rgb(0%, 81.42395%, 96.272278%)" offset="0.804688"/><stop stop-opacity="1" stop-color="rgb(0%, 81.777954%, 96.342468%)" offset="0.808594"/><stop stop-opacity="1" stop-color="rgb(0%, 82.131958%, 96.414185%)" offset="0.8125"/><stop stop-opacity="1" stop-color="rgb(0%, 82.485962%, 96.484375%)" offset="0.816406"/><stop stop-opacity="1" stop-color="rgb(0%, 82.839966%, 96.556091%)" offset="0.820312"/><stop stop-opacity="1" stop-color="rgb(0%, 83.19397%, 96.626282%)" offset="0.824219"/><stop stop-opacity="1" stop-color="rgb(0%, 83.547974%, 96.697998%)" offset="0.828125"/><stop stop-opacity="1" stop-color="rgb(0%, 83.901978%, 96.768188%)" offset="0.832031"/><stop stop-opacity="1" stop-color="rgb(0%, 84.255981%, 96.839905%)" offset="0.835938"/><stop stop-opacity="1" stop-color="rgb(0%, 84.609985%, 96.910095%)" offset="0.839844"/><stop stop-opacity="1" stop-color="rgb(0%, 84.963989%, 96.981812%)" offset="0.84375"/><stop stop-opacity="1" stop-color="rgb(0%, 85.317993%, 97.053528%)" offset="0.847656"/><stop stop-opacity="1" stop-color="rgb(0%, 85.671997%, 97.125244%)" offset="0.851562"/><stop stop-opacity="1" stop-color="rgb(0%, 86.026001%, 97.195435%)" offset="0.855469"/><stop stop-opacity="1" stop-color="rgb(0%, 86.380005%, 97.267151%)" offset="0.859375"/><stop stop-opacity="1" stop-color="rgb(0%, 86.734009%, 97.337341%)" offset="0.863281"/><stop stop-opacity="1" stop-color="rgb(0%, 87.088013%, 97.409058%)" offset="0.867188"/><stop stop-opacity="1" stop-color="rgb(0%, 87.442017%, 97.479248%)" offset="0.871094"/><stop stop-opacity="1" stop-color="rgb(0%, 87.796021%, 97.550964%)" offset="0.875"/><stop stop-opacity="1" stop-color="rgb(0%, 88.148499%, 97.621155%)" offset="0.878906"/><stop stop-opacity="1" stop-color="rgb(0%, 88.502502%, 97.692871%)" offset="0.882812"/><stop stop-opacity="1" stop-color="rgb(0%, 88.856506%, 97.763062%)" offset="0.886719"/><stop stop-opacity="1" stop-color="rgb(0%, 89.21051%, 97.834778%)" offset="0.890625"/><stop stop-opacity="1" stop-color="rgb(0%, 89.564514%, 97.904968%)" offset="0.894531"/><stop stop-opacity="1" stop-color="rgb(0%, 89.918518%, 97.976685%)" offset="0.898438"/><stop stop-opacity="1" stop-color="rgb(0%, 90.272522%, 98.046875%)" offset="0.902344"/><stop stop-opacity="1" stop-color="rgb(0%, 90.626526%, 98.118591%)" offset="0.90625"/><stop stop-opacity="1" stop-color="rgb(0%, 90.98053%, 98.188782%)" offset="0.910156"/><stop stop-opacity="1" stop-color="rgb(0%, 91.334534%, 98.260498%)" offset="0.914062"/><stop stop-opacity="1" stop-color="rgb(0%, 91.688538%, 98.330688%)" offset="0.917969"/><stop stop-opacity="1" stop-color="rgb(0%, 92.042542%, 98.402405%)" offset="0.921875"/><stop stop-opacity="1" stop-color="rgb(0%, 92.396545%, 98.472595%)" offset="0.925781"/><stop stop-opacity="1" stop-color="rgb(0%, 92.750549%, 98.544312%)" offset="0.929688"/><stop stop-opacity="1" stop-color="rgb(0%, 93.104553%, 98.614502%)" offset="0.933594"/><stop stop-opacity="1" stop-color="rgb(0%, 93.458557%, 98.686218%)" offset="0.9375"/><stop stop-opacity="1" stop-color="rgb(0%, 93.812561%, 98.757935%)" offset="0.941406"/><stop stop-opacity="1" stop-color="rgb(0%, 94.166565%, 98.829651%)" offset="0.945312"/><stop stop-opacity="1" stop-color="rgb(0%, 94.520569%, 98.899841%)" offset="0.949219"/><stop stop-opacity="1" stop-color="rgb(0%, 94.874573%, 98.971558%)" offset="0.953125"/><stop stop-opacity="1" stop-color="rgb(0%, 95.228577%, 99.041748%)" offset="0.957031"/><stop stop-opacity="1" stop-color="rgb(0%, 95.582581%, 99.113464%)" offset="0.960938"/><stop stop-opacity="1" stop-color="rgb(0%, 95.936584%, 99.183655%)" offset="0.964844"/><stop stop-opacity="1" stop-color="rgb(0%, 96.290588%, 99.255371%)" offset="0.96875"/><stop stop-opacity="1" stop-color="rgb(0%, 96.644592%, 99.325562%)" offset="0.972656"/><stop stop-opacity="1" stop-color="rgb(0%, 96.998596%, 99.397278%)" offset="0.976562"/><stop stop-opacity="1" stop-color="rgb(0%, 97.3526%, 99.467468%)" offset="0.980469"/><stop stop-opacity="1" stop-color="rgb(0%, 97.706604%, 99.539185%)" offset="0.984375"/><stop stop-opacity="1" stop-color="rgb(0%, 98.060608%, 99.609375%)" offset="0.988281"/><stop stop-opacity="1" stop-color="rgb(0%, 98.414612%, 99.681091%)" offset="0.992188"/><stop stop-opacity="1" stop-color="rgb(0%, 98.768616%, 99.751282%)" offset="0.996094"/><stop stop-opacity="1" stop-color="rgb(0%, 99.12262%, 99.822998%)" offset="1"/></linearGradient></defs><g clip-path="url(#id3)"><g clip-path="url(#id4)"><g clip-path="url(#id5)"><g clip-path="url(#id6)"><g clip-path="url(#id7)"><path fill="url(#id8)" d="M 38.109375 25.132812 L 38.480469 45.703125 L 56.949219 45.367188 L 56.578125 24.796875 Z M 38.109375 25.132812 " fill-rule="nonzero"/></g></g></g></g></g><g fill="rgb(38.038635%, 34.118652%, 86.669922%)" fill-opacity="1"><g transform="translate(4.437321, 55.531832)"><g><path d="M 4.515625 0 L 3.15625 0 L 0.03125 -7.8125 L 1.453125 -7.8125 L 3.859375 -1.46875 L 6.296875 -7.8125 L 7.671875 -7.8125 Z M 4.515625 0 "/></g></g></g><g fill="rgb(38.038635%, 34.118652%, 86.669922%)" fill-opacity="1"><g transform="translate(13.323019, 55.531832)"><g><path d="M 4.484375 -7.859375 C 5.035156 -7.859375 5.570312 -7.75 6.09375 -7.53125 C 6.625 -7.320312 7.082031 -7.023438 7.46875 -6.640625 L 6.6875 -5.6875 C 6.40625 -5.988281 6.070312 -6.226562 5.6875 -6.40625 C 5.300781 -6.59375 4.910156 -6.6875 4.515625 -6.6875 C 3.734375 -6.6875 3.070312 -6.414062 2.53125 -5.875 C 1.988281 -5.34375 1.71875 -4.695312 1.71875 -3.9375 C 1.71875 -3.15625 1.988281 -2.5 2.53125 -1.96875 C 3.070312 -1.4375 3.734375 -1.171875 4.515625 -1.171875 C 5.328125 -1.171875 6.050781 -1.476562 6.6875 -2.09375 L 7.46875 -1.234375 C 7.070312 -0.835938 6.601562 -0.519531 6.0625 -0.28125 C 5.53125 -0.0507812 4.992188 0.0625 4.453125 0.0625 C 3.296875 0.0625 2.328125 -0.316406 1.546875 -1.078125 C 0.765625 -1.847656 0.375 -2.796875 0.375 -3.921875 C 0.375 -5.023438 0.769531 -5.957031 1.5625 -6.71875 C 2.363281 -7.476562 3.335938 -7.859375 4.484375 -7.859375 Z M 4.484375 -7.859375 "/></g></g></g><g fill="rgb(38.038635%, 34.118652%, 86.669922%)" fill-opacity="1"><g transform="translate(22.286957, 55.531832)"><g><path d="M 1.5625 -6.71875 C 2.363281 -7.476562 3.347656 -7.859375 4.515625 -7.859375 C 5.691406 -7.859375 6.675781 -7.476562 7.46875 -6.71875 C 8.269531 -5.957031 8.671875 -5.019531 8.671875 -3.90625 C 8.671875 -2.789062 8.269531 -1.847656 7.46875 -1.078125 C 6.675781 -0.316406 5.691406 0.0625 4.515625 0.0625 C 3.347656 0.0625 2.363281 -0.316406 1.5625 -1.078125 C 0.769531 -1.847656 0.375 -2.789062 0.375 -3.90625 C 0.375 -5.019531 0.769531 -5.957031 1.5625 -6.71875 Z M 4.53125 -6.671875 C 3.757812 -6.671875 3.097656 -6.40625 2.546875 -5.875 C 1.992188 -5.34375 1.71875 -4.6875 1.71875 -3.90625 C 1.71875 -3.132812 1.992188 -2.476562 2.546875 -1.9375 C 3.109375 -1.394531 3.769531 -1.125 4.53125 -1.125 C 5.300781 -1.125 5.957031 -1.394531 6.5 -1.9375 C 7.039062 -2.476562 7.3125 -3.132812 7.3125 -3.90625 C 7.3125 -4.6875 7.039062 -5.34375 6.5 -5.875 C 5.957031 -6.40625 5.300781 -6.671875 4.53125 -6.671875 Z M 4.53125 -6.671875 "/></g></g></g><g fill="rgb(38.038635%, 34.118652%, 86.669922%)" fill-opacity="1"><g transform="translate(32.513877, 55.531832)"><g><path d="M 2.34375 0 L 1.03125 0 L 1.03125 -7.8125 L 2.34375 -7.8125 Z M 2.34375 0 "/></g></g></g><g fill="rgb(38.038635%, 34.118652%, 86.669922%)" fill-opacity="1"><g transform="translate(37.062964, 55.531832)"><g><path d="M 7.8125 0 L 6.515625 0 L 2.34375 -5.609375 L 2.34375 0 L 1.03125 0 L 1.03125 -7.8125 L 2.328125 -7.8125 L 6.515625 -2.203125 L 6.515625 -7.8125 L 7.8125 -7.8125 Z M 7.8125 0 "/></g></g></g><g fill="rgb(38.038635%, 34.118652%, 86.669922%)" fill-opacity="1"><g transform="translate(47.088699, 55.531832)"><g><path d="M 4.484375 -7.859375 C 5.035156 -7.859375 5.570312 -7.75 6.09375 -7.53125 C 6.625 -7.320312 7.082031 -7.023438 7.46875 -6.640625 L 6.6875 -5.6875 C 6.40625 -5.988281 6.070312 -6.226562 5.6875 -6.40625 C 5.300781 -6.59375 4.910156 -6.6875 4.515625 -6.6875 C 3.734375 -6.6875 3.070312 -6.414062 2.53125 -5.875 C 1.988281 -5.34375 1.71875 -4.695312 1.71875 -3.9375 C 1.71875 -3.15625 1.988281 -2.5 2.53125 -1.96875 C 3.070312 -1.4375 3.734375 -1.171875 4.515625 -1.171875 C 5.328125 -1.171875 6.050781 -1.476562 6.6875 -2.09375 L 7.46875 -1.234375 C 7.070312 -0.835938 6.601562 -0.519531 6.0625 -0.28125 C 5.53125 -0.0507812 4.992188 0.0625 4.453125 0.0625 C 3.296875 0.0625 2.328125 -0.316406 1.546875 -1.078125 C 0.765625 -1.847656 0.375 -2.796875 0.375 -3.921875 C 0.375 -5.023438 0.769531 -5.957031 1.5625 -6.71875 C 2.363281 -7.476562 3.335938 -7.859375 4.484375 -7.859375 Z M 4.484375 -7.859375 "/></g></g></g><g fill="rgb(38.038635%, 34.118652%, 86.669922%)" fill-opacity="1"><g transform="translate(56.052639, 55.531832)"><g><path d="M 7.8125 0 L 6.484375 0 L 6.484375 -3.234375 L 2.34375 -3.234375 L 2.34375 0 L 1.03125 0 L 1.03125 -7.8125 L 2.34375 -7.8125 L 2.34375 -4.421875 L 6.484375 -4.421875 L 6.484375 -7.8125 L 7.8125 -7.8125 Z M 7.8125 0 "/></g></g></g><g fill="rgb(38.038635%, 34.118652%, 86.669922%)" fill-opacity="1"><g transform="translate(66.067197, 55.531832)"><g><path d="M 6.609375 -6.640625 L 2.34375 -6.640625 L 2.34375 -4.53125 L 6.171875 -4.53125 L 6.171875 -3.34375 L 2.34375 -3.34375 L 2.34375 -1.1875 L 6.75 -1.1875 L 6.75 0 L 1.03125 0 L 1.03125 -7.8125 L 6.609375 -7.8125 Z M 6.609375 -6.640625 "/></g></g></g><g fill="rgb(38.038635%, 34.118652%, 86.669922%)" fill-opacity="1"><g transform="translate(74.572883, 55.531832)"><g><path d="M 4.484375 -7.859375 C 5.035156 -7.859375 5.570312 -7.75 6.09375 -7.53125 C 6.625 -7.320312 7.082031 -7.023438 7.46875 -6.640625 L 6.6875 -5.6875 C 6.40625 -5.988281 6.070312 -6.226562 5.6875 -6.40625 C 5.300781 -6.59375 4.910156 -6.6875 4.515625 -6.6875 C 3.734375 -6.6875 3.070312 -6.414062 2.53125 -5.875 C 1.988281 -5.34375 1.71875 -4.695312 1.71875 -3.9375 C 1.71875 -3.15625 1.988281 -2.5 2.53125 -1.96875 C 3.070312 -1.4375 3.734375 -1.171875 4.515625 -1.171875 C 5.328125 -1.171875 6.050781 -1.476562 6.6875 -2.09375 L 7.46875 -1.234375 C 7.070312 -0.835938 6.601562 -0.519531 6.0625 -0.28125 C 5.53125 -0.0507812 4.992188 0.0625 4.453125 0.0625 C 3.296875 0.0625 2.328125 -0.316406 1.546875 -1.078125 C 0.765625 -1.847656 0.375 -2.796875 0.375 -3.921875 C 0.375 -5.023438 0.769531 -5.957031 1.5625 -6.71875 C 2.363281 -7.476562 3.335938 -7.859375 4.484375 -7.859375 Z M 4.484375 -7.859375 "/></g></g></g><g fill="rgb(38.038635%, 34.118652%, 86.669922%)" fill-opacity="1"><g transform="translate(83.536823, 55.531832)"><g><path d="M 6.25 0 L 3.671875 -3.453125 L 2.34375 -1.984375 L 2.34375 0 L 1.03125 0 L 1.03125 -7.8125 L 2.34375 -7.8125 L 2.34375 -3.78125 L 6.078125 -7.8125 L 7.625 -7.8125 L 4.609375 -4.484375 L 7.828125 0 Z M 6.25 0 "/></g></g></g><g fill="rgb(38.038635%, 34.118652%, 86.669922%)" fill-opacity="1"><g transform="translate(36.651683, 60.285136)"><g><path d="M 1.75 -1.828125 L 1.078125 -1.828125 L 1.078125 0 L 0.703125 0 L 0.703125 -1.828125 L 0.03125 -1.828125 L 0.03125 -2.15625 L 1.75 -2.15625 Z M 1.75 -1.828125 "/></g></g></g><g fill="rgb(38.038635%, 34.118652%, 86.669922%)" fill-opacity="1"><g transform="translate(38.430235, 60.285136)"><g><path d="M 1.828125 -1.828125 L 0.640625 -1.828125 L 0.640625 -1.25 L 1.703125 -1.25 L 1.703125 -0.921875 L 0.640625 -0.921875 L 0.640625 -0.328125 L 1.859375 -0.328125 L 1.859375 0 L 0.28125 0 L 0.28125 -2.15625 L 1.828125 -2.15625 Z M 1.828125 -1.828125 "/></g></g></g><g fill="rgb(38.038635%, 34.118652%, 86.669922%)" fill-opacity="1"><g transform="translate(40.445311, 60.285136)"><g><path d="M 1.234375 -2.15625 C 1.390625 -2.15625 1.539062 -2.125 1.6875 -2.0625 C 1.832031 -2.007812 1.957031 -1.929688 2.0625 -1.828125 L 1.84375 -1.5625 C 1.769531 -1.644531 1.675781 -1.710938 1.5625 -1.765625 C 1.457031 -1.816406 1.351562 -1.84375 1.25 -1.84375 C 1.03125 -1.84375 0.84375 -1.769531 0.6875 -1.625 C 0.539062 -1.476562 0.46875 -1.296875 0.46875 -1.078125 C 0.46875 -0.867188 0.539062 -0.691406 0.6875 -0.546875 C 0.84375 -0.398438 1.03125 -0.328125 1.25 -0.328125 C 1.46875 -0.328125 1.664062 -0.410156 1.84375 -0.578125 L 2.0625 -0.34375 C 1.945312 -0.226562 1.816406 -0.140625 1.671875 -0.078125 C 1.523438 -0.015625 1.375 0.015625 1.21875 0.015625 C 0.90625 0.015625 0.640625 -0.0859375 0.421875 -0.296875 C 0.210938 -0.503906 0.109375 -0.765625 0.109375 -1.078125 C 0.109375 -1.390625 0.21875 -1.644531 0.4375 -1.84375 C 0.65625 -2.050781 0.921875 -2.15625 1.234375 -2.15625 Z M 1.234375 -2.15625 "/></g></g></g><g fill="rgb(38.038635%, 34.118652%, 86.669922%)" fill-opacity="1"><g transform="translate(42.586328, 60.285136)"><g><path d="M 2.15625 0 L 1.78125 0 L 1.78125 -0.890625 L 0.640625 -0.890625 L 0.640625 0 L 0.28125 0 L 0.28125 -2.15625 L 0.640625 -2.15625 L 0.640625 -1.21875 L 1.78125 -1.21875 L 1.78125 -2.15625 L 2.15625 -2.15625 Z M 2.15625 0 "/></g></g></g><g fill="rgb(38.038635%, 34.118652%, 86.669922%)" fill-opacity="1"><g transform="translate(45.016093, 60.285136)"><g><path d="M 2.15625 0 L 1.796875 0 L 0.640625 -1.546875 L 0.640625 0 L 0.28125 0 L 0.28125 -2.15625 L 0.640625 -2.15625 L 1.796875 -0.609375 L 1.796875 -2.15625 L 2.15625 -2.15625 Z M 2.15625 0 "/></g></g></g><g fill="rgb(38.038635%, 34.118652%, 86.669922%)" fill-opacity="1"><g transform="translate(47.448928, 60.285136)"><g><path d="M 0.4375 -1.84375 C 0.65625 -2.050781 0.925781 -2.15625 1.25 -2.15625 C 1.570312 -2.15625 1.84375 -2.050781 2.0625 -1.84375 C 2.28125 -1.644531 2.390625 -1.390625 2.390625 -1.078125 C 2.390625 -0.765625 2.28125 -0.503906 2.0625 -0.296875 C 1.84375 -0.0859375 1.570312 0.015625 1.25 0.015625 C 0.925781 0.015625 0.65625 -0.0859375 0.4375 -0.296875 C 0.21875 -0.503906 0.109375 -0.765625 0.109375 -1.078125 C 0.109375 -1.390625 0.21875 -1.644531 0.4375 -1.84375 Z M 1.25 -1.84375 C 1.03125 -1.84375 0.84375 -1.765625 0.6875 -1.609375 C 0.539062 -1.460938 0.46875 -1.28125 0.46875 -1.0625 C 0.46875 -0.851562 0.546875 -0.675781 0.703125 -0.53125 C 0.859375 -0.382812 1.039062 -0.3125 1.25 -0.3125 C 1.457031 -0.3125 1.632812 -0.382812 1.78125 -0.53125 C 1.9375 -0.675781 2.015625 -0.851562 2.015625 -1.0625 C 2.015625 -1.28125 1.9375 -1.460938 1.78125 -1.609375 C 1.632812 -1.765625 1.457031 -1.84375 1.25 -1.84375 Z M 1.25 -1.84375 "/></g></g></g><g fill="rgb(38.038635%, 34.118652%, 86.669922%)" fill-opacity="1"><g transform="translate(49.937057, 60.285136)"><g><path d="M 0.640625 -0.328125 L 1.578125 -0.328125 L 1.578125 0 L 0.28125 0 L 0.28125 -2.15625 L 0.640625 -2.15625 Z M 0.640625 -0.328125 "/></g></g></g><g fill="rgb(38.038635%, 34.118652%, 86.669922%)" fill-opacity="1"><g transform="translate(51.577378, 60.285136)"><g><path d="M 0.4375 -1.84375 C 0.65625 -2.050781 0.925781 -2.15625 1.25 -2.15625 C 1.570312 -2.15625 1.84375 -2.050781 2.0625 -1.84375 C 2.28125 -1.644531 2.390625 -1.390625 2.390625 -1.078125 C 2.390625 -0.765625 2.28125 -0.503906 2.0625 -0.296875 C 1.84375 -0.0859375 1.570312 0.015625 1.25 0.015625 C 0.925781 0.015625 0.65625 -0.0859375 0.4375 -0.296875 C 0.21875 -0.503906 0.109375 -0.765625 0.109375 -1.078125 C 0.109375 -1.390625 0.21875 -1.644531 0.4375 -1.84375 Z M 1.25 -1.84375 C 1.03125 -1.84375 0.84375 -1.765625 0.6875 -1.609375 C 0.539062 -1.460938 0.46875 -1.28125 0.46875 -1.0625 C 0.46875 -0.851562 0.546875 -0.675781 0.703125 -0.53125 C 0.859375 -0.382812 1.039062 -0.3125 1.25 -0.3125 C 1.457031 -0.3125 1.632812 -0.382812 1.78125 -0.53125 C 1.9375 -0.675781 2.015625 -0.851562 2.015625 -1.0625 C 2.015625 -1.28125 1.9375 -1.460938 1.78125 -1.609375 C 1.632812 -1.765625 1.457031 -1.84375 1.25 -1.84375 Z M 1.25 -1.84375 "/></g></g></g><g fill="rgb(38.038635%, 34.118652%, 86.669922%)" fill-opacity="1"><g transform="translate(54.065507, 60.285136)"><g><path d="M 1.75 -1.0625 L 2.078125 -1.0625 L 2.078125 -0.265625 C 1.960938 -0.179688 1.828125 -0.113281 1.671875 -0.0625 C 1.523438 -0.0078125 1.378906 0.015625 1.234375 0.015625 C 0.921875 0.015625 0.65625 -0.0859375 0.4375 -0.296875 C 0.21875 -0.503906 0.109375 -0.765625 0.109375 -1.078125 C 0.109375 -1.390625 0.21875 -1.644531 0.4375 -1.84375 C 0.65625 -2.050781 0.929688 -2.15625 1.265625 -2.15625 C 1.410156 -2.15625 1.554688 -2.128906 1.703125 -2.078125 C 1.847656 -2.023438 1.976562 -1.953125 2.09375 -1.859375 L 1.875 -1.59375 C 1.695312 -1.757812 1.492188 -1.84375 1.265625 -1.84375 C 1.035156 -1.84375 0.84375 -1.765625 0.6875 -1.609375 C 0.539062 -1.460938 0.46875 -1.285156 0.46875 -1.078125 C 0.46875 -0.859375 0.546875 -0.675781 0.703125 -0.53125 C 0.859375 -0.382812 1.046875 -0.3125 1.265625 -0.3125 C 1.429688 -0.3125 1.59375 -0.359375 1.75 -0.453125 Z M 1.75 -1.0625 "/></g></g></g><g fill="rgb(38.038635%, 34.118652%, 86.669922%)" fill-opacity="1"><g transform="translate(56.366256, 60.285136)"><g><path d="M 1.171875 -0.71875 L 1.171875 0 L 0.8125 0 L 0.8125 -0.703125 L 0 -2.15625 L 0.375 -2.15625 L 0.984375 -1.109375 L 1.59375 -2.15625 L 1.953125 -2.15625 Z M 1.171875 -0.71875 "/></g></g></g></svg>