<svg xmlns="http://www.w3.org/2000/svg" xmlns:xlink="http://www.w3.org/1999/xlink" width="40" zoomAndPan="magnify" viewBox="0 0 30 30.000001" height="40" preserveAspectRatio="xMidYMid meet" version="1.0">
	<defs>
		<g>
			<g id="id1"/>
			<g id="id2"/></g>
			<clipPath id="id3">
				<path d="M 12 9 L 18 9 L 18 16 L 12 16 Z M 12 9 " clip-rule="nonzero"/>
			</clipPath>
			<clipPath id="id4">
				<path d="M 12.179688 9.445312 L 17.261719 9.351562 L 17.367188 15.15625 L 12.285156 15.25 Z M 12.179688 9.445312 " clip-rule="nonzero"/>
			</clipPath>
			<clipPath id="id5">
				<path d="M 12.179688 9.445312 L 17.261719 9.351562 L 17.367188 15.15625 L 12.285156 15.25 Z M 12.179688 9.445312 " clip-rule="nonzero"/>
			</clipPath>
			<clipPath id="id6">
				<path d="M 12.179688 9.445312 L 17.261719 9.351562 L 17.367188 15.15625 L 12.285156 15.25 Z M 12.179688 9.445312 " clip-rule="nonzero"/>
			</clipPath>
			<clipPath id="id7">
				<path d="M 15.0625 9.773438 L 16.859375 10.785156 C 16.894531 10.761719 16.9375 10.746094 16.984375 10.742188 C 17.015625 10.742188 17.042969 10.75 17.070312 10.761719 C 17.097656 10.769531 17.125 10.789062 17.144531 10.808594 C 17.164062 10.828125 17.183594 10.851562 17.195312 10.882812 C 17.207031 10.90625 17.210938 10.9375 17.210938 10.96875 C 17.214844 11 17.207031 11.027344 17.195312 11.054688 C 17.1875 11.082031 17.171875 11.109375 17.148438 11.128906 C 17.136719 11.144531 17.117188 11.160156 17.097656 11.167969 C 17.09375 11.171875 17.09375 11.171875 17.089844 11.175781 L 17.125 13.261719 C 17.136719 13.265625 17.152344 13.273438 17.164062 13.28125 C 17.203125 13.300781 17.238281 13.332031 17.265625 13.367188 C 17.292969 13.402344 17.3125 13.441406 17.324219 13.484375 C 17.375 13.667969 17.273438 13.859375 17.09375 13.914062 C 17.050781 13.925781 17.003906 13.929688 16.960938 13.925781 C 16.921875 13.917969 16.886719 13.910156 16.851562 13.890625 L 16.847656 13.890625 L 16.832031 13.882812 C 16.820312 13.875 16.8125 13.867188 16.800781 13.859375 L 15.089844 14.90625 C 15.089844 14.910156 15.09375 14.917969 15.09375 14.921875 C 15.09375 14.957031 15.085938 14.996094 15.074219 15.027344 C 15.058594 15.0625 15.039062 15.089844 15.015625 15.117188 C 14.992188 15.144531 14.964844 15.164062 14.929688 15.179688 C 14.898438 15.191406 14.863281 15.199219 14.828125 15.199219 C 14.789062 15.203125 14.757812 15.195312 14.722656 15.183594 C 14.691406 15.167969 14.660156 15.148438 14.636719 15.125 C 14.609375 15.101562 14.589844 15.070312 14.574219 15.035156 C 14.5625 15.003906 14.554688 14.96875 14.550781 14.933594 C 14.550781 14.925781 14.550781 14.921875 14.554688 14.917969 L 12.808594 13.9375 C 12.796875 13.945312 12.785156 13.953125 12.773438 13.960938 L 12.769531 13.960938 C 12.730469 13.984375 12.691406 14 12.648438 14.007812 C 12.601562 14.011719 12.558594 14.011719 12.515625 14 C 12.472656 13.988281 12.429688 13.96875 12.394531 13.941406 C 12.359375 13.917969 12.332031 13.882812 12.304688 13.84375 C 12.28125 13.800781 12.269531 13.757812 12.261719 13.714844 C 12.253906 13.671875 12.257812 13.625 12.269531 13.582031 C 12.277344 13.539062 12.296875 13.496094 12.324219 13.460938 C 12.347656 13.425781 12.382812 13.394531 12.421875 13.371094 L 12.4375 13.359375 C 12.445312 13.359375 12.449219 13.355469 12.453125 13.351562 L 12.417969 11.265625 C 12.410156 11.261719 12.40625 11.261719 12.402344 11.257812 C 12.378906 11.246094 12.359375 11.234375 12.34375 11.214844 C 12.324219 11.195312 12.304688 11.171875 12.292969 11.144531 C 12.28125 11.117188 12.277344 11.085938 12.273438 11.058594 C 12.273438 11.027344 12.28125 10.996094 12.289062 10.96875 C 12.300781 10.941406 12.316406 10.917969 12.339844 10.894531 C 12.378906 10.851562 12.433594 10.828125 12.496094 10.824219 C 12.523438 10.824219 12.554688 10.832031 12.582031 10.839844 C 12.597656 10.847656 12.613281 10.855469 12.628906 10.867188 L 14.386719 9.789062 C 14.386719 9.777344 14.382812 9.765625 14.382812 9.753906 C 14.382812 9.707031 14.390625 9.660156 14.40625 9.621094 C 14.4375 9.546875 14.46875 9.515625 14.527344 9.464844 C 14.546875 9.453125 14.566406 9.441406 14.589844 9.429688 C 14.628906 9.414062 14.671875 9.402344 14.71875 9.402344 C 14.761719 9.402344 14.808594 9.410156 14.847656 9.425781 C 14.890625 9.441406 14.925781 9.46875 14.960938 9.5 C 14.992188 9.53125 15.015625 9.566406 15.035156 9.609375 C 15.050781 9.648438 15.0625 9.695312 15.0625 9.742188 C 15.0625 9.753906 15.0625 9.761719 15.0625 9.773438 Z M 12.410156 13.707031 Z M 12.792969 13.671875 C 12.800781 13.441406 12.472656 13.390625 12.410156 13.613281 C 12.40625 13.628906 12.40625 13.644531 12.40625 13.660156 C 12.40625 13.675781 12.40625 13.691406 12.410156 13.707031 C 12.457031 13.933594 12.785156 13.90625 12.792969 13.675781 Z M 14.535156 9.738281 C 14.535156 9.753906 14.535156 9.769531 14.539062 9.785156 C 14.546875 9.835938 14.574219 9.875 14.609375 9.902344 C 14.648438 9.929688 14.695312 9.945312 14.742188 9.941406 C 14.792969 9.9375 14.835938 9.914062 14.867188 9.882812 C 14.898438 9.847656 14.917969 9.800781 14.921875 9.75 C 14.921875 9.703125 14.90625 9.65625 14.875 9.617188 C 14.847656 9.582031 14.804688 9.558594 14.757812 9.550781 C 14.707031 9.542969 14.660156 9.554688 14.621094 9.578125 C 14.582031 9.605469 14.554688 9.644531 14.539062 9.691406 C 14.535156 9.707031 14.535156 9.722656 14.535156 9.738281 Z M 16.804688 13.574219 C 16.804688 13.589844 16.808594 13.605469 16.808594 13.621094 C 16.820312 13.671875 16.847656 13.710938 16.882812 13.742188 C 16.921875 13.769531 16.96875 13.785156 17.015625 13.777344 C 17.066406 13.773438 17.109375 13.753906 17.140625 13.71875 C 17.171875 13.683594 17.191406 13.640625 17.191406 13.589844 C 17.195312 13.539062 17.179688 13.492188 17.148438 13.457031 C 17.117188 13.421875 17.078125 13.394531 17.027344 13.386719 C 16.980469 13.378906 16.933594 13.390625 16.894531 13.417969 C 16.855469 13.441406 16.824219 13.480469 16.8125 13.53125 C 16.808594 13.542969 16.808594 13.558594 16.804688 13.574219 Z M 12.714844 11 C 12.71875 11.015625 12.722656 11.03125 12.722656 11.046875 C 12.722656 11.078125 12.71875 11.109375 12.707031 11.136719 C 12.695312 11.164062 12.679688 11.1875 12.660156 11.210938 C 12.640625 11.230469 12.621094 11.246094 12.59375 11.257812 C 12.589844 11.261719 12.582031 11.265625 12.574219 11.265625 L 12.613281 13.320312 C 12.625 13.320312 12.636719 13.324219 12.652344 13.324219 L 14.472656 9.976562 C 14.460938 9.964844 14.453125 9.953125 14.445312 9.941406 Z M 14.480469 12.367188 L 14.488281 12.371094 C 14.5 12.375 14.507812 12.382812 14.519531 12.390625 L 15.65625 11.691406 C 15.652344 11.679688 15.652344 11.664062 15.652344 11.652344 C 15.652344 11.621094 15.65625 11.589844 15.667969 11.5625 C 15.675781 11.539062 15.691406 11.515625 15.710938 11.496094 L 14.859375 10.0625 C 14.851562 10.066406 14.839844 10.070312 14.828125 10.074219 C 14.804688 10.082031 14.78125 10.085938 14.753906 10.089844 Z M 14.605469 12.523438 C 14.609375 12.539062 14.609375 12.554688 14.609375 12.566406 L 14.609375 12.574219 L 16.714844 13.394531 C 16.726562 13.371094 16.742188 13.351562 16.761719 13.335938 C 16.769531 13.328125 16.777344 13.320312 16.785156 13.3125 L 15.929688 11.867188 C 15.914062 11.871094 15.898438 11.875 15.878906 11.875 C 15.851562 11.875 15.820312 11.867188 15.792969 11.859375 C 15.777344 11.851562 15.757812 11.839844 15.742188 11.828125 Z M 14.550781 12.722656 C 14.550781 12.726562 14.546875 12.726562 14.546875 12.730469 C 14.507812 12.773438 14.453125 12.796875 14.390625 12.800781 C 14.359375 12.800781 14.332031 12.792969 14.304688 12.785156 C 14.28125 12.773438 14.261719 12.761719 14.242188 12.746094 L 12.917969 13.554688 C 12.921875 13.566406 12.925781 13.574219 12.925781 13.582031 C 12.929688 13.589844 12.929688 13.597656 12.929688 13.605469 L 16.644531 13.539062 Z M 14.164062 12.605469 C 14.164062 12.597656 14.164062 12.585938 14.160156 12.574219 C 14.160156 12.546875 14.167969 12.515625 14.175781 12.488281 C 14.1875 12.460938 14.203125 12.433594 14.226562 12.414062 C 14.246094 12.394531 14.269531 12.375 14.292969 12.363281 C 14.304688 12.359375 14.3125 12.355469 14.324219 12.355469 L 14.597656 10.078125 L 12.796875 13.386719 C 12.804688 13.390625 12.808594 13.394531 12.8125 13.398438 C 12.820312 13.40625 12.828125 13.414062 12.835938 13.417969 Z M 15.871094 11.417969 C 15.902344 11.417969 15.929688 11.425781 15.957031 11.4375 C 15.984375 11.445312 16.011719 11.464844 16.03125 11.484375 C 16.050781 11.503906 16.070312 11.527344 16.082031 11.554688 C 16.09375 11.582031 16.097656 11.613281 16.101562 11.644531 C 16.101562 11.671875 16.09375 11.703125 16.085938 11.730469 C 16.078125 11.746094 16.070312 11.761719 16.058594 11.777344 L 16.929688 13.242188 C 16.941406 13.242188 16.953125 13.238281 16.96875 13.238281 L 16.929688 11.191406 C 16.921875 11.1875 16.914062 11.1875 16.90625 11.183594 C 16.878906 11.171875 16.855469 11.15625 16.832031 11.136719 C 16.8125 11.113281 16.796875 11.089844 16.785156 11.0625 C 16.773438 11.035156 16.765625 11.007812 16.765625 10.976562 C 16.765625 10.957031 16.765625 10.9375 16.769531 10.921875 L 15.011719 9.929688 L 14.988281 9.964844 L 15.847656 11.421875 C 15.855469 11.421875 15.863281 11.417969 15.871094 11.417969 Z M 12.921875 13.765625 C 12.917969 13.78125 12.914062 13.792969 12.90625 13.808594 L 14.601562 14.761719 L 14.628906 14.734375 C 14.675781 14.683594 14.742188 14.652344 14.816406 14.652344 C 14.855469 14.652344 14.890625 14.660156 14.921875 14.671875 C 14.953125 14.683594 14.984375 14.703125 15.011719 14.730469 C 15.019531 14.738281 15.027344 14.746094 15.03125 14.753906 L 16.695312 13.738281 C 16.691406 13.722656 16.683594 13.710938 16.679688 13.699219 Z M 12.921875 13.765625 " clip-rule="nonzero"/>
			</clipPath>
			<linearGradient x1="13.95424" gradientTransform="matrix(0.018863, -0.000341755, 0.000347599, 0.0191856, 12.181468, 9.447183)" y1="317.119976" x2="270.491326" gradientUnits="userSpaceOnUse" y2="-5.792602" xlink:type="simple" xlink:actuate="onLoad" id="id8" xlink:show="other">
				<stop stop-opacity="1" stop-color="rgb(74.893188%, 0.72937%, 80.142212%)" offset="0"/><stop stop-opacity="1" stop-color="rgb(74.412537%, 1.16272%, 80.227661%)" offset="0.00390625"/>
				<stop stop-opacity="1" stop-color="rgb(73.933411%, 1.596069%, 80.31311%)" offset="0.0078125"/>
				<stop stop-opacity="1" stop-color="rgb(73.452759%, 2.029419%, 80.39856%)" offset="0.0117187"/>
				<stop stop-opacity="1" stop-color="rgb(72.973633%, 2.464294%, 80.484009%)" offset="0.015625"/>
				<stop stop-opacity="1" stop-color="rgb(72.492981%, 2.897644%, 80.569458%)" offset="0.0195312"/>
				<stop stop-opacity="1" stop-color="rgb(72.013855%, 3.33252%, 80.654907%)" offset="0.0234375"/>
				<stop stop-opacity="1" stop-color="rgb(71.533203%, 3.765869%, 80.738831%)" offset="0.0273437"/>
				<stop stop-opacity="1" stop-color="rgb(71.054077%, 4.200745%, 80.82428%)" offset="0.03125"/>
				<stop stop-opacity="1" stop-color="rgb(70.573425%, 4.634094%, 80.909729%)" offset="0.0351562"/>
				<stop stop-opacity="1" stop-color="rgb(70.094299%, 5.06897%, 80.995178%)" offset="0.0390625"/>
				<stop stop-opacity="1" stop-color="rgb(69.613647%, 5.502319%, 81.080627%)" offset="0.0429687"/>
				<stop stop-opacity="1" stop-color="rgb(69.134521%, 5.937195%, 81.166077%)" offset="0.046875"/>
				<stop stop-opacity="1" stop-color="rgb(68.65387%, 6.370544%, 81.251526%)" offset="0.0507812"/>
				<stop stop-opacity="1" stop-color="rgb(68.174744%, 6.80542%, 81.336975%)" offset="0.0546875"/>
				<stop stop-opacity="1" stop-color="rgb(67.694092%, 7.23877%, 81.420898%)" offset="0.0585937"/>
				<stop stop-opacity="1" stop-color="rgb(67.214966%, 7.673645%, 81.506348%)" offset="0.0625"/>
				<stop stop-opacity="1" stop-color="rgb(66.734314%, 8.106995%, 81.591797%)" offset="0.0664062"/>
				<stop stop-opacity="1" stop-color="rgb(66.255188%, 8.54187%, 81.677246%)" offset="0.0703125"/>
				<stop stop-opacity="1" stop-color="rgb(65.774536%, 8.97522%, 81.762695%)" offset="0.0742187"/>
				<stop stop-opacity="1" stop-color="rgb(65.29541%, 9.410095%, 81.848145%)" offset="0.078125"/>
				<stop stop-opacity="1" stop-color="rgb(64.814758%, 9.843445%, 81.933594%)" offset="0.0820312"/>
				<stop stop-opacity="1" stop-color="rgb(64.335632%, 10.27832%, 82.019043%)" offset="0.0859375"/>
				<stop stop-opacity="1" stop-color="rgb(63.85498%, 10.71167%, 82.104492%)" offset="0.0898437"/>
				<stop stop-opacity="1" stop-color="rgb(63.375854%, 11.146545%, 82.189941%)" offset="0.09375"/>
				<stop stop-opacity="1" stop-color="rgb(62.895203%, 11.579895%, 82.273865%)" offset="0.0976562"/>
				<stop stop-opacity="1" stop-color="rgb(62.416077%, 12.013245%, 82.359314%)" offset="0.101562"/>
				<stop stop-opacity="1" stop-color="rgb(61.935425%, 12.446594%, 82.444763%)" offset="0.105469"/>
				<stop stop-opacity="1" stop-color="rgb(61.456299%, 12.88147%, 82.530212%)" offset="0.109375"/>
				<stop stop-opacity="1" stop-color="rgb(60.975647%, 13.314819%, 82.615662%)" offset="0.113281"/>
				<stop stop-opacity="1" stop-color="rgb(60.496521%, 13.749695%, 82.701111%)" offset="0.117187"/>
				<stop stop-opacity="1" stop-color="rgb(60.015869%, 14.183044%, 82.78656%)" offset="0.121094"/>
				<stop stop-opacity="1" stop-color="rgb(59.536743%, 14.61792%, 82.872009%)" offset="0.125"/>
				<stop stop-opacity="1" stop-color="rgb(59.056091%, 15.05127%, 82.955933%)" offset="0.128906"/>
				<stop stop-opacity="1" stop-color="rgb(58.576965%, 15.486145%, 83.041382%)" offset="0.132812"/>
				<stop stop-opacity="1" stop-color="rgb(58.096313%, 15.919495%, 83.126831%)" offset="0.136719"/>
				<stop stop-opacity="1" stop-color="rgb(57.617188%, 16.35437%, 83.21228%)" offset="0.140625"/>
				<stop stop-opacity="1" stop-color="rgb(57.136536%, 16.78772%, 83.297729%)" offset="0.144531"/>
				<stop stop-opacity="1" stop-color="rgb(56.65741%, 17.222595%, 83.383179%)" offset="0.148438"/>
				<stop stop-opacity="1" stop-color="rgb(56.176758%, 17.655945%, 83.468628%)" offset="0.152344"/>
				<stop stop-opacity="1" stop-color="rgb(55.697632%, 18.09082%, 83.554077%)" offset="0.15625"/>
				<stop stop-opacity="1" stop-color="rgb(55.21698%, 18.52417%, 83.639526%)" offset="0.160156"/>
				<stop stop-opacity="1" stop-color="rgb(54.737854%, 18.959045%, 83.724976%)" offset="0.164063"/>
				<stop stop-opacity="1" stop-color="rgb(54.257202%, 19.392395%, 83.808899%)" offset="0.167969"/>
				<stop stop-opacity="1" stop-color="rgb(53.778076%, 19.827271%, 83.894348%)" offset="0.171875"/>
				<stop stop-opacity="1" stop-color="rgb(53.297424%, 20.26062%, 83.979797%)" offset="0.175781"/>
				<stop stop-opacity="1" stop-color="rgb(52.818298%, 20.695496%, 84.065247%)" offset="0.179688"/>
				<stop stop-opacity="1" stop-color="rgb(52.337646%, 21.128845%, 84.150696%)" offset="0.183594"/>
				<stop stop-opacity="1" stop-color="rgb(51.858521%, 21.562195%, 84.236145%)" offset="0.1875"/>
				<stop stop-opacity="1" stop-color="rgb(51.377869%, 21.995544%, 84.321594%)" offset="0.191406"/>
				<stop stop-opacity="1" stop-color="rgb(50.898743%, 22.43042%, 84.407043%)" offset="0.195313"/>
				<stop stop-opacity="1" stop-color="rgb(50.418091%, 22.86377%, 84.492493%)" offset="0.199219"/>
				<stop stop-opacity="1" stop-color="rgb(49.938965%, 23.298645%, 84.577942%)" offset="0.203125"/>
				<stop stop-opacity="1" stop-color="rgb(49.458313%, 23.731995%, 84.661865%)" offset="0.207031"/>
				<stop stop-opacity="1" stop-color="rgb(48.979187%, 24.16687%, 84.747314%)" offset="0.210938"/>
				<stop stop-opacity="1" stop-color="rgb(48.500061%, 24.60022%, 84.832764%)" offset="0.214844"/>
				<stop stop-opacity="1" stop-color="rgb(48.020935%, 25.035095%, 84.918213%)" offset="0.21875"/>
				<stop stop-opacity="1" stop-color="rgb(47.540283%, 25.468445%, 85.003662%)" offset="0.222656"/>
				<stop stop-opacity="1" stop-color="rgb(47.061157%, 25.90332%, 85.089111%)" offset="0.226563"/>
				<stop stop-opacity="1" stop-color="rgb(46.580505%, 26.33667%, 85.174561%)" offset="0.230469"/>
				<stop stop-opacity="1" stop-color="rgb(46.101379%, 26.771545%, 85.26001%)" offset="0.234375"/>
				<stop stop-opacity="1" stop-color="rgb(45.620728%, 27.204895%, 85.343933%)" offset="0.238281"/>
				<stop stop-opacity="1" stop-color="rgb(45.141602%, 27.639771%, 85.429382%)" offset="0.242188"/>
				<stop stop-opacity="1" stop-color="rgb(44.66095%, 28.07312%, 85.514832%)" offset="0.246094"/>
				<stop stop-opacity="1" stop-color="rgb(44.181824%, 28.507996%, 85.600281%)" offset="0.25"/>
				<stop stop-opacity="1" stop-color="rgb(43.701172%, 28.941345%, 85.68573%)" offset="0.253906"/>
				<stop stop-opacity="1" stop-color="rgb(43.222046%, 29.376221%, 85.771179%)" offset="0.257813"/>
				<stop stop-opacity="1" stop-color="rgb(42.741394%, 29.80957%, 85.856628%)" offset="0.261719"/>
				<stop stop-opacity="1" stop-color="rgb(42.262268%, 30.244446%, 85.942078%)" offset="0.265625"/>
				<stop stop-opacity="1" stop-color="rgb(41.781616%, 30.677795%, 86.027527%)" offset="0.269531"/>
				<stop stop-opacity="1" stop-color="rgb(41.30249%, 31.111145%, 86.112976%)" offset="0.273438"/>
				<stop stop-opacity="1" stop-color="rgb(40.821838%, 31.544495%, 86.196899%)" offset="0.277344"/>
				<stop stop-opacity="1" stop-color="rgb(40.342712%, 31.97937%, 86.282349%)" offset="0.28125"/>
				<stop stop-opacity="1" stop-color="rgb(39.862061%, 32.41272%, 86.367798%)" offset="0.285156"/>
				<stop stop-opacity="1" stop-color="rgb(39.382935%, 32.847595%, 86.453247%)" offset="0.289063"/>
				<stop stop-opacity="1" stop-color="rgb(38.902283%, 33.280945%, 86.538696%)" offset="0.292969"/>
				<stop stop-opacity="1" stop-color="rgb(38.423157%, 33.71582%, 86.624146%)" offset="0.296875"/>
				<stop stop-opacity="1" stop-color="rgb(37.982178%, 34.114075%, 86.703491%)" offset="0.300781"/>
				<stop stop-opacity="1" stop-color="rgb(37.542725%, 34.513855%, 86.782837%)" offset="0.304688"/>
				<stop stop-opacity="1" stop-color="rgb(37.132263%, 34.884644%, 86.857605%)" offset="0.308594"/>
				<stop stop-opacity="1" stop-color="rgb(36.723328%, 35.256958%, 86.933899%)" offset="0.3125"/>
				<stop stop-opacity="1" stop-color="rgb(36.314392%, 35.627747%, 87.008667%)" offset="0.316406"/>
				<stop stop-opacity="1" stop-color="rgb(35.905457%, 36.000061%, 87.084961%)" offset="0.320313"/>
				<stop stop-opacity="1" stop-color="rgb(35.496521%, 36.37085%, 87.159729%)" offset="0.324219"/>
				<stop stop-opacity="1" stop-color="rgb(35.087585%, 36.743164%, 87.236023%)" offset="0.328125"/>
				<stop stop-opacity="1" stop-color="rgb(34.677124%, 37.113953%, 87.310791%)" offset="0.332031"/>
				<stop stop-opacity="1" stop-color="rgb(34.268188%, 37.486267%, 87.387085%)" offset="0.335938"/>
				<stop stop-opacity="1" stop-color="rgb(33.859253%, 37.857056%, 87.461853%)" offset="0.339844"/>
				<stop stop-opacity="1" stop-color="rgb(33.450317%, 38.22937%, 87.536621%)" offset="0.34375"/>
				<stop stop-opacity="1" stop-color="rgb(33.041382%, 38.600159%, 87.611389%)" offset="0.347656"/>
				<stop stop-opacity="1" stop-color="rgb(32.632446%, 38.972473%, 87.687683%)" offset="0.351563"/>
				<stop stop-opacity="1" stop-color="rgb(32.221985%, 39.343262%, 87.762451%)" offset="0.355469"/>
				<stop stop-opacity="1" stop-color="rgb(31.813049%, 39.715576%, 87.838745%)" offset="0.359375"/>
				<stop stop-opacity="1" stop-color="rgb(31.404114%, 40.086365%, 87.913513%)" offset="0.363281"/>
				<stop stop-opacity="1" stop-color="rgb(30.995178%, 40.458679%, 87.989807%)" offset="0.367188"/>
				<stop stop-opacity="1" stop-color="rgb(30.586243%, 40.829468%, 88.064575%)" offset="0.371094"/>
				<stop stop-opacity="1" stop-color="rgb(30.177307%, 41.200256%, 88.140869%)" offset="0.375"/>
				<stop stop-opacity="1" stop-color="rgb(29.768372%, 41.571045%, 88.215637%)" offset="0.378906"/>
				<stop stop-opacity="1" stop-color="rgb(29.359436%, 41.943359%, 88.290405%)" offset="0.382812"/>
				<stop stop-opacity="1" stop-color="rgb(28.948975%, 42.314148%, 88.365173%)" offset="0.386719"/>
				<stop stop-opacity="1" stop-color="rgb(28.540039%, 42.686462%, 88.441467%)" offset="0.390625"/>
				<stop stop-opacity="1" stop-color="rgb(28.131104%, 43.057251%, 88.516235%)" offset="0.394531"/>
				<stop stop-opacity="1" stop-color="rgb(27.722168%, 43.429565%, 88.592529%)" offset="0.398438"/>
				<stop stop-opacity="1" stop-color="rgb(27.313232%, 43.800354%, 88.667297%)" offset="0.402344"/>
				<stop stop-opacity="1" stop-color="rgb(26.904297%, 44.172668%, 88.743591%)" offset="0.40625"/>
				<stop stop-opacity="1" stop-color="rgb(26.493835%, 44.543457%, 88.818359%)" offset="0.410156"/>
				<stop stop-opacity="1" stop-color="rgb(26.0849%, 44.915771%, 88.893127%)" offset="0.414062"/>
				<stop stop-opacity="1" stop-color="rgb(25.675964%, 45.28656%, 88.967896%)" offset="0.417969"/>
				<stop stop-opacity="1" stop-color="rgb(25.267029%, 45.658875%, 89.044189%)" offset="0.421875"/>
				<stop stop-opacity="1" stop-color="rgb(24.858093%, 46.029663%, 89.118958%)" offset="0.425781"/>
				<stop stop-opacity="1" stop-color="rgb(24.449158%, 46.401978%, 89.195251%)" offset="0.429688"/>
				<stop stop-opacity="1" stop-color="rgb(24.038696%, 46.772766%, 89.27002%)" offset="0.433594"/>
				<stop stop-opacity="1" stop-color="rgb(23.629761%, 47.145081%, 89.346313%)" offset="0.4375"/>
				<stop stop-opacity="1" stop-color="rgb(23.220825%, 47.515869%, 89.421082%)" offset="0.441406"/>
				<stop stop-opacity="1" stop-color="rgb(22.81189%, 47.888184%, 89.497375%)" offset="0.445312"/>
				<stop stop-opacity="1" stop-color="rgb(22.402954%, 48.258972%, 89.572144%)" offset="0.449219"/>
				<stop stop-opacity="1" stop-color="rgb(21.994019%, 48.629761%, 89.646912%)" offset="0.453125"/>
				<stop stop-opacity="1" stop-color="rgb(21.585083%, 49.000549%, 89.72168%)" offset="0.457031"/>
				<stop stop-opacity="1" stop-color="rgb(21.176147%, 49.372864%, 89.797974%)" offset="0.460938"/>
				<stop stop-opacity="1" stop-color="rgb(20.765686%, 49.743652%, 89.872742%)" offset="0.464844"/>
				<stop stop-opacity="1" stop-color="rgb(20.35675%, 50.115967%, 89.949036%)" offset="0.46875"/>
				<stop stop-opacity="1" stop-color="rgb(19.947815%, 50.486755%, 90.023804%)" offset="0.472656"/>
				<stop stop-opacity="1" stop-color="rgb(19.538879%, 50.85907%, 90.100098%)" offset="0.476562"/>
				<stop stop-opacity="1" stop-color="rgb(19.129944%, 51.229858%, 90.174866%)" offset="0.480469"/>
				<stop stop-opacity="1" stop-color="rgb(18.721008%, 51.602173%, 90.25116%)" offset="0.484375"/>
				<stop stop-opacity="1" stop-color="rgb(18.310547%, 51.972961%, 90.325928%)" offset="0.488281"/>
				<stop stop-opacity="1" stop-color="rgb(17.901611%, 52.345276%, 90.400696%)" offset="0.492188"/>
				<stop stop-opacity="1" stop-color="rgb(17.492676%, 52.716064%, 90.475464%)" offset="0.496094"/>
				<stop stop-opacity="1" stop-color="rgb(17.08374%, 53.088379%, 90.551758%)" offset="0.5"/>
				<stop stop-opacity="1" stop-color="rgb(16.674805%, 53.459167%, 90.626526%)" offset="0.503906"/>
				<stop stop-opacity="1" stop-color="rgb(16.265869%, 53.831482%, 90.70282%)" offset="0.507812"/>
				<stop stop-opacity="1" stop-color="rgb(15.855408%, 54.202271%, 90.777588%)" offset="0.511719"/>
				<stop stop-opacity="1" stop-color="rgb(15.446472%, 54.574585%, 90.853882%)" offset="0.515625"/>
				<stop stop-opacity="1" stop-color="rgb(15.037537%, 54.945374%, 90.92865%)" offset="0.519531"/>
				<stop stop-opacity="1" stop-color="rgb(14.628601%, 55.317688%, 91.004944%)" offset="0.523438"/>
				<stop stop-opacity="1" stop-color="rgb(14.219666%, 55.688477%, 91.079712%)" offset="0.527344"/>
				<stop stop-opacity="1" stop-color="rgb(13.81073%, 56.060791%, 91.15448%)" offset="0.53125"/>
				<stop stop-opacity="1" stop-color="rgb(13.400269%, 56.43158%, 91.229248%)" offset="0.535156"/>
				<stop stop-opacity="1" stop-color="rgb(12.991333%, 56.802368%, 91.305542%)" offset="0.539062"/>
				<stop stop-opacity="1" stop-color="rgb(12.582397%, 57.173157%, 91.38031%)" offset="0.542969"/>
				<stop stop-opacity="1" stop-color="rgb(12.173462%, 57.545471%, 91.456604%)" offset="0.546875"/>
				<stop stop-opacity="1" stop-color="rgb(11.764526%, 57.91626%, 91.531372%)" offset="0.550781"/>
				<stop stop-opacity="1" stop-color="rgb(11.355591%, 58.288574%, 91.607666%)" offset="0.554688"/>
				<stop stop-opacity="1" stop-color="rgb(10.946655%, 58.659363%, 91.682434%)" offset="0.558594"/>
				<stop stop-opacity="1" stop-color="rgb(10.53772%, 59.031677%, 91.758728%)" offset="0.5625"/>
				<stop stop-opacity="1" stop-color="rgb(10.127258%, 59.402466%, 91.833496%)" offset="0.566406"/>
				<stop stop-opacity="1" stop-color="rgb(9.718323%, 59.77478%, 91.908264%)" offset="0.570312"/>
				<stop stop-opacity="1" stop-color="rgb(9.309387%, 60.145569%, 91.983032%)" offset="0.574219"/>
				<stop stop-opacity="1" stop-color="rgb(8.900452%, 60.517883%, 92.059326%)" offset="0.578125"/>
				<stop stop-opacity="1" stop-color="rgb(8.491516%, 60.888672%, 92.134094%)" offset="0.582031"/>
				<stop stop-opacity="1" stop-color="rgb(8.082581%, 61.260986%, 92.210388%)" offset="0.585938"/>
				<stop stop-opacity="1" stop-color="rgb(7.672119%, 61.631775%, 92.285156%)" offset="0.589844"/>
				<stop stop-opacity="1" stop-color="rgb(7.263184%, 62.004089%, 92.36145%)" offset="0.59375"/>
				<stop stop-opacity="1" stop-color="rgb(6.854248%, 62.374878%, 92.436218%)" offset="0.597656"/>
				<stop stop-opacity="1" stop-color="rgb(6.445312%, 62.747192%, 92.512512%)" offset="0.601563"/>
				<stop stop-opacity="1" stop-color="rgb(6.036377%, 63.117981%, 92.58728%)" offset="0.605469"/>
				<stop stop-opacity="1" stop-color="rgb(5.627441%, 63.490295%, 92.662048%)" offset="0.609375"/>
				<stop stop-opacity="1" stop-color="rgb(5.21698%, 63.861084%, 92.736816%)" offset="0.613281"/><stop stop-opacity="1" stop-color="rgb(4.808044%, 64.233398%, 92.81311%)" offset="0.617188"/><stop stop-opacity="1" stop-color="rgb(4.399109%, 64.604187%, 92.887878%)" offset="0.621094"/><stop stop-opacity="1" stop-color="rgb(3.990173%, 64.974976%, 92.964172%)" offset="0.625"/><stop stop-opacity="1" stop-color="rgb(3.581238%, 65.345764%, 93.03894%)" offset="0.628906"/><stop stop-opacity="1" stop-color="rgb(3.172302%, 65.718079%, 93.115234%)" offset="0.632813"/><stop stop-opacity="1" stop-color="rgb(2.763367%, 66.088867%, 93.190002%)" offset="0.636719"/><stop stop-opacity="1" stop-color="rgb(2.354431%, 66.461182%, 93.264771%)" offset="0.640625"/><stop stop-opacity="1" stop-color="rgb(1.94397%, 66.83197%, 93.339539%)" offset="0.644531"/><stop stop-opacity="1" stop-color="rgb(1.535034%, 67.204285%, 93.415833%)" offset="0.648438"/><stop stop-opacity="1" stop-color="rgb(1.126099%, 67.575073%, 93.490601%)" offset="0.652344"/><stop stop-opacity="1" stop-color="rgb(0.717163%, 67.947388%, 93.566895%)" offset="0.65625"/><stop stop-opacity="1" stop-color="rgb(0.358582%, 68.31665%, 93.641663%)" offset="0.660156"/><stop stop-opacity="1" stop-color="rgb(0%, 68.685913%, 93.716431%)" offset="0.664062"/><stop stop-opacity="1" stop-color="rgb(0%, 69.039917%, 93.786621%)" offset="0.667969"/><stop stop-opacity="1" stop-color="rgb(0%, 69.393921%, 93.858337%)" offset="0.671875"/><stop stop-opacity="1" stop-color="rgb(0%, 69.747925%, 93.928528%)" offset="0.675781"/><stop stop-opacity="1" stop-color="rgb(0%, 70.101929%, 94.000244%)" offset="0.679688"/><stop stop-opacity="1" stop-color="rgb(0%, 70.455933%, 94.070435%)" offset="0.683594"/><stop stop-opacity="1" stop-color="rgb(0%, 70.809937%, 94.142151%)" offset="0.6875"/><stop stop-opacity="1" stop-color="rgb(0%, 71.16394%, 94.213867%)" offset="0.691406"/><stop stop-opacity="1" stop-color="rgb(0%, 71.517944%, 94.285583%)" offset="0.695312"/><stop stop-opacity="1" stop-color="rgb(0%, 71.871948%, 94.355774%)" offset="0.699219"/><stop stop-opacity="1" stop-color="rgb(0%, 72.225952%, 94.42749%)" offset="0.703125"/><stop stop-opacity="1" stop-color="rgb(0%, 72.579956%, 94.497681%)" offset="0.707031"/><stop stop-opacity="1" stop-color="rgb(0%, 72.93396%, 94.569397%)" offset="0.710938"/><stop stop-opacity="1" stop-color="rgb(0%, 73.287964%, 94.639587%)" offset="0.714844"/><stop stop-opacity="1" stop-color="rgb(0%, 73.641968%, 94.711304%)" offset="0.71875"/><stop stop-opacity="1" stop-color="rgb(0%, 73.995972%, 94.781494%)" offset="0.722656"/><stop stop-opacity="1" stop-color="rgb(0%, 74.349976%, 94.85321%)" offset="0.726562"/><stop stop-opacity="1" stop-color="rgb(0%, 74.703979%, 94.923401%)" offset="0.730469"/><stop stop-opacity="1" stop-color="rgb(0%, 75.057983%, 94.995117%)" offset="0.734375"/><stop stop-opacity="1" stop-color="rgb(0%, 75.411987%, 95.065308%)" offset="0.738281"/><stop stop-opacity="1" stop-color="rgb(0%, 75.765991%, 95.137024%)" offset="0.742188"/><stop stop-opacity="1" stop-color="rgb(0%, 76.119995%, 95.207214%)" offset="0.746094"/><stop stop-opacity="1" stop-color="rgb(0%, 76.473999%, 95.278931%)" offset="0.75"/><stop stop-opacity="1" stop-color="rgb(0%, 76.828003%, 95.349121%)" offset="0.753906"/><stop stop-opacity="1" stop-color="rgb(0%, 77.182007%, 95.420837%)" offset="0.757813"/><stop stop-opacity="1" stop-color="rgb(0%, 77.536011%, 95.491028%)" offset="0.761719"/><stop stop-opacity="1" stop-color="rgb(0%, 77.890015%, 95.562744%)" offset="0.765625"/><stop stop-opacity="1" stop-color="rgb(0%, 78.242493%, 95.632935%)" offset="0.769531"/><stop stop-opacity="1" stop-color="rgb(0%, 78.596497%, 95.704651%)" offset="0.773438"/><stop stop-opacity="1" stop-color="rgb(0%, 78.9505%, 95.774841%)" offset="0.777344"/><stop stop-opacity="1" stop-color="rgb(0%, 79.304504%, 95.846558%)" offset="0.78125"/><stop stop-opacity="1" stop-color="rgb(0%, 79.658508%, 95.918274%)" offset="0.785156"/><stop stop-opacity="1" stop-color="rgb(0%, 80.012512%, 95.98999%)" offset="0.789062"/><stop stop-opacity="1" stop-color="rgb(0%, 80.366516%, 96.060181%)" offset="0.792969"/><stop stop-opacity="1" stop-color="rgb(0%, 80.72052%, 96.131897%)" offset="0.796875"/><stop stop-opacity="1" stop-color="rgb(0%, 81.074524%, 96.202087%)" offset="0.800781"/><stop stop-opacity="1" stop-color="rgb(0%, 81.428528%, 96.273804%)" offset="0.804688"/><stop stop-opacity="1" stop-color="rgb(0%, 81.782532%, 96.343994%)" offset="0.808594"/><stop stop-opacity="1" stop-color="rgb(0%, 82.136536%, 96.41571%)" offset="0.8125"/><stop stop-opacity="1" stop-color="rgb(0%, 82.49054%, 96.485901%)" offset="0.816406"/><stop stop-opacity="1" stop-color="rgb(0%, 82.844543%, 96.557617%)" offset="0.820312"/><stop stop-opacity="1" stop-color="rgb(0%, 83.198547%, 96.627808%)" offset="0.824219"/><stop stop-opacity="1" stop-color="rgb(0%, 83.552551%, 96.699524%)" offset="0.828125"/><stop stop-opacity="1" stop-color="rgb(0%, 83.906555%, 96.769714%)" offset="0.832031"/><stop stop-opacity="1" stop-color="rgb(0%, 84.260559%, 96.841431%)" offset="0.835938"/><stop stop-opacity="1" stop-color="rgb(0%, 84.614563%, 96.911621%)" offset="0.839844"/><stop stop-opacity="1" stop-color="rgb(0%, 84.968567%, 96.983337%)" offset="0.84375"/><stop stop-opacity="1" stop-color="rgb(0%, 85.322571%, 97.053528%)" offset="0.847656"/><stop stop-opacity="1" stop-color="rgb(0%, 85.676575%, 97.125244%)" offset="0.851562"/><stop stop-opacity="1" stop-color="rgb(0%, 86.030579%, 97.195435%)" offset="0.855469"/><stop stop-opacity="1" stop-color="rgb(0%, 86.384583%, 97.267151%)" offset="0.859375"/><stop stop-opacity="1" stop-color="rgb(0%, 86.738586%, 97.337341%)" offset="0.863281"/><stop stop-opacity="1" stop-color="rgb(0%, 87.09259%, 97.409058%)" offset="0.867187"/><stop stop-opacity="1" stop-color="rgb(0%, 87.446594%, 97.479248%)" offset="0.871094"/><stop stop-opacity="1" stop-color="rgb(0%, 87.800598%, 97.550964%)" offset="0.875"/><stop stop-opacity="1" stop-color="rgb(0%, 88.154602%, 97.622681%)" offset="0.878906"/><stop stop-opacity="1" stop-color="rgb(0%, 88.508606%, 97.694397%)" offset="0.882813"/><stop stop-opacity="1" stop-color="rgb(0%, 88.86261%, 97.764587%)" offset="0.886719"/><stop stop-opacity="1" stop-color="rgb(0%, 89.216614%, 97.836304%)" offset="0.890625"/><stop stop-opacity="1" stop-color="rgb(0%, 89.570618%, 97.906494%)" offset="0.894531"/><stop stop-opacity="1" stop-color="rgb(0%, 89.924622%, 97.97821%)" offset="0.898438"/><stop stop-opacity="1" stop-color="rgb(0%, 90.278625%, 98.048401%)" offset="0.902344"/><stop stop-opacity="1" stop-color="rgb(0%, 90.632629%, 98.120117%)" offset="0.90625"/><stop stop-opacity="1" stop-color="rgb(0%, 90.986633%, 98.190308%)" offset="0.910156"/><stop stop-opacity="1" stop-color="rgb(0%, 91.340637%, 98.262024%)" offset="0.914062"/><stop stop-opacity="1" stop-color="rgb(0%, 91.694641%, 98.332214%)" offset="0.917969"/><stop stop-opacity="1" stop-color="rgb(0%, 92.048645%, 98.403931%)" offset="0.921875"/><stop stop-opacity="1" stop-color="rgb(0%, 92.401123%, 98.474121%)" offset="0.925781"/><stop stop-opacity="1" stop-color="rgb(0%, 92.755127%, 98.545837%)" offset="0.929688"/><stop stop-opacity="1" stop-color="rgb(0%, 93.109131%, 98.616028%)" offset="0.933594"/><stop stop-opacity="1" stop-color="rgb(0%, 93.463135%, 98.687744%)" offset="0.9375"/><stop stop-opacity="1" stop-color="rgb(0%, 93.817139%, 98.757935%)" offset="0.941406"/><stop stop-opacity="1" stop-color="rgb(0%, 94.171143%, 98.829651%)" offset="0.945312"/><stop stop-opacity="1" stop-color="rgb(0%, 94.525146%, 98.899841%)" offset="0.949219"/><stop stop-opacity="1" stop-color="rgb(0%, 94.87915%, 98.971558%)" offset="0.953125"/><stop stop-opacity="1" stop-color="rgb(0%, 95.233154%, 99.041748%)" offset="0.957031"/><stop stop-opacity="1" stop-color="rgb(0%, 95.587158%, 99.113464%)" offset="0.960938"/><stop stop-opacity="1" stop-color="rgb(0%, 95.941162%, 99.185181%)" offset="0.964844"/><stop stop-opacity="1" stop-color="rgb(0%, 96.295166%, 99.256897%)" offset="0.96875"/><stop stop-opacity="1" stop-color="rgb(0%, 96.64917%, 99.327087%)" offset="0.972656"/><stop stop-opacity="1" stop-color="rgb(0%, 97.003174%, 99.398804%)" offset="0.976562"/><stop stop-opacity="1" stop-color="rgb(0%, 97.357178%, 99.468994%)" offset="0.980469"/><stop stop-opacity="1" stop-color="rgb(0%, 97.711182%, 99.54071%)" offset="0.984375"/><stop stop-opacity="1" stop-color="rgb(0%, 98.065186%, 99.610901%)" offset="0.988281"/><stop stop-opacity="1" stop-color="rgb(0%, 98.419189%, 99.682617%)" offset="0.992187"/><stop stop-opacity="1" stop-color="rgb(0%, 98.773193%, 99.752808%)" offset="0.996094"/><stop stop-opacity="1" stop-color="rgb(0%, 99.127197%, 99.824524%)" offset="1"/></linearGradient></defs><g clip-path="url(#id3)"><g clip-path="url(#id4)"><g clip-path="url(#id5)"><g clip-path="url(#id6)"><g clip-path="url(#id7)"><path fill="url(#id8)" d="M 12.148438 9.402344 L 12.257812 15.292969 L 17.472656 15.199219 L 17.363281 9.308594 Z M 12.148438 9.402344 " fill-rule="nonzero"/></g></g></g></g></g><g fill="rgb(38.038635%, 34.118652%, 86.669922%)" fill-opacity="1"><g transform="translate(2.44606, 18.159892)"><g><path d="M 1.296875 0 L 0.90625 0 L 0.015625 -2.25 L 0.421875 -2.25 L 1.109375 -0.421875 L 1.8125 -2.25 L 2.21875 -2.25 Z M 1.296875 0 "/></g></g></g><g fill="rgb(38.038635%, 34.118652%, 86.669922%)" fill-opacity="1"><g transform="translate(5.00675, 18.159892)"><g><path d="M 1.296875 -2.265625 C 1.453125 -2.265625 1.601562 -2.234375 1.75 -2.171875 C 1.90625 -2.109375 2.039062 -2.023438 2.15625 -1.921875 L 1.921875 -1.640625 C 1.847656 -1.722656 1.753906 -1.789062 1.640625 -1.84375 C 1.523438 -1.894531 1.410156 -1.921875 1.296875 -1.921875 C 1.078125 -1.921875 0.890625 -1.84375 0.734375 -1.6875 C 0.578125 -1.539062 0.5 -1.359375 0.5 -1.140625 C 0.5 -0.910156 0.578125 -0.71875 0.734375 -0.5625 C 0.890625 -0.414062 1.078125 -0.34375 1.296875 -0.34375 C 1.535156 -0.34375 1.742188 -0.429688 1.921875 -0.609375 L 2.15625 -0.359375 C 2.039062 -0.242188 1.90625 -0.148438 1.75 -0.078125 C 1.59375 -0.015625 1.4375 0.015625 1.28125 0.015625 C 0.945312 0.015625 0.664062 -0.09375 0.4375 -0.3125 C 0.21875 -0.53125 0.109375 -0.800781 0.109375 -1.125 C 0.109375 -1.445312 0.222656 -1.71875 0.453125 -1.9375 C 0.679688 -2.15625 0.960938 -2.265625 1.296875 -2.265625 Z M 1.296875 -2.265625 "/></g></g></g><g fill="rgb(38.038635%, 34.118652%, 86.669922%)" fill-opacity="1"><g transform="translate(7.589987, 18.159892)"><g><path d="M 0.453125 -1.9375 C 0.679688 -2.15625 0.960938 -2.265625 1.296875 -2.265625 C 1.640625 -2.265625 1.925781 -2.15625 2.15625 -1.9375 C 2.382812 -1.71875 2.5 -1.445312 2.5 -1.125 C 2.5 -0.800781 2.382812 -0.53125 2.15625 -0.3125 C 1.925781 -0.09375 1.640625 0.015625 1.296875 0.015625 C 0.960938 0.015625 0.679688 -0.09375 0.453125 -0.3125 C 0.222656 -0.53125 0.109375 -0.800781 0.109375 -1.125 C 0.109375 -1.445312 0.222656 -1.71875 0.453125 -1.9375 Z M 1.3125 -1.921875 C 1.082031 -1.921875 0.890625 -1.84375 0.734375 -1.6875 C 0.578125 -1.539062 0.5 -1.351562 0.5 -1.125 C 0.5 -0.90625 0.578125 -0.71875 0.734375 -0.5625 C 0.890625 -0.40625 1.078125 -0.328125 1.296875 -0.328125 C 1.523438 -0.328125 1.71875 -0.40625 1.875 -0.5625 C 2.03125 -0.71875 2.109375 -0.90625 2.109375 -1.125 C 2.109375 -1.351562 2.03125 -1.539062 1.875 -1.6875 C 1.71875 -1.84375 1.53125 -1.921875 1.3125 -1.921875 Z M 1.3125 -1.921875 "/></g></g></g><g fill="rgb(38.038635%, 34.118652%, 86.669922%)" fill-opacity="1"><g transform="translate(10.537192, 18.159892)"><g><path d="M 0.671875 0 L 0.296875 0 L 0.296875 -2.25 L 0.671875 -2.25 Z M 0.671875 0 "/></g></g></g><g fill="rgb(38.038635%, 34.118652%, 86.669922%)" fill-opacity="1"><g transform="translate(11.848153, 18.159892)"><g><path d="M 2.25 0 L 1.875 0 L 0.671875 -1.609375 L 0.671875 0 L 0.296875 0 L 0.296875 -2.25 L 0.671875 -2.25 L 1.875 -0.640625 L 1.875 -2.25 L 2.25 -2.25 Z M 2.25 0 "/></g></g></g><g fill="rgb(38.038635%, 34.118652%, 86.669922%)" fill-opacity="1"><g transform="translate(14.73738, 18.159892)"><g><path d="M 1.296875 -2.265625 C 1.453125 -2.265625 1.601562 -2.234375 1.75 -2.171875 C 1.90625 -2.109375 2.039062 -2.023438 2.15625 -1.921875 L 1.921875 -1.640625 C 1.847656 -1.722656 1.753906 -1.789062 1.640625 -1.84375 C 1.523438 -1.894531 1.410156 -1.921875 1.296875 -1.921875 C 1.078125 -1.921875 0.890625 -1.84375 0.734375 -1.6875 C 0.578125 -1.539062 0.5 -1.359375 0.5 -1.140625 C 0.5 -0.910156 0.578125 -0.71875 0.734375 -0.5625 C 0.890625 -0.414062 1.078125 -0.34375 1.296875 -0.34375 C 1.535156 -0.34375 1.742188 -0.429688 1.921875 -0.609375 L 2.15625 -0.359375 C 2.039062 -0.242188 1.90625 -0.148438 1.75 -0.078125 C 1.59375 -0.015625 1.4375 0.015625 1.28125 0.015625 C 0.945312 0.015625 0.664062 -0.09375 0.4375 -0.3125 C 0.21875 -0.53125 0.109375 -0.800781 0.109375 -1.125 C 0.109375 -1.445312 0.222656 -1.71875 0.453125 -1.9375 C 0.679688 -2.15625 0.960938 -2.265625 1.296875 -2.265625 Z M 1.296875 -2.265625 "/></g></g></g><g fill="rgb(38.038635%, 34.118652%, 86.669922%)" fill-opacity="1"><g transform="translate(17.320617, 18.159892)"><g><path d="M 2.25 0 L 1.875 0 L 1.875 -0.9375 L 0.671875 -0.9375 L 0.671875 0 L 0.296875 0 L 0.296875 -2.25 L 0.671875 -2.25 L 0.671875 -1.28125 L 1.875 -1.28125 L 1.875 -2.25 L 2.25 -2.25 Z M 2.25 0 "/></g></g></g><g fill="rgb(38.038635%, 34.118652%, 86.669922%)" fill-opacity="1"><g transform="translate(20.206624, 18.159892)"><g><path d="M 1.90625 -1.90625 L 0.671875 -1.90625 L 0.671875 -1.296875 L 1.78125 -1.296875 L 1.78125 -0.96875 L 0.671875 -0.96875 L 0.671875 -0.34375 L 1.9375 -0.34375 L 1.9375 0 L 0.296875 0 L 0.296875 -2.25 L 1.90625 -2.25 Z M 1.90625 -1.90625 "/></g></g></g><g fill="rgb(38.038635%, 34.118652%, 86.669922%)" fill-opacity="1"><g transform="translate(22.657801, 18.159892)"><g><path d="M 1.296875 -2.265625 C 1.453125 -2.265625 1.601562 -2.234375 1.75 -2.171875 C 1.90625 -2.109375 2.039062 -2.023438 2.15625 -1.921875 L 1.921875 -1.640625 C 1.847656 -1.722656 1.753906 -1.789062 1.640625 -1.84375 C 1.523438 -1.894531 1.410156 -1.921875 1.296875 -1.921875 C 1.078125 -1.921875 0.890625 -1.84375 0.734375 -1.6875 C 0.578125 -1.539062 0.5 -1.359375 0.5 -1.140625 C 0.5 -0.910156 0.578125 -0.71875 0.734375 -0.5625 C 0.890625 -0.414062 1.078125 -0.34375 1.296875 -0.34375 C 1.535156 -0.34375 1.742188 -0.429688 1.921875 -0.609375 L 2.15625 -0.359375 C 2.039062 -0.242188 1.90625 -0.148438 1.75 -0.078125 C 1.59375 -0.015625 1.4375 0.015625 1.28125 0.015625 C 0.945312 0.015625 0.664062 -0.09375 0.4375 -0.3125 C 0.21875 -0.53125 0.109375 -0.800781 0.109375 -1.125 C 0.109375 -1.445312 0.222656 -1.71875 0.453125 -1.9375 C 0.679688 -2.15625 0.960938 -2.265625 1.296875 -2.265625 Z M 1.296875 -2.265625 "/></g></g></g><g fill="rgb(38.038635%, 34.118652%, 86.669922%)" fill-opacity="1"><g transform="translate(25.241039, 18.159892)"><g><path d="M 1.796875 0 L 1.0625 -1 L 0.671875 -0.578125 L 0.671875 0 L 0.296875 0 L 0.296875 -2.25 L 0.671875 -2.25 L 0.671875 -1.09375 L 1.75 -2.25 L 2.203125 -2.25 L 1.328125 -1.296875 L 2.25 0 Z M 1.796875 0 "/></g></g></g><g fill="rgb(38.038635%, 34.118652%, 86.669922%)" fill-opacity="1"><g transform="translate(11.729629, 19.529706)"><g><path d="M 0.5 -0.53125 L 0.296875 -0.53125 L 0.296875 0 L 0.203125 0 L 0.203125 -0.53125 L 0.015625 -0.53125 L 0.015625 -0.625 L 0.5 -0.625 Z M 0.5 -0.53125 "/></g></g></g><g fill="rgb(38.038635%, 34.118652%, 86.669922%)" fill-opacity="1"><g transform="translate(12.242174, 19.529706)"><g><path d="M 0.53125 -0.53125 L 0.1875 -0.53125 L 0.1875 -0.359375 L 0.484375 -0.359375 L 0.484375 -0.265625 L 0.1875 -0.265625 L 0.1875 -0.09375 L 0.546875 -0.09375 L 0.546875 0 L 0.078125 0 L 0.078125 -0.625 L 0.53125 -0.625 Z M 0.53125 -0.53125 "/></g></g></g><g fill="rgb(38.038635%, 34.118652%, 86.669922%)" fill-opacity="1"><g transform="translate(12.822881, 19.529706)"><g><path d="M 0.359375 -0.625 C 0.398438 -0.625 0.441406 -0.613281 0.484375 -0.59375 C 0.523438 -0.570312 0.5625 -0.550781 0.59375 -0.53125 L 0.53125 -0.453125 C 0.507812 -0.472656 0.484375 -0.488281 0.453125 -0.5 C 0.421875 -0.519531 0.390625 -0.53125 0.359375 -0.53125 C 0.296875 -0.53125 0.242188 -0.507812 0.203125 -0.46875 C 0.160156 -0.425781 0.140625 -0.375 0.140625 -0.3125 C 0.140625 -0.25 0.160156 -0.195312 0.203125 -0.15625 C 0.242188 -0.113281 0.296875 -0.09375 0.359375 -0.09375 C 0.421875 -0.09375 0.476562 -0.117188 0.53125 -0.171875 L 0.59375 -0.09375 C 0.5625 -0.0703125 0.523438 -0.0507812 0.484375 -0.03125 C 0.441406 -0.0078125 0.394531 0 0.34375 0 C 0.257812 0 0.1875 -0.03125 0.125 -0.09375 C 0.0625 -0.15625 0.03125 -0.222656 0.03125 -0.296875 C 0.03125 -0.390625 0.0625 -0.46875 0.125 -0.53125 C 0.1875 -0.59375 0.265625 -0.625 0.359375 -0.625 Z M 0.359375 -0.625 "/></g></g></g><g fill="rgb(38.038635%, 34.118652%, 86.669922%)" fill-opacity="1"><g transform="translate(13.439882, 19.529706)"><g><path d="M 0.625 0 L 0.515625 0 L 0.515625 -0.265625 L 0.1875 -0.265625 L 0.1875 0 L 0.078125 0 L 0.078125 -0.625 L 0.1875 -0.625 L 0.1875 -0.34375 L 0.515625 -0.34375 L 0.515625 -0.625 L 0.625 -0.625 Z M 0.625 0 "/></g></g></g><g fill="rgb(38.038635%, 34.118652%, 86.669922%)" fill-opacity="1"><g transform="translate(14.140094, 19.529706)"><g><path d="M 0.625 0 L 0.515625 0 L 0.1875 -0.4375 L 0.1875 0 L 0.078125 0 L 0.078125 -0.625 L 0.1875 -0.625 L 0.515625 -0.1875 L 0.515625 -0.625 L 0.625 -0.625 Z M 0.625 0 "/></g></g></g><g fill="rgb(38.038635%, 34.118652%, 86.669922%)" fill-opacity="1"><g transform="translate(14.841191, 19.529706)"><g><path d="M 0.125 -0.53125 C 0.1875 -0.59375 0.265625 -0.625 0.359375 -0.625 C 0.453125 -0.625 0.53125 -0.59375 0.59375 -0.53125 C 0.65625 -0.46875 0.6875 -0.394531 0.6875 -0.3125 C 0.6875 -0.226562 0.65625 -0.15625 0.59375 -0.09375 C 0.53125 -0.03125 0.453125 0 0.359375 0 C 0.265625 0 0.1875 -0.03125 0.125 -0.09375 C 0.0625 -0.15625 0.03125 -0.226562 0.03125 -0.3125 C 0.03125 -0.394531 0.0625 -0.46875 0.125 -0.53125 Z M 0.359375 -0.53125 C 0.296875 -0.53125 0.242188 -0.507812 0.203125 -0.46875 C 0.160156 -0.425781 0.140625 -0.375 0.140625 -0.3125 C 0.140625 -0.25 0.160156 -0.191406 0.203125 -0.140625 C 0.242188 -0.0976562 0.296875 -0.078125 0.359375 -0.078125 C 0.421875 -0.078125 0.472656 -0.0976562 0.515625 -0.140625 C 0.554688 -0.191406 0.578125 -0.25 0.578125 -0.3125 C 0.578125 -0.375 0.554688 -0.425781 0.515625 -0.46875 C 0.472656 -0.507812 0.421875 -0.53125 0.359375 -0.53125 Z M 0.359375 -0.53125 "/></g></g></g><g fill="rgb(38.038635%, 34.118652%, 86.669922%)" fill-opacity="1"><g transform="translate(15.558223, 19.529706)"><g><path d="M 0.1875 -0.09375 L 0.453125 -0.09375 L 0.453125 0 L 0.078125 0 L 0.078125 -0.625 L 0.1875 -0.625 Z M 0.1875 -0.09375 "/></g></g></g><g fill="rgb(38.038635%, 34.118652%, 86.669922%)" fill-opacity="1"><g transform="translate(16.030932, 19.529706)"><g><path d="M 0.125 -0.53125 C 0.1875 -0.59375 0.265625 -0.625 0.359375 -0.625 C 0.453125 -0.625 0.53125 -0.59375 0.59375 -0.53125 C 0.65625 -0.46875 0.6875 -0.394531 0.6875 -0.3125 C 0.6875 -0.226562 0.65625 -0.15625 0.59375 -0.09375 C 0.53125 -0.03125 0.453125 0 0.359375 0 C 0.265625 0 0.1875 -0.03125 0.125 -0.09375 C 0.0625 -0.15625 0.03125 -0.226562 0.03125 -0.3125 C 0.03125 -0.394531 0.0625 -0.46875 0.125 -0.53125 Z M 0.359375 -0.53125 C 0.296875 -0.53125 0.242188 -0.507812 0.203125 -0.46875 C 0.160156 -0.425781 0.140625 -0.375 0.140625 -0.3125 C 0.140625 -0.25 0.160156 -0.191406 0.203125 -0.140625 C 0.242188 -0.0976562 0.296875 -0.078125 0.359375 -0.078125 C 0.421875 -0.078125 0.472656 -0.0976562 0.515625 -0.140625 C 0.554688 -0.191406 0.578125 -0.25 0.578125 -0.3125 C 0.578125 -0.375 0.554688 -0.425781 0.515625 -0.46875 C 0.472656 -0.507812 0.421875 -0.53125 0.359375 -0.53125 Z M 0.359375 -0.53125 "/></g></g></g><g fill="rgb(38.038635%, 34.118652%, 86.669922%)" fill-opacity="1"><g transform="translate(16.747964, 19.529706)"><g><path d="M 0.515625 -0.296875 L 0.59375 -0.296875 L 0.59375 -0.078125 C 0.5625 -0.0546875 0.523438 -0.0351562 0.484375 -0.015625 C 0.441406 -0.00390625 0.398438 0 0.359375 0 C 0.265625 0 0.1875 -0.03125 0.125 -0.09375 C 0.0625 -0.15625 0.03125 -0.226562 0.03125 -0.3125 C 0.03125 -0.394531 0.0625 -0.46875 0.125 -0.53125 C 0.1875 -0.59375 0.265625 -0.625 0.359375 -0.625 C 0.398438 -0.625 0.441406 -0.613281 0.484375 -0.59375 C 0.523438 -0.582031 0.5625 -0.566406 0.59375 -0.546875 L 0.546875 -0.453125 C 0.492188 -0.503906 0.429688 -0.53125 0.359375 -0.53125 C 0.296875 -0.53125 0.242188 -0.507812 0.203125 -0.46875 C 0.160156 -0.425781 0.140625 -0.367188 0.140625 -0.296875 C 0.140625 -0.242188 0.160156 -0.191406 0.203125 -0.140625 C 0.242188 -0.0976562 0.296875 -0.078125 0.359375 -0.078125 C 0.398438 -0.078125 0.453125 -0.0976562 0.515625 -0.140625 Z M 0.515625 -0.296875 "/></g></g></g><g fill="rgb(38.038635%, 34.118652%, 86.669922%)" fill-opacity="1"><g transform="translate(17.410996, 19.529706)"><g><path d="M 0.328125 -0.203125 L 0.328125 0 L 0.234375 0 L 0.234375 -0.203125 L 0 -0.625 L 0.109375 -0.625 L 0.28125 -0.3125 L 0.453125 -0.625 L 0.5625 -0.625 Z M 0.328125 -0.203125 "/>
			</g>
		</g>
	</g>
</svg>