<?xml version="1.0" standalone="no"?>
<!DOCTYPE svg PUBLIC "-//W3C//DTD SVG 20010904//EN"
 "http://www.w3.org/TR/2001/REC-SVG-20010904/DTD/svg10.dtd">
<svg version="1.0" xmlns="http://www.w3.org/2000/svg"
 width="640.000000pt" height="640.000000pt" viewBox="0 0 640.000000 640.000000"
 preserveAspectRatio="xMidYMid meet">
<metadata>
Created by potrace 1.16, written by Peter Selinger 2001-2019
</metadata>
<g transform="translate(0.000000,640.000000) scale(0.100000,-0.100000)"
fill="#000000" stroke="none">
<path d="M2925 6374 c-195 -15 -461 -59 -570 -94 -104 -33 -331 -81 -790 -164
l-190 -34 -220 13 c-121 8 -244 14 -272 15 l-53 0 0 -59 c0 -235 66 -537 160
-736 105 -220 290 -422 463 -506 l47 -23 0 -98 c0 -192 69 -412 187 -597 19
-29 36 -52 38 -49 2 2 11 154 20 338 9 184 17 335 18 336 1 1 63 -11 138 -26
162 -33 376 -65 554 -81 166 -16 585 -16 740 0 529 53 1024 214 1349 437 43
30 81 52 84 50 24 -24 55 -396 68 -794 l7 -223 34 33 c76 72 148 270 175 478
27 210 7 678 -37 843 -45 172 -134 266 -252 268 l-48 0 -55 86 c-193 300 -545
500 -1001 569 -100 15 -484 26 -594 18z"/>
<path d="M2501 4094 c-80 -56 -80 -262 0 -318 53 -37 120 -6 149 69 16 40 16
131 1 177 -24 73 -98 108 -150 72z"/>
<path d="M3837 4092 c-64 -40 -89 -178 -48 -268 63 -139 201 -67 201 104 0 70
-16 117 -51 149 -34 31 -69 36 -102 15z"/>
<path d="M2290 2398 c-126 -167 -135 -175 -239 -228 -123 -61 -176 -79 -275
-91 -175 -20 -460 -73 -626 -115 -468 -120 -755 -270 -883 -465 -73 -110 -158
-367 -197 -594 -39 -229 -69 -584 -70 -832 l0 -73 3201 0 3202 0 -6 247 c-15
644 -136 1099 -364 1366 -97 114 -176 159 -427 246 -281 97 -495 153 -631 166
-284 26 -454 62 -603 128 l-120 52 -117 148 c-65 82 -123 146 -129 144 -7 -3
-52 -28 -101 -57 -155 -89 -332 -170 -406 -186 -39 -8 -98 -21 -132 -29 -38
-9 -114 -15 -195 -15 -124 0 -139 2 -210 30 -42 16 -130 50 -195 74 -108 42
-282 130 -349 177 -14 11 -30 19 -35 19 -4 0 -46 -51 -93 -112z"/>
</g>
</svg>
