<svg width="104" height="47" viewBox="0 0 104 47" fill="none" xmlns="http://www.w3.org/2000/svg">
<path d="M15.2347 0H22.828H32.0319C40.4458 0 47.2666 6.8208 47.2666 15.2347V31.6413C47.2666 40.0552 40.4458 46.876 32.0319 46.876H15.2347C6.8208 46.876 0 40.0552 0 31.6413V15.2347C0 6.8208 6.8208 0 15.2347 0Z" fill="#0041FF"/>
<path d="M64.488 25.28C63.0133 25.28 61.884 24.86 61.1 24.02C60.3347 23.18 59.952 21.9947 59.952 20.464V9.936C59.952 8.40533 60.3347 7.22 61.1 6.38C61.884 5.54 63.0133 5.12 64.488 5.12C65.9627 5.12 67.0827 5.54 67.848 6.38C68.632 7.22 69.024 8.40533 69.024 9.936V12.008H66.112V9.74C66.112 8.52667 65.5987 7.92 64.572 7.92C63.5453 7.92 63.032 8.52667 63.032 9.74V20.688C63.032 21.8827 63.5453 22.48 64.572 22.48C65.5987 22.48 66.112 21.8827 66.112 20.688V17.692H69.024V20.464C69.024 21.9947 68.632 23.18 67.848 24.02C67.0827 24.86 65.9627 25.28 64.488 25.28ZM73.2468 5.4H77.4188L80.6108 25H77.5308L76.9708 21.108V21.164H73.4708L72.9108 25H70.0548L73.2468 5.4ZM76.6068 18.504L75.2348 8.816H75.1788L73.8347 18.504H76.6068ZM82.105 5.4H86.669C88.2557 5.4 89.413 5.77333 90.141 6.52C90.869 7.248 91.233 8.37733 91.233 9.908V11.112C91.233 13.1467 90.561 14.4347 89.217 14.976V15.032C89.9637 15.256 90.4864 15.7133 90.785 16.404C91.1024 17.0947 91.261 18.0187 91.261 19.176V22.62C91.261 23.18 91.2797 23.6373 91.317 23.992C91.3544 24.328 91.4477 24.664 91.597 25H88.461C88.349 24.6827 88.2744 24.384 88.237 24.104C88.1997 23.824 88.181 23.32 88.181 22.592V19.008C88.181 18.112 88.0317 17.4867 87.733 17.132C87.453 16.7773 86.9584 16.6 86.249 16.6H85.185V25H82.105V5.4ZM86.305 13.8C86.921 13.8 87.3784 13.6413 87.677 13.324C87.9944 13.0067 88.153 12.4747 88.153 11.728V10.216C88.153 9.50667 88.0224 8.99333 87.761 8.676C87.5184 8.35867 87.1264 8.2 86.585 8.2H85.185V13.8H86.305ZM93.398 5.4H98.102C99.6327 5.4 100.781 5.81067 101.546 6.632C102.311 7.45333 102.694 8.65733 102.694 10.244V20.156C102.694 21.7427 102.311 22.9467 101.546 23.768C100.781 24.5893 99.6327 25 98.102 25H93.398V5.4ZM98.046 22.2C98.55 22.2 98.9327 22.0507 99.194 21.752C99.474 21.4533 99.614 20.968 99.614 20.296V10.104C99.614 9.432 99.474 8.94667 99.194 8.648C98.9327 8.34933 98.55 8.2 98.046 8.2H96.478V22.2H98.046ZM61.944 41.16C61.0907 41.16 60.4453 40.92 60.008 40.44C59.5707 39.9493 59.352 39.2507 59.352 38.344V37.704H61.016V38.472C61.016 39.1973 61.32 39.56 61.928 39.56C62.2267 39.56 62.4507 39.4747 62.6 39.304C62.76 39.1227 62.84 38.8347 62.84 38.44C62.84 37.9707 62.7333 37.56 62.52 37.208C62.3067 36.8453 61.912 36.4133 61.336 35.912C60.6107 35.272 60.104 34.696 59.816 34.184C59.528 33.6613 59.384 33.0747 59.384 32.424C59.384 31.5387 59.608 30.856 60.056 30.376C60.504 29.8853 61.1547 29.64 62.008 29.64C62.8507 29.64 63.4853 29.8853 63.912 30.376C64.3493 30.856 64.568 31.5493 64.568 32.456V32.92H62.904V32.344C62.904 31.96 62.8293 31.6827 62.68 31.512C62.5307 31.3307 62.312 31.24 62.024 31.24C61.4373 31.24 61.144 31.5973 61.144 32.312C61.144 32.7173 61.2507 33.096 61.464 33.448C61.688 33.8 62.088 34.2267 62.664 34.728C63.4 35.368 63.9067 35.9493 64.184 36.472C64.4613 36.9947 64.6 37.608 64.6 38.312C64.6 39.2293 64.3707 39.9333 63.912 40.424C63.464 40.9147 62.808 41.16 61.944 41.16ZM66.9851 31.4H65.1451V29.8H70.5851V31.4H68.7451V41H66.9851V31.4ZM72.0629 29.8H74.4469L76.2709 41H74.5109L74.1909 38.776V38.808H72.1909L71.8709 41H70.2389L72.0629 29.8ZM73.9829 37.288L73.1989 31.752H73.1669L72.3989 37.288H73.9829ZM77.1248 29.8H79.7328C80.6394 29.8 81.3008 30.0133 81.7168 30.44C82.1328 30.856 82.3408 31.5013 82.3408 32.376V33.064C82.3408 34.2267 81.9568 34.9627 81.1888 35.272V35.304C81.6154 35.432 81.9141 35.6933 82.0848 36.088C82.2661 36.4827 82.3568 37.0107 82.3568 37.672V39.64C82.3568 39.96 82.3674 40.2213 82.3888 40.424C82.4101 40.616 82.4634 40.808 82.5488 41H80.7568C80.6928 40.8187 80.6501 40.648 80.6288 40.488C80.6074 40.328 80.5968 40.04 80.5968 39.624V37.576C80.5968 37.064 80.5114 36.7067 80.3408 36.504C80.1808 36.3013 79.8981 36.2 79.4928 36.2H78.8848V41H77.1248V29.8ZM79.5248 34.6C79.8768 34.6 80.1381 34.5093 80.3088 34.328C80.4901 34.1467 80.5807 33.8427 80.5807 33.416V32.552C80.5807 32.1467 80.5061 31.8533 80.3568 31.672C80.2181 31.4907 79.9941 31.4 79.6848 31.4H78.8848V34.6H79.5248ZM84.9226 31.4H83.0826V29.8H88.5226V31.4H86.6826V41H84.9226V31.4ZM89.3748 29.8H94.1748V31.4H91.1348V34.36H93.5508V35.96H91.1348V39.4H94.1748V41H89.3748V29.8ZM95.1873 29.8H97.7953C98.7019 29.8 99.3633 30.0133 99.7793 30.44C100.195 30.856 100.403 31.5013 100.403 32.376V33.064C100.403 34.2267 100.019 34.9627 99.2513 35.272V35.304C99.6779 35.432 99.9766 35.6933 100.147 36.088C100.329 36.4827 100.419 37.0107 100.419 37.672V39.64C100.419 39.96 100.43 40.2213 100.451 40.424C100.473 40.616 100.526 40.808 100.611 41H98.8193C98.7553 40.8187 98.7126 40.648 98.6913 40.488C98.6699 40.328 98.6593 40.04 98.6593 39.624V37.576C98.6593 37.064 98.5739 36.7067 98.4033 36.504C98.2433 36.3013 97.9606 36.2 97.5553 36.2H96.9473V41H95.1873V29.8ZM97.5873 34.6C97.9393 34.6 98.2006 34.5093 98.3713 34.328C98.5526 34.1467 98.6432 33.8427 98.6432 33.416V32.552C98.6432 32.1467 98.5686 31.8533 98.4193 31.672C98.2806 31.4907 98.0566 31.4 97.7473 31.4H96.9473V34.6H97.5873Z" fill="white"/>
<path fill-rule="evenodd" clip-rule="evenodd" d="M23.8282 15.3374C28.4238 15.3374 32.1647 19.0659 32.1647 23.6615C32.1647 28.2571 28.4362 31.9979 23.8282 31.9979C19.2326 31.9979 15.5042 28.2695 15.5042 23.6615C15.5042 19.0783 19.2326 15.3374 23.8282 15.3374Z" fill="white"/>
<path fill-rule="evenodd" clip-rule="evenodd" d="M7.99766 24.9003C9.65752 24.9003 10.9953 26.2381 10.9953 27.8979C10.9953 29.5578 9.65752 30.8956 7.99766 30.8956C6.3378 30.8956 5 29.5578 5 27.8979C5 26.2505 6.3378 24.9003 7.99766 24.9003Z" fill="white"/>
<path fill-rule="evenodd" clip-rule="evenodd" d="M29.4273 3C32.3383 3 34.6918 5.35353 34.6918 8.26448C34.6918 11.1754 32.3383 13.529 29.4273 13.529C26.5164 13.529 24.1628 11.1754 24.1628 8.26448C24.1628 5.35353 26.5164 3 29.4273 3Z" fill="white"/>
<path fill-rule="evenodd" clip-rule="evenodd" d="M30.8641 34.141C33.2548 34.141 35.1995 36.0858 35.1995 38.4764C35.1995 40.8671 33.2548 42.8119 30.8641 42.8119C28.4734 42.8119 26.5286 40.8671 26.5286 38.4764C26.5162 36.0858 28.461 34.141 30.8641 34.141Z" fill="white"/>
</svg>
