<svg id="charli3-face" xmlns="http://www.w3.org/2000/svg" viewBox="0 0 264.7 137.6">
		<path fill-rule="evenodd" clip-rule="evenodd" fill="#E52F2F" d="M132.3,0C97.9,0,63.8,6.5,31.8,19.2c-1.1,0.4-1.8,1.5-1.8,2.6v93.9c0,1.2,0.7,2.2,1.8,2.6c32,12.7,66.1,19.2,100.6,19.2c34.4,0,68.6-6.5,100.6-19.2c1.1-0.4,1.8-1.5,1.8-2.6V21.9c0-1.2-0.7-2.2-1.8-2.6C200.9,6.5,166.8,0,132.3,0z M216.2,99.3c0,3.2-2.1,6.1-5.2,7.1c-25.4,8.2-52,12.5-78.7,12.5c-26.6,0-52.9-4.2-78.2-12.3c-3.4-0.8-5.7-3.8-5.7-7.3V38.4c0-3.2,2-6.1,5.1-7.1c51-16.6,105.9-16.6,157-0.1c3.4,0.8,5.7,3.9,5.7,7.3L216.2,99.3z"></path>
		<path fill-rule="evenodd" clip-rule="evenodd" fill="#E52F2F" d="M246.6,68.8v13.1c0,1.2,0.9,2.1,2.1,2.1l0,0h11.6c1.2,0,2.3-0.4,3.1-1.3c0.8-0.8,1.3-2,1.3-3.1V58c0-1.2-0.5-2.3-1.2-3.1c-0.8-0.9-1.9-1.3-3.1-1.3h-11.6c-1.2,0-2.1,0.9-2.1,2.1v0V68.8z"></path>
		<path fill-rule="evenodd" clip-rule="evenodd" fill="#E52F2F" d="M18,55.6c0-1.2-0.9-2.1-2.1-2.1c0,0,0,0,0,0H4.3c-1.2,0-2.3,0.5-3.1,1.3C0.5,55.7,0,56.9,0,58v21.5c0,1.2,0.4,2.3,1.2,3.2C2.1,83.6,3.2,84,4.3,84h11.6c1.2,0,2.1-0.9,2.1-2.1l0,0V55.6z"></path>
		<ellipse id="charli3-face-left-eye" fill="#E52F2F" cx="102" cy="68.8" rx="13.8"></ellipse>
		<ellipse id="charli3-face-right-eye" fill="#E52F2F" cx="162.7" cy="68.8" rx="13.8"></ellipse>
	</svg>