<svg viewBox="0 0 50 50" fill="none" xmlns="http://www.w3.org/2000/svg" class="ml-header__logo__svg ml-header__logo__svg--icon" aria-label="Matrix Labs"><path d="M40.727 5.545C36.455 2.091 31.091.091 25.637 0a25.394 25.394 0 0 0-10.728 2.09c-3.09 1.365-5.818 3.365-8.09 5.82h3c1.817-1.546 3.817-2.91 6-3.82 2.817-1.363 6-2 9.18-2 6.092 0 11.91 2.365 16.183 6.728C45.545 13.182 47.909 18.91 47.909 25c0 2-.273 4-.727 5.91C46.727 32.726 46 34.363 45.09 36H31.909V25.182l.09-4.364-2.908 4.546-4.182 6.363-3.454-5.363L18 20.909V36.09h-6.182V16.183l-2.09 2.636v19.273H20.09v-10L23.909 34c.182.364 1 1.455 1 1.455s1-1.364 1-1.455l3.91-6v10.091h15.908a1 1 0 0 0 .91-.546l.09-.09a24.534 24.534 0 0 0 2.455-6C49.727 29.364 50 27.182 50 25c0-7.545-3.364-14.636-9.273-19.455Z" fill="url(#matrixlabs-icon_svg__a)"></path><path d="M34.818 45.727c-3.09 1.455-6.363 2.182-9.818 2.182-6.09 0-11.91-2.363-16.182-6.727C4.455 36.818 2.091 31.09 2.091 25c0-2.273.364-4.454 1-6.636.545-1.91 1.364-3.818 2.454-5.546H19l4.273 7L25 22.728l1.727-2.91 4.273-7h7.182v19.637l2.09-2.546V10.727H29.82l-.546 1L25 18.637l-4.273-7-.545-1H4.364c-1.546 2.18-2.637 4.544-3.364 7.09C.364 20.091 0 22.546 0 25c0 6.637 2.636 13 7.364 17.636C12.09 47.364 18.364 50 25 50a24.91 24.91 0 0 0 10.636-2.364c3.273-1.545 6.182-3.818 8.546-6.636h-2.818c-1.91 1.91-4.091 3.546-6.546 4.727Z" fill="url(#matrixlabs-icon_svg__b)"></path><defs><linearGradient id="matrixlabs-icon_svg__a" x1="3.938" y1="43.34" x2="42.612" y2="8.285" gradientUnits="userSpaceOnUse"><stop stop-color="#1AB8DF"></stop><stop offset="1" stop-color="#14EC24"></stop></linearGradient><linearGradient id="matrixlabs-icon_svg__b" x1="4.527" y1="43.99" x2="43.2" y2="8.935" gradientUnits="userSpaceOnUse"><stop stop-color="#1AB8DF"></stop><stop offset="1" stop-color="#14EC24"></stop></linearGradient></defs></svg>