<?xml version="1.0" encoding="UTF-8" standalone="no" ?>
<svg width="1em" height="1em" viewBox="0 0 197.572 193.025" xmlns="http://www.w3.org/2000/svg">
	<g data-name="sundae white">
		<path
                data-name="Path 662"
                d="M155.1 161.987a1.88 1.88 0 00-.983-1.7l-61.71-35.636a15.761 15.761 0 00-15.767 0l-33.178 19.155a1.874 1.874 0 00-.984 1.718v8.763a1.876 1.876 0 001.013 1.7l63.116 35.057a15.773 15.773 0 0015.539-.13l31.975-18.461a1.877 1.877 0 00.983-1.7v-8.766h-.004zm0 0"
                fill="#6b7495"/>
		<path
                data-name="Path 663"
                d="M84.519 122.538a15.783 15.783 0 017.888 2.112l61.714 35.631a1.966 1.966 0 010 3.407l-31.974 18.461a15.773 15.773 0 01-15.539.13l-63.123-35.052a1.966 1.966 0 01-.029-3.422l33.178-19.155a15.792 15.792 0 017.885-2.112"
                fill="#b7b7c7"/>
		<path
                data-name="Path 664"
                d="M197.563 107.484a13.715 13.715 0 00-6.922-11.688l-20.357-11.754a49.365 49.365 0 012.3 10.1L94.205 48.884a35.43 35.43 0 00-35.427 0l-40 23.094a48.63 48.63 0 01.068-8.8L6.932 70.052A13.728 13.728 0 00.007 82.33v8.8a13.722 13.722 0 007.125 11.812l3.657 2.03 4.973 8.508a21.132 21.132 0 007.963 7.8l85.681 47.744a21.425 21.425 0 0021.112-.176l41.053-23.831a25.9 25.9 0 005.523-4.3l9.688-9.918 3.859-2.228a13.733 13.733 0 006.925-12.2zm0 0"
                fill="#6b7495"/>
		<path
                data-name="Path 665"
                d="M197.563 107.484a13.715 13.715 0 00-6.922-11.688l-20.357-11.754a49.365 49.365 0 012.3 10.1L94.205 48.884a35.43 35.43 0 00-35.427 0l-40 23.094a48.63 48.63 0 01.068-8.8L6.932 70.052A13.728 13.728 0 00.007 82.33v8.8a13.722 13.722 0 007.125 11.812l98.631 54.768a35.428 35.428 0 0034.913-.292l49.964-28.846a13.735 13.735 0 006.926-12.2zm0 0"
                fill="#b7b7c7" />
		<path
                data-name="Path 666"
                d="M94.205 40.118l96.436 55.677a13.861 13.861 0 010 24.009l-49.964 28.848a35.432 35.432 0 01-34.913.291L7.133 94.175a13.862 13.862 0 01-.2-24.124l51.845-29.933a35.423 35.423 0 0135.427 0zm0 0"
                fill="#ecf0f1"/>
		<path
                data-name="Path 667"
                d="M76.491 46.16a24.688 24.688 0 0112.321 3.3l96.434 55.679a3.072 3.072 0 010 5.322l-49.964 28.846a24.63 24.63 0 01-24.28.2L12.371 84.739a3.073 3.073 0 01-.045-5.348l51.845-29.933a24.686 24.686 0 0112.32-3.3"
                fill="#b7b7c7" />
		<path
                data-name="Path 668"
                d="M122.963 142.611a24.667 24.667 0 0012.32-3.3l29.365-16.955-75.836-43.785a24.642 24.642 0 00-24.641 0L33.326 96.379l77.676 43.132a24.689 24.689 0 0011.961 3.1zm0 0"
                fill="#6b7495" />
		<path
                data-name="Path 669"
                d="M117.89 67.974a49.639 49.639 0 11-49.64-49.64 49.64 49.64 0 0149.64 49.64zm0 0"
                fill="#f5b7b1"/>
		<path
                data-name="Path 670"
                d="M68.25 18.334a49.639 49.639 0 00-49.639 49.638c0 1.275.063 2.532.158 3.783.231 1.86 1.3 6.411 6.248 4.385 6.208-2.541 9.664-7.818 14.164 2.082s13.281 13.711 22.6 13.262 10.441-8.073 17.859-10.218 7.193 4.941 15.061 4.209 6.293-8.376 9.89-13.1 4.946.225 10.79-.451a3.5 3.5 0 002.454-1.663c.035-.758.057-1.521.057-2.287a49.64 49.64 0 00-49.642-49.64zm0 0"
                fill="#53390e" />
		<path
                data-name="Path 671"
                d="M172.96 100.117a49.639 49.639 0 11-49.639-49.64 49.639 49.639 0 0149.639 49.64zm0 0"
                fill="#f9e79f" />
		<path
                data-name="Path 672"
                d="M123.321 50.477a49.639 49.639 0 00-49.639 49.64c0 1.274.063 2.532.157 3.782.231 1.86 1.3 6.411 6.248 4.385 6.209-2.541 9.667-7.814 14.162 2.077s13.283 13.711 22.6 13.262 10.443-8.073 17.861-10.218 7.193 4.941 15.06 4.209 6.293-8.376 9.89-13.1 4.946.225 10.79-.451a3.494 3.494 0 002.454-1.663c.035-.76.059-1.521.059-2.288a49.641 49.641 0 00-49.642-49.635zm0 0"
                fill="#7d5516"/>
		<path
                data-name="Path 673"
                d="M190.641 95.796l-20.357-11.754a49.447 49.447 0 012.623 13.973l12.339 7.124a3.072 3.072 0 010 5.322l-49.964 28.848a24.635 24.635 0 01-24.28.2L12.371 84.742a3.073 3.073 0 01-.045-5.348l6.852-3.955a49.732 49.732 0 01-.567-7.464c0-1.622.083-3.223.235-4.8L6.93 70.055a13.862 13.862 0 00.2 24.124l98.629 54.768a35.431 35.431 0 0034.915-.291l49.964-28.848a13.861 13.861 0 00.003-24.012zm0 0"
                fill="#ecf0f1" />
		<path
                data-name="Path 674"
                d="M141.655 51.55a18.334 18.334 0 11-18.338-18.334 18.334 18.334 0 0118.338 18.334zm0 0"
                fill="#e74c3c" />
		<path
                data-name="Path 675"
                d="M123.322 45.078a6.472 6.472 0 11-6.473-6.473 6.471 6.471 0 016.473 6.473zm0 0"
                fill="#ecf0f1" />
		<path
                data-name="Path 676"
                d="M86.584 18.334A18.333 18.333 0 1168.25 0a18.334 18.334 0 0118.334 18.334zm0 0"
                fill="#e74c3c" />
		<path
                data-name="Path 677"
                d="M68.25 11.863a6.471 6.471 0 11-6.471-6.473 6.471 6.471 0 016.471 6.473zm0 0"
                fill="#ecf0f1" />
    </g>
</svg>
